  0
SECTION
  2
HEADER
  9
$ACADVER
  1
AC1024
  9
$ACADMAINTVER
 70
6
  9
$DWGCODEPAGE
  3
ANSI_1252
  9
$LASTSAVEDBY
  1
ezdxf
  9
$INSBASE
 10
0.0
 20
0.0
 30
0.0
  9
$EXTMIN
 10
1e+20
 20
1e+20
 30
1e+20
  9
$EXTMAX
 10
-1e+20
 20
-1e+20
 30
-1e+20
  9
$LIMMIN
 10
0.0
 20
0.0
  9
$LIMMAX
 10
420.0
 20
297.0
  9
$ORTHOMODE
 70
0
  9
$REGENMODE
 70
1
  9
$FILLMODE
 70
1
  9
$QTEXTMODE
 70
0
  9
$MIRRTEXT
 70
1
  9
$LTSCALE
 40
1.0
  9
$ATTMODE
 70
1
  9
$TEXTSIZE
 40
2.5
  9
$TRACEWID
 40
1.0
  9
$TEXTSTYLE
  7
Standard
  9
$CLAYER
  8
0
  9
$CELTYPE
  6
ByLayer
  9
$CECOLOR
 62
256
  9
$CELTSCALE
 40
1.0
  9
$DISPSILH
 70
0
  9
$DIMSCALE
 40
1.0
  9
$DIMASZ
 40
2.5
  9
$DIMEXO
 40
0.625
  9
$DIMDLI
 40
3.75
  9
$DIMRND
 40
0.0
  9
$DIMDLE
 40
0.0
  9
$DIMEXE
 40
1.25
  9
$DIMTP
 40
0.0
  9
$DIMTM
 40
0.0
  9
$DIMTXT
 40
2.5
  9
$DIMCEN
 40
2.5
  9
$DIMTSZ
 40
0.0
  9
$DIMTOL
 70
0
  9
$DIMLIM
 70
0
  9
$DIMTIH
 70
0
  9
$DIMTOH
 70
0
  9
$DIMSE1
 70
0
  9
$DIMSE2
 70
0
  9
$DIMTAD
 70
1
  9
$DIMZIN
 70
8
  9
$DIMBLK
  1

  9
$DIMASO
 70
1
  9
$DIMSHO
 70
1
  9
$DIMPOST
  1

  9
$DIMAPOST
  1

  9
$DIMALT
 70
0
  9
$DIMALTD
 70
3
  9
$DIMALTF
 40
0.03937007874
  9
$DIMLFAC
 40
1.0
  9
$DIMTOFL
 70
1
  9
$DIMTVP
 40
0.0
  9
$DIMTIX
 70
0
  9
$DIMSOXD
 70
0
  9
$DIMSAH
 70
0
  9
$DIMBLK1
  1

  9
$DIMBLK2
  1

  9
$DIMSTYLE
  2
ISO-25
  9
$DIMCLRD
 70
0
  9
$DIMCLRE
 70
0
  9
$DIMCLRT
 70
0
  9
$DIMTFAC
 40
1.0
  9
$DIMGAP
 40
0.625
  9
$DIMJUST
 70
0
  9
$DIMSD1
 70
0
  9
$DIMSD2
 70
0
  9
$DIMTOLJ
 70
0
  9
$DIMTZIN
 70
8
  9
$DIMALTZ
 70
0
  9
$DIMALTTZ
 70
0
  9
$DIMUPT
 70
0
  9
$DIMDEC
 70
2
  9
$DIMTDEC
 70
2
  9
$DIMALTU
 70
2
  9
$DIMALTTD
 70
3
  9
$DIMTXSTY
  7
Standard
  9
$DIMAUNIT
 70
0
  9
$DIMADEC
 70
0
  9
$DIMALTRND
 40
0.0
  9
$DIMAZIN
 70
0
  9
$DIMDSEP
 70
44
  9
$DIMATFIT
 70
3
  9
$DIMFRAC
 70
0
  9
$DIMLDRBLK
  1

  9
$DIMLUNIT
 70
2
  9
$DIMLWD
 70
-2
  9
$DIMLWE
 70
-2
  9
$DIMTMOVE
 70
0
  9
$DIMFXL
 40
1.0
  9
$DIMFXLON
 70
0
  9
$DIMJOGANG
 40
0.785398163397
  9
$DIMTFILL
 70
0
  9
$DIMTFILLCLR
 70
0
  9
$DIMARCSYM
 70
0
  9
$DIMLTYPE
  6

  9
$DIMLTEX1
  6

  9
$DIMLTEX2
  6

  9
$DIMTXTDIRECTION
 70
0
  9
$LUNITS
 70
2
  9
$LUPREC
 70
4
  9
$SKETCHINC
 40
1.0
  9
$FILLETRAD
 40
10.0
  9
$AUNITS
 70
0
  9
$AUPREC
 70
2
  9
$MENU
  1
.
  9
$ELEVATION
 40
0.0
  9
$PELEVATION
 40
0.0
  9
$THICKNESS
 40
0.0
  9
$LIMCHECK
 70
0
  9
$CHAMFERA
 40
0.0
  9
$CHAMFERB
 40
0.0
  9
$CHAMFERC
 40
0.0
  9
$CHAMFERD
 40
0.0
  9
$SKPOLY
 70
0
  9
$TDCREATE
 40
2461296.7546412037
  9
$TDUCREATE
 40
2458532.153996898
  9
$TDUPDATE
 40
2461296.7546412037
  9
$TDUUPDATE
 40
2458532.1544311
  9
$TDINDWG
 40
0.0
  9
$TDUSRTIMER
 40
0.0
  9
$USRTIMER
 70
1
  9
$ANGBASE
 50
0.0
  9
$ANGDIR
 70
0
  9
$PDMODE
 70
0
  9
$PDSIZE
 40
0.0
  9
$PLINEWID
 40
0.0
  9
$SPLFRAME
 70
0
  9
$SPLINETYPE
 70
6
  9
$SPLINESEGS
 70
8
  9
$HANDSEED
  5
261
  9
$SURFTAB1
 70
6
  9
$SURFTAB2
 70
6
  9
$SURFTYPE
 70
6
  9
$SURFU
 70
6
  9
$SURFV
 70
6
  9
$UCSBASE
  2

  9
$UCSNAME
  2

  9
$UCSORG
 10
0.0
 20
0.0
 30
0.0
  9
$UCSXDIR
 10
1.0
 20
0.0
 30
0.0
  9
$UCSYDIR
 10
0.0
 20
1.0
 30
0.0
  9
$UCSORTHOREF
  2

  9
$UCSORTHOVIEW
 70
0
  9
$UCSORGTOP
 10
0.0
 20
0.0
 30
0.0
  9
$UCSORGBOTTOM
 10
0.0
 20
0.0
 30
0.0
  9
$UCSORGLEFT
 10
0.0
 20
0.0
 30
0.0
  9
$UCSORGRIGHT
 10
0.0
 20
0.0
 30
0.0
  9
$UCSORGFRONT
 10
0.0
 20
0.0
 30
0.0
  9
$UCSORGBACK
 10
0.0
 20
0.0
 30
0.0
  9
$PUCSBASE
  2

  9
$PUCSNAME
  2

  9
$PUCSORG
 10
0.0
 20
0.0
 30
0.0
  9
$PUCSXDIR
 10
1.0
 20
0.0
 30
0.0
  9
$PUCSYDIR
 10
0.0
 20
1.0
 30
0.0
  9
$PUCSORTHOREF
  2

  9
$PUCSORTHOVIEW
 70
0
  9
$PUCSORGTOP
 10
0.0
 20
0.0
 30
0.0
  9
$PUCSORGBOTTOM
 10
0.0
 20
0.0
 30
0.0
  9
$PUCSORGLEFT
 10
0.0
 20
0.0
 30
0.0
  9
$PUCSORGRIGHT
 10
0.0
 20
0.0
 30
0.0
  9
$PUCSORGFRONT
 10
0.0
 20
0.0
 30
0.0
  9
$PUCSORGBACK
 10
0.0
 20
0.0
 30
0.0
  9
$USERI1
 70
0
  9
$USERI2
 70
0
  9
$USERI3
 70
0
  9
$USERI4
 70
0
  9
$USERI5
 70
0
  9
$USERR1
 40
0.0
  9
$USERR2
 40
0.0
  9
$USERR3
 40
0.0
  9
$USERR4
 40
0.0
  9
$USERR5
 40
0.0
  9
$WORLDVIEW
 70
1
  9
$SHADEDGE
 70
3
  9
$SHADEDIF
 70
70
  9
$TILEMODE
 70
1
  9
$MAXACTVP
 70
64
  9
$PINSBASE
 10
0.0
 20
0.0
 30
0.0
  9
$PLIMCHECK
 70
0
  9
$PEXTMIN
 10
1e+20
 20
1e+20
 30
1e+20
  9
$PEXTMAX
 10
-1e+20
 20
-1e+20
 30
-1e+20
  9
$PLIMMIN
 10
0.0
 20
0.0
  9
$PLIMMAX
 10
420.0
 20
297.0
  9
$UNITMODE
 70
0
  9
$VISRETAIN
 70
1
  9
$PLINEGEN
 70
0
  9
$PSLTSCALE
 70
1
  9
$TREEDEPTH
 70
3020
  9
$CMLSTYLE
  2
Standard
  9
$CMLJUST
 70
0
  9
$CMLSCALE
 40
20.0
  9
$PROXYGRAPHICS
 70
1
  9
$MEASUREMENT
 70
1
  9
$CELWEIGHT
370
-1
  9
$ENDCAPS
280
0
  9
$JOINSTYLE
280
0
  9
$LWDISPLAY
290
0
  9
$INSUNITS
 70
6
  9
$HYPERLINKBASE
  1

  9
$STYLESHEET
  1

  9
$XEDIT
290
1
  9
$CEPSNTYPE
380
0
  9
$PSTYLEMODE
290
1
  9
$FINGERPRINTGUID
  2
{91E8ED7E-3CB8-4516-845C-825AFAA6D297}
  9
$VERSIONGUID
  2
{E5F8ED6B-382A-4C18-97CB-0A738CAAE8C8}
  9
$EXTNAMES
290
1
  9
$PSVPSCALE
 40
0.0
  9
$OLESTARTUP
290
0
  9
$SORTENTS
280
127
  9
$INDEXCTL
280
0
  9
$HIDETEXT
280
1
  9
$XCLIPFRAME
280
1
  9
$HALOGAP
280
0
  9
$OBSCOLOR
 70
257
  9
$OBSLTYPE
280
0
  9
$INTERSECTIONDISPLAY
280
0
  9
$INTERSECTIONCOLOR
 70
257
  9
$DIMASSOC
280
2
  9
$PROJECTNAME
  1

  9
$CAMERADISPLAY
290
0
  9
$LENSLENGTH
 40
50.0
  9
$CAMERAHEIGHT
 40
0.0
  9
$STEPSPERSEC
 40
24.0
  9
$STEPSIZE
 40
100.0
  9
$3DDWFPREC
 40
2.0
  9
$PSOLWIDTH
 40
0.005
  9
$PSOLHEIGHT
 40
0.08
  9
$LOFTANG1
 40
1.570796326795
  9
$LOFTANG2
 40
1.570796326795
  9
$LOFTMAG1
 40
0.0
  9
$LOFTMAG2
 40
0.0
  9
$LOFTPARAM
 70
7
  9
$LOFTNORMALS
280
1
  9
$LATITUDE
 40
37.795
  9
$LONGITUDE
 40
-122.394
  9
$NORTHDIRECTION
 40
0.0
  9
$TIMEZONE
 70
-8000
  9
$LIGHTGLYPHDISPLAY
280
1
  9
$TILEMODELIGHTSYNCH
280
1
  9
$CMATERIAL
347
20
  9
$SOLIDHIST
280
0
  9
$SHOWHIST
280
1
  9
$DWFFRAME
280
2
  9
$DGNFRAME
280
2
  9
$REALWORLDSCALE
290
1
  9
$INTERFERECOLOR
 62
256
  9
$CSHADOW
280
0
  9
$SHADOWPLANELOCATION
 40
0.0
  0
ENDSEC
  0
SECTION
  2
CLASSES
  0
CLASS
  1
ACDBDICTIONARYWDFLT
  2
AcDbDictionaryWithDefault
  3
ObjectDBX Classes
 90
0
 91
0
280
0
281
0
  0
CLASS
  1
SUN
  2
AcDbSun
  3
SCENEOE
 90
1153
 91
0
280
0
281
0
  0
CLASS
  1
VISUALSTYLE
  2
AcDbVisualStyle
  3
ObjectDBX Classes
 90
4095
 91
0
280
0
281
0
  0
CLASS
  1
MATERIAL
  2
AcDbMaterial
  3
ObjectDBX Classes
 90
1153
 91
0
280
0
281
0
  0
CLASS
  1
SCALE
  2
AcDbScale
  3
ObjectDBX Classes
 90
1153
 91
0
280
0
281
0
  0
CLASS
  1
TABLESTYLE
  2
AcDbTableStyle
  3
ObjectDBX Classes
 90
4095
 91
0
280
0
281
0
  0
CLASS
  1
MLEADERSTYLE
  2
AcDbMLeaderStyle
  3
ACDB_MLEADERSTYLE_CLASS
 90
4095
 91
0
280
0
281
0
  0
CLASS
  1
DICTIONARYVAR
  2
AcDbDictionaryVar
  3
ObjectDBX Classes
 90
0
 91
0
280
0
281
0
  0
CLASS
  1
CELLSTYLEMAP
  2
AcDbCellStyleMap
  3
ObjectDBX Classes
 90
1152
 91
0
280
0
281
0
  0
CLASS
  1
MENTALRAYRENDERSETTINGS
  2
AcDbMentalRayRenderSettings
  3
SCENEOE
 90
1024
 91
0
280
0
281
0
  0
CLASS
  1
ACDBDETAILVIEWSTYLE
  2
AcDbDetailViewStyle
  3
ObjectDBX Classes
 90
1025
 91
0
280
0
281
0
  0
CLASS
  1
ACDBSECTIONVIEWSTYLE
  2
AcDbSectionViewStyle
  3
ObjectDBX Classes
 90
1025
 91
0
280
0
281
0
  0
CLASS
  1
RASTERVARIABLES
  2
AcDbRasterVariables
  3
ISM
 90
0
 91
0
280
0
281
0
  0
CLASS
  1
LAYOUT
  2
AcDbLayout
  3
ObjectDBX Classes
 90
0
 91
0
280
0
281
0
  0
CLASS
  1
ACDBPLACEHOLDER
  2
AcDbPlaceHolder
  3
ObjectDBX Classes
 90
0
 91
0
280
0
281
0
  0
ENDSEC
  0
SECTION
  2
TABLES
  0
TABLE
  2
VPORT
  5
8
330
0
100
AcDbSymbolTable
 70
1
  0
VPORT
  5
23
330
8
100
AcDbSymbolTableRecord
100
AcDbViewportTableRecord
  2
*Active
 70
0
 10
0.0
 20
0.0
 11
1.0
 21
1.0
 12
0.0
 22
0.0
 13
0.0
 23
0.0
 14
0.5
 24
0.5
 15
0.5
 25
0.5
 16
0.0
 26
0.0
 36
1.0
 17
0.0
 27
0.0
 37
0.0
 40
1000.0
 41
1.34
 42
50.0
 43
0.0
 44
0.0
 50
0.0
 51
0.0
 71
0
 72
1000
 73
1
 74
3
 75
0
 76
0
 77
0
 78
0
281
0
 65
0
146
0.0
  0
ENDTAB
  0
TABLE
  2
LTYPE
  5
2
330
0
100
AcDbSymbolTable
 70
3
  0
LTYPE
  5
24
330
2
100
AcDbSymbolTableRecord
100
AcDbLinetypeTableRecord
  2
ByBlock
 70
0
  3

 72
65
 73
0
 40
0.0
  0
LTYPE
  5
25
330
2
100
AcDbSymbolTableRecord
100
AcDbLinetypeTableRecord
  2
ByLayer
 70
0
  3

 72
65
 73
0
 40
0.0
  0
LTYPE
  5
26
330
2
100
AcDbSymbolTableRecord
100
AcDbLinetypeTableRecord
  2
Continuous
 70
0
  3

 72
65
 73
0
 40
0.0
  0
ENDTAB
  0
TABLE
  2
LAYER
  5
1
330
0
100
AcDbSymbolTable
 70
10
  0
LAYER
  5
27
330
1
100
AcDbSymbolTableRecord
100
AcDbLayerTableRecord
  2
0
 70
0
 62
7
  6
Continuous
370
-3
390
13
347
21
  0
LAYER
  5
28
330
1
100
AcDbSymbolTableRecord
100
AcDbLayerTableRecord
  2
Defpoints
 70
0
 62
7
  6
Continuous
290
0
370
-3
390
13
347
21
  0
LAYER
  5
2F
330
1
100
AcDbSymbolTableRecord
100
AcDbLayerTableRecord
  2
WALLS
 70
0
 62
4
  6
Continuous
370
-3
390
13
347
21
  0
LAYER
  5
30
330
1
100
AcDbSymbolTableRecord
100
AcDbLayerTableRecord
  2
CONVEYORS
 70
0
 62
2
  6
Continuous
370
-3
390
13
347
21
  0
LAYER
  5
31
330
1
100
AcDbSymbolTableRecord
100
AcDbLayerTableRecord
  2
PALLETS
 70
0
 62
7
  6
Continuous
370
-3
390
13
347
21
  0
LAYER
  5
32
330
1
100
AcDbSymbolTableRecord
100
AcDbLayerTableRecord
  2
ROBOT_CELLS
 70
0
 62
6
  6
Continuous
370
-3
390
13
347
21
  0
LAYER
  5
33
330
1
100
AcDbSymbolTableRecord
100
AcDbLayerTableRecord
  2
STATIONS
 70
0
 62
3
  6
Continuous
370
-3
390
13
347
21
  0
LAYER
  5
34
330
1
100
AcDbSymbolTableRecord
100
AcDbLayerTableRecord
  2
SAFETY_FENCING
 70
0
 62
1
  6
Continuous
370
-3
390
13
347
21
  0
LAYER
  5
35
330
1
100
AcDbSymbolTableRecord
100
AcDbLayerTableRecord
  2
STORAGE
 70
0
 62
5
  6
Continuous
370
-3
390
13
347
21
  0
LAYER
  5
36
330
1
100
AcDbSymbolTableRecord
100
AcDbLayerTableRecord
  2
TEXT
 70
0
 62
7
  6
Continuous
370
-3
390
13
347
21
  0
ENDTAB
  0
TABLE
  2
STYLE
  5
5
330
0
100
AcDbSymbolTable
 70
1
  0
STYLE
  5
29
330
5
100
AcDbSymbolTableRecord
100
AcDbTextStyleTableRecord
  2
Standard
 70
0
 40
0.0
 41
1.0
 50
0.0
 71
0
 42
2.5
  3
txt
  4

  0
ENDTAB
  0
TABLE
  2
VIEW
  5
7
330
0
100
AcDbSymbolTable
 70
0
  0
ENDTAB
  0
TABLE
  2
UCS
  5
6
330
0
100
AcDbSymbolTable
 70
0
  0
ENDTAB
  0
TABLE
  2
APPID
  5
3
330
0
100
AcDbSymbolTable
 70
3
  0
APPID
  5
2A
330
3
100
AcDbSymbolTableRecord
100
AcDbRegAppTableRecord
  2
ACAD
 70
0
  0
APPID
  5
25E
330
3
100
AcDbSymbolTableRecord
100
AcDbRegAppTableRecord
  2
HATCHBACKGROUNDCOLOR
 70
0
  0
APPID
  5
25F
330
3
100
AcDbSymbolTableRecord
100
AcDbRegAppTableRecord
  2
EZDXF
 70
0
  0
ENDTAB
  0
TABLE
  2
DIMSTYLE
  5
4
330
0
100
AcDbSymbolTable
 70
1
100
AcDbDimStyleTable
  0
DIMSTYLE
105
2B
330
4
100
AcDbSymbolTableRecord
100
AcDbDimStyleTableRecord
  2
Standard
 70
0
 40
1.0
 41
2.5
 42
0.625
 43
3.75
 44
1.25
 45
0.0
 46
0.0
 47
0.0
 48
0.0
 49
2.5
140
2.5
141
2.5
142
0.0
143
0.03937007874
144
1.0
145
0.0
146
1.0
147
0.625
148
0.0
 69
0
 70
0
 71
0
 72
0
 73
0
 74
0
 75
0
 76
0
 77
1
 78
8
 79
3
170
0
171
3
172
1
173
0
174
0
175
0
176
0
177
0
178
0
179
2
271
2
272
2
273
2
274
3
275
0
276
0
277
2
278
44
279
0
280
0
281
0
282
0
283
0
284
8
285
0
286
0
288
0
289
3
290
0
371
-2
372
-2
  0
ENDTAB
  0
TABLE
  2
BLOCK_RECORD
  5
9
330
0
100
AcDbSymbolTable
 70
11
  0
BLOCK_RECORD
  5
17
330
9
100
AcDbSymbolTableRecord
100
AcDbBlockTableRecord
  2
*Model_Space
340
1A
 70
0
280
1
281
0
  0
BLOCK_RECORD
  5
1B
330
9
100
AcDbSymbolTableRecord
100
AcDbBlockTableRecord
  2
*Paper_Space
340
1E
 70
0
280
1
281
0
  0
BLOCK_RECORD
  5
3C
330
9
100
AcDbSymbolTableRecord
100
AcDbBlockTableRecord
  2
CONVEYOR_BED
340
0
 70
0
280
1
281
0
  0
BLOCK_RECORD
  5
45
330
9
100
AcDbSymbolTableRecord
100
AcDbBlockTableRecord
  2
ROBOT_CELL
340
0
 70
0
280
1
281
0
  0
BLOCK_RECORD
  5
4D
330
9
100
AcDbSymbolTableRecord
100
AcDbBlockTableRecord
  2
DISPENSING_CELL
340
0
 70
0
280
1
281
0
  0
BLOCK_RECORD
  5
55
330
9
100
AcDbSymbolTableRecord
100
AcDbBlockTableRecord
  2
FASTENING_STATION
340
0
 70
0
280
1
281
0
  0
BLOCK_RECORD
  5
5E
330
9
100
AcDbSymbolTableRecord
100
AcDbBlockTableRecord
  2
LASER_WELD_CELL
340
0
 70
0
280
1
281
0
  0
BLOCK_RECORD
  5
66
330
9
100
AcDbSymbolTableRecord
100
AcDbBlockTableRecord
  2
SERVO_PRESS
340
0
 70
0
280
1
281
0
  0
BLOCK_RECORD
  5
6C
330
9
100
AcDbSymbolTableRecord
100
AcDbBlockTableRecord
  2
VISION_INSPECTION
340
0
 70
0
280
1
281
0
  0
BLOCK_RECORD
  5
73
330
9
100
AcDbSymbolTableRecord
100
AcDbBlockTableRecord
  2
EOL_TEST_BENCH
340
0
 70
0
280
1
281
0
  0
BLOCK_RECORD
  5
79
330
9
100
AcDbSymbolTableRecord
100
AcDbBlockTableRecord
  2
WAREHOUSE_RACK
340
0
 70
0
280
1
281
0
  0
ENDTAB
  0
ENDSEC
  0
SECTION
  2
BLOCKS
  0
BLOCK
  5
18
330
17
100
AcDbEntity
  8
0
100
AcDbBlockBegin
  2
*Model_Space
 70
0
 10
0.0
 20
0.0
 30
0.0
  3
*Model_Space
  1

  0
ENDBLK
  5
19
330
17
100
AcDbEntity
  8
0
100
AcDbBlockEnd
  0
BLOCK
  5
1C
330
1B
100
AcDbEntity
  8
0
100
AcDbBlockBegin
  2
*Paper_Space
 70
0
 10
0.0
 20
0.0
 30
0.0
  3
*Paper_Space
  1

  0
ENDBLK
  5
1D
330
1B
100
AcDbEntity
  8
0
100
AcDbBlockEnd
  0
BLOCK
  5
3D
330
3C
100
AcDbEntity
  8
0
100
AcDbBlockBegin
  2
CONVEYOR_BED
 70
0
 10
0.0
 20
0.0
 30
0.0
  3
CONVEYOR_BED
  1

  0
LWPOLYLINE
  5
3F
330
3C
100
AcDbEntity
  8
CONVEYORS
100
AcDbPolyline
 90
5
 70
0
 10
-14.0
 20
-8.0
 10
14.0
 20
-8.0
 10
14.0
 20
8.0
 10
-14.0
 20
8.0
 10
-14.0
 20
-8.0
  0
LINE
  5
40
330
3C
100
AcDbEntity
  8
CONVEYORS
100
AcDbLine
 10
-14.0
 20
-4.0
 30
0.0
 11
14.0
 21
-4.0
 31
0.0
  0
LINE
  5
41
330
3C
100
AcDbEntity
  8
CONVEYORS
100
AcDbLine
 10
-14.0
 20
4.0
 30
0.0
 11
14.0
 21
4.0
 31
0.0
  0
LWPOLYLINE
  5
42
330
3C
100
AcDbEntity
  8
PALLETS
100
AcDbPolyline
 90
5
 70
0
 10
-8.0
 20
-6.0
 10
8.0
 20
-6.0
 10
8.0
 20
6.0
 10
-8.0
 20
6.0
 10
-8.0
 20
-6.0
  0
CIRCLE
  5
43
330
3C
100
AcDbEntity
  8
PALLETS
100
AcDbCircle
 10
0.0
 20
0.0
 30
0.0
 40
2.0
  0
TEXT
  5
44
330
3C
100
AcDbEntity
  8
TEXT
100
AcDbText
 10
0.0
 20
0.0
 30
0.0
 40
1.5
  1
PALLET
 72
1
 11
0.0
 21
0.0
 31
0.0
100
AcDbText
 73
2
  0
ENDBLK
  5
3E
330
3C
100
AcDbEntity
  8
0
100
AcDbBlockEnd
  0
BLOCK
  5
46
330
45
100
AcDbEntity
  8
0
100
AcDbBlockBegin
  2
ROBOT_CELL
 70
0
 10
0.0
 20
0.0
 30
0.0
  3
ROBOT_CELL
  1

  0
LWPOLYLINE
  5
48
330
45
100
AcDbEntity
  8
SAFETY_FENCING
  6
DASHED
100
AcDbPolyline
 90
5
 70
0
 10
-16.0
 20
-16.0
 10
16.0
 20
-16.0
 10
16.0
 20
16.0
 10
-16.0
 20
16.0
 10
-16.0
 20
-16.0
  0
CIRCLE
  5
49
330
45
100
AcDbEntity
  8
ROBOT_CELLS
100
AcDbCircle
 10
0.0
 20
0.0
 30
0.0
 40
5.0
  0
LINE
  5
4A
330
45
100
AcDbEntity
  8
ROBOT_CELLS
100
AcDbLine
 10
0.0
 20
0.0
 30
0.0
 11
9.0
 21
9.0
 31
0.0
  0
CIRCLE
  5
4B
330
45
100
AcDbEntity
  8
ROBOT_CELLS
100
AcDbCircle
 10
9.0
 20
9.0
 30
0.0
 40
2.0
  0
TEXT
  5
4C
330
45
100
AcDbEntity
  8
TEXT
100
AcDbText
 10
0.0
 20
-12.0
 30
0.0
 40
2.0
  1
6-AXIS ROBOT
 72
1
 11
0.0
 21
-12.0
 31
0.0
100
AcDbText
 73
2
  0
ENDBLK
  5
47
330
45
100
AcDbEntity
  8
0
100
AcDbBlockEnd
  0
BLOCK
  5
4E
330
4D
100
AcDbEntity
  8
0
100
AcDbBlockBegin
  2
DISPENSING_CELL
 70
0
 10
0.0
 20
0.0
 30
0.0
  3
DISPENSING_CELL
  1

  0
LWPOLYLINE
  5
50
330
4D
100
AcDbEntity
  8
STATIONS
100
AcDbPolyline
 90
5
 70
0
 10
-14.0
 20
-12.0
 10
14.0
 20
-12.0
 10
14.0
 20
12.0
 10
-14.0
 20
12.0
 10
-14.0
 20
-12.0
  0
CIRCLE
  5
51
330
4D
100
AcDbEntity
  8
STATIONS
100
AcDbCircle
 10
0.0
 20
0.0
 30
0.0
 40
4.0
  0
LINE
  5
52
330
4D
100
AcDbEntity
  8
STATIONS
100
AcDbLine
 10
-10.0
 20
0.0
 30
0.0
 11
10.0
 21
0.0
 31
0.0
  0
LINE
  5
53
330
4D
100
AcDbEntity
  8
STATIONS
100
AcDbLine
 10
0.0
 20
-8.0
 30
0.0
 11
0.0
 21
8.0
 31
0.0
  0
TEXT
  5
54
330
4D
100
AcDbEntity
  8
TEXT
100
AcDbText
 10
0.0
 20
-10.0
 30
0.0
 40
1.8
  1
2K DISPENSER
 72
1
 11
0.0
 21
-10.0
 31
0.0
100
AcDbText
 73
2
  0
ENDBLK
  5
4F
330
4D
100
AcDbEntity
  8
0
100
AcDbBlockEnd
  0
BLOCK
  5
56
330
55
100
AcDbEntity
  8
0
100
AcDbBlockBegin
  2
FASTENING_STATION
 70
0
 10
0.0
 20
0.0
 30
0.0
  3
FASTENING_STATION
  1

  0
LWPOLYLINE
  5
58
330
55
100
AcDbEntity
  8
STATIONS
100
AcDbPolyline
 90
5
 70
0
 10
-12.0
 20
-10.0
 10
12.0
 20
-10.0
 10
12.0
 20
10.0
 10
-12.0
 20
10.0
 10
-12.0
 20
-10.0
  0
CIRCLE
  5
59
330
55
100
AcDbEntity
  8
STATIONS
100
AcDbCircle
 10
-5.0
 20
-4.0
 30
0.0
 40
1.5
  0
CIRCLE
  5
5A
330
55
100
AcDbEntity
  8
STATIONS
100
AcDbCircle
 10
-5.0
 20
4.0
 30
0.0
 40
1.5
  0
CIRCLE
  5
5B
330
55
100
AcDbEntity
  8
STATIONS
100
AcDbCircle
 10
5.0
 20
-4.0
 30
0.0
 40
1.5
  0
CIRCLE
  5
5C
330
55
100
AcDbEntity
  8
STATIONS
100
AcDbCircle
 10
5.0
 20
4.0
 30
0.0
 40
1.5
  0
TEXT
  5
5D
330
55
100
AcDbEntity
  8
TEXT
100
AcDbText
 10
0.0
 20
-8.0
 30
0.0
 40
1.8
  1
TORQUE FASTEN
 72
1
 11
0.0
 21
-8.0
 31
0.0
100
AcDbText
 73
2
  0
ENDBLK
  5
57
330
55
100
AcDbEntity
  8
0
100
AcDbBlockEnd
  0
BLOCK
  5
5F
330
5E
100
AcDbEntity
  8
0
100
AcDbBlockBegin
  2
LASER_WELD_CELL
 70
0
 10
0.0
 20
0.0
 30
0.0
  3
LASER_WELD_CELL
  1

  0
LWPOLYLINE
  5
61
330
5E
100
AcDbEntity
  8
SAFETY_FENCING
100
AcDbPolyline
 90
5
 70
0
 10
-16.0
 20
-14.0
 10
16.0
 20
-14.0
 10
16.0
 20
14.0
 10
-16.0
 20
14.0
 10
-16.0
 20
-14.0
  0
LINE
  5
62
330
5E
100
AcDbEntity
  8
STATIONS
100
AcDbLine
 10
-10.0
 20
-8.0
 30
0.0
 11
10.0
 21
8.0
 31
0.0
  0
LINE
  5
63
330
5E
100
AcDbEntity
  8
STATIONS
100
AcDbLine
 10
-10.0
 20
8.0
 30
0.0
 11
10.0
 21
-8.0
 31
0.0
  0
CIRCLE
  5
64
330
5E
100
AcDbEntity
  8
STATIONS
100
AcDbCircle
 10
0.0
 20
0.0
 30
0.0
 40
3.0
  0
TEXT
  5
65
330
5E
100
AcDbEntity
  8
TEXT
100
AcDbText
 10
0.0
 20
-11.0
 30
0.0
 40
1.8
  1
LASER WELD
 72
1
 11
0.0
 21
-11.0
 31
0.0
100
AcDbText
 73
2
  0
ENDBLK
  5
60
330
5E
100
AcDbEntity
  8
0
100
AcDbBlockEnd
  0
BLOCK
  5
67
330
66
100
AcDbEntity
  8
0
100
AcDbBlockBegin
  2
SERVO_PRESS
 70
0
 10
0.0
 20
0.0
 30
0.0
  3
SERVO_PRESS
  1

  0
LWPOLYLINE
  5
69
330
66
100
AcDbEntity
  8
STATIONS
100
AcDbPolyline
 90
5
 70
0
 10
-12.0
 20
-12.0
 10
12.0
 20
-12.0
 10
12.0
 20
12.0
 10
-12.0
 20
12.0
 10
-12.0
 20
-12.0
  0
CIRCLE
  5
6A
330
66
100
AcDbEntity
  8
STATIONS
100
AcDbCircle
 10
0.0
 20
0.0
 30
0.0
 40
6.0
  0
TEXT
  5
6B
330
66
100
AcDbEntity
  8
TEXT
100
AcDbText
 10
0.0
 20
-9.0
 30
0.0
 40
1.8
  1
SERVO PRESS
 72
1
 11
0.0
 21
-9.0
 31
0.0
100
AcDbText
 73
2
  0
ENDBLK
  5
68
330
66
100
AcDbEntity
  8
0
100
AcDbBlockEnd
  0
BLOCK
  5
6D
330
6C
100
AcDbEntity
  8
0
100
AcDbBlockBegin
  2
VISION_INSPECTION
 70
0
 10
0.0
 20
0.0
 30
0.0
  3
VISION_INSPECTION
  1

  0
LWPOLYLINE
  5
6F
330
6C
100
AcDbEntity
  8
STATIONS
100
AcDbPolyline
 90
5
 70
0
 10
-14.0
 20
-10.0
 10
14.0
 20
-10.0
 10
14.0
 20
10.0
 10
-14.0
 20
10.0
 10
-14.0
 20
-10.0
  0
CIRCLE
  5
70
330
6C
100
AcDbEntity
  8
STATIONS
100
AcDbCircle
 10
0.0
 20
0.0
 30
0.0
 40
3.0
  0
CIRCLE
  5
71
330
6C
100
AcDbEntity
  8
STATIONS
  6
DASHED
100
AcDbCircle
 10
0.0
 20
0.0
 30
0.0
 40
6.0
  0
TEXT
  5
72
330
6C
100
AcDbEntity
  8
TEXT
100
AcDbText
 10
0.0
 20
-8.0
 30
0.0
 40
1.8
  1
3D VISION AOI
 72
1
 11
0.0
 21
-8.0
 31
0.0
100
AcDbText
 73
2
  0
ENDBLK
  5
6E
330
6C
100
AcDbEntity
  8
0
100
AcDbBlockEnd
  0
BLOCK
  5
74
330
73
100
AcDbEntity
  8
0
100
AcDbBlockBegin
  2
EOL_TEST_BENCH
 70
0
 10
0.0
 20
0.0
 30
0.0
  3
EOL_TEST_BENCH
  1

  0
LWPOLYLINE
  5
76
330
73
100
AcDbEntity
  8
STATIONS
100
AcDbPolyline
 90
5
 70
0
 10
-15.0
 20
-12.0
 10
15.0
 20
-12.0
 10
15.0
 20
12.0
 10
-15.0
 20
12.0
 10
-15.0
 20
-12.0
  0
LWPOLYLINE
  5
77
330
73
100
AcDbEntity
  8
STATIONS
100
AcDbPolyline
 90
5
 70
0
 10
-8.0
 20
-6.0
 10
8.0
 20
-6.0
 10
8.0
 20
6.0
 10
-8.0
 20
6.0
 10
-8.0
 20
-6.0
  0
TEXT
  5
78
330
73
100
AcDbEntity
  8
TEXT
100
AcDbText
 10
0.0
 20
-9.0
 30
0.0
 40
1.8
  1
EOL TEST BENCH
 72
1
 11
0.0
 21
-9.0
 31
0.0
100
AcDbText
 73
2
  0
ENDBLK
  5
75
330
73
100
AcDbEntity
  8
0
100
AcDbBlockEnd
  0
BLOCK
  5
7A
330
79
100
AcDbEntity
  8
0
100
AcDbBlockBegin
  2
WAREHOUSE_RACK
 70
0
 10
0.0
 20
0.0
 30
0.0
  3
WAREHOUSE_RACK
  1

  0
LWPOLYLINE
  5
7C
330
79
100
AcDbEntity
  8
STORAGE
100
AcDbPolyline
 90
5
 70
0
 10
-30.0
 20
-12.0
 10
30.0
 20
-12.0
 10
30.0
 20
12.0
 10
-30.0
 20
12.0
 10
-30.0
 20
-12.0
  0
LINE
  5
7D
330
79
100
AcDbEntity
  8
STORAGE
100
AcDbLine
 10
-20.0
 20
-12.0
 30
0.0
 11
-20.0
 21
12.0
 31
0.0
  0
LINE
  5
7E
330
79
100
AcDbEntity
  8
STORAGE
100
AcDbLine
 10
-10.0
 20
-12.0
 30
0.0
 11
-10.0
 21
12.0
 31
0.0
  0
LINE
  5
7F
330
79
100
AcDbEntity
  8
STORAGE
100
AcDbLine
 10
0.0
 20
-12.0
 30
0.0
 11
0.0
 21
12.0
 31
0.0
  0
LINE
  5
80
330
79
100
AcDbEntity
  8
STORAGE
100
AcDbLine
 10
10.0
 20
-12.0
 30
0.0
 11
10.0
 21
12.0
 31
0.0
  0
LINE
  5
81
330
79
100
AcDbEntity
  8
STORAGE
100
AcDbLine
 10
20.0
 20
-12.0
 30
0.0
 11
20.0
 21
12.0
 31
0.0
  0
TEXT
  5
82
330
79
100
AcDbEntity
  8
TEXT
100
AcDbText
 10
0.0
 20
0.0
 30
0.0
 40
2.0
  1
STORAGE RACK
 72
1
 11
0.0
 21
0.0
 31
0.0
100
AcDbText
 73
2
  0
ENDBLK
  5
7B
330
79
100
AcDbEntity
  8
0
100
AcDbBlockEnd
  0
ENDSEC
  0
SECTION
  2
ENTITIES
  0
LWPOLYLINE
  5
37
330
17
100
AcDbEntity
  8
WALLS
100
AcDbPolyline
 90
5
 70
0
 10
0.0
 20
0.0
 10
2400.0
 20
0.0
 10
2400.0
 20
1700.0
 10
0.0
 20
1700.0
 10
0.0
 20
0.0
  0
LWPOLYLINE
  5
38
330
17
100
AcDbEntity
  8
WALLS
100
AcDbPolyline
 90
2
 70
0
 10
1350.0
 20
0.0
 10
1350.0
 20
1700.0
  0
TEXT
  5
39
330
17
100
AcDbEntity
  8
TEXT
100
AcDbText
 10
1200.0
 20
1660.0
 30
0.0
 40
24.0
  1
HEIMDALL AUTOMATED SMART FACTORY – GIGA-01
 72
1
 11
1200.0
 21
1660.0
 31
0.0
100
AcDbText
 73
2
  0
TEXT
  5
3A
330
17
100
AcDbEntity
  8
TEXT
100
AcDbText
 10
650.0
 20
1620.0
 30
0.0
 40
16.0
  1
AUTOMATED PRODUCTION CORRIDOR (LINES 01 - 08)
 72
1
 11
650.0
 21
1620.0
 31
0.0
100
AcDbText
 73
2
  0
TEXT
  5
3B
330
17
100
AcDbEntity
  8
TEXT
100
AcDbText
 10
1875.0
 20
1620.0
 30
0.0
 40
16.0
  1
HIGH-BAY LOGISTICS & SPARE PARTS WAREHOUSE (550 SERIALIZED SLOTS)
 72
1
 11
1875.0
 21
1620.0
 31
0.0
100
AcDbText
 73
2
  0
TEXT
  5
83
330
17
100
AcDbEntity
  8
TEXT
100
AcDbText
 10
60.0
 20
1530.0
 30
0.0
 40
10.0
  1
LINE 01 – SYNTHETIC AUDI E-TRON MODULE LINE (AI SIM)
 11
60.0
 21
1530.0
 31
0.0
100
AcDbText
  0
LINE
  5
84
330
17
100
AcDbEntity
  8
CONVEYORS
100
AcDbLine
 10
80.0
 20
1490.0
 30
0.0
 11
1240.0
 21
1490.0
 31
0.0
  0
LINE
  5
85
330
17
100
AcDbEntity
  8
CONVEYORS
100
AcDbLine
 10
80.0
 20
1450.0
 30
0.0
 11
1240.0
 21
1450.0
 31
0.0
  0
ARC
  5
86
330
17
100
AcDbEntity
  8
CONVEYORS
100
AcDbCircle
 10
80.0
 20
1470.0
 30
0.0
 40
20.0
100
AcDbArc
 50
90.0
 51
270.0
  0
ARC
  5
87
330
17
100
AcDbEntity
  8
CONVEYORS
100
AcDbCircle
 10
1240.0
 20
1470.0
 30
0.0
 40
20.0
100
AcDbArc
 50
270.0
 51
90.0
  0
LINE
  5
88
330
17
100
AcDbEntity
  8
CONVEYORS
100
AcDbLine
 10
300.0
 20
1490.0
 30
0.0
 11
315.0
 21
1490.0
 31
0.0
  0
LINE
  5
89
330
17
100
AcDbEntity
  8
CONVEYORS
100
AcDbLine
 10
315.0
 20
1490.0
 30
0.0
 11
310.0
 21
1494.0
 31
0.0
  0
LINE
  5
8A
330
17
100
AcDbEntity
  8
CONVEYORS
100
AcDbLine
 10
315.0
 20
1490.0
 30
0.0
 11
310.0
 21
1486.0
 31
0.0
  0
LINE
  5
8B
330
17
100
AcDbEntity
  8
CONVEYORS
100
AcDbLine
 10
600.0
 20
1490.0
 30
0.0
 11
615.0
 21
1490.0
 31
0.0
  0
LINE
  5
8C
330
17
100
AcDbEntity
  8
CONVEYORS
100
AcDbLine
 10
615.0
 20
1490.0
 30
0.0
 11
610.0
 21
1494.0
 31
0.0
  0
LINE
  5
8D
330
17
100
AcDbEntity
  8
CONVEYORS
100
AcDbLine
 10
615.0
 20
1490.0
 30
0.0
 11
610.0
 21
1486.0
 31
0.0
  0
LINE
  5
8E
330
17
100
AcDbEntity
  8
CONVEYORS
100
AcDbLine
 10
900.0
 20
1490.0
 30
0.0
 11
915.0
 21
1490.0
 31
0.0
  0
LINE
  5
8F
330
17
100
AcDbEntity
  8
CONVEYORS
100
AcDbLine
 10
915.0
 20
1490.0
 30
0.0
 11
910.0
 21
1494.0
 31
0.0
  0
LINE
  5
90
330
17
100
AcDbEntity
  8
CONVEYORS
100
AcDbLine
 10
915.0
 20
1490.0
 30
0.0
 11
910.0
 21
1486.0
 31
0.0
  0
INSERT
  5
L01-OP010
330
17
100
AcDbEntity
  8
0
100
AcDbBlockReference
  2
CONVEYOR_BED
 10
120.0
 20
1490.0
 30
0.0
  0
TEXT
  5
93
330
17
100
AcDbEntity
  8
TEXT
100
AcDbText
 10
120.0
 20
1506.0
 30
0.0
 40
4.0
  1
L01-OP010
 72
1
 11
120.0
 21
1506.0
 31
0.0
100
AcDbText
 73
2
  0
INSERT
  5
L01-OP020
330
17
100
AcDbEntity
  8
0
100
AcDbBlockReference
  2
CONVEYOR_BED
 10
218.1818181818182
 20
1450.0
 30
0.0
  0
TEXT
  5
96
330
17
100
AcDbEntity
  8
TEXT
100
AcDbText
 10
218.1818181818182
 20
1432.0
 30
0.0
 40
4.0
  1
L01-OP020
 72
1
 11
218.1818181818182
 21
1432.0
 31
0.0
100
AcDbText
 73
2
  0
INSERT
  5
L01-OP030
330
17
100
AcDbEntity
  8
0
100
AcDbBlockReference
  2
DISPENSING_CELL
 10
316.3636363636364
 20
1490.0
 30
0.0
  0
TEXT
  5
99
330
17
100
AcDbEntity
  8
TEXT
100
AcDbText
 10
316.3636363636364
 20
1506.0
 30
0.0
 40
4.0
  1
L01-OP030
 72
1
 11
316.3636363636364
 21
1506.0
 31
0.0
100
AcDbText
 73
2
  0
INSERT
  5
L01-OP040
330
17
100
AcDbEntity
  8
0
100
AcDbBlockReference
  2
ROBOT_CELL
 10
414.54545454545456
 20
1450.0
 30
0.0
  0
TEXT
  5
9C
330
17
100
AcDbEntity
  8
TEXT
100
AcDbText
 10
414.54545454545456
 20
1432.0
 30
0.0
 40
4.0
  1
L01-OP040
 72
1
 11
414.54545454545456
 21
1432.0
 31
0.0
100
AcDbText
 73
2
  0
INSERT
  5
L01-OP050
330
17
100
AcDbEntity
  8
0
100
AcDbBlockReference
  2
FASTENING_STATION
 10
512.7272727272727
 20
1490.0
 30
0.0
  0
TEXT
  5
9F
330
17
100
AcDbEntity
  8
TEXT
100
AcDbText
 10
512.7272727272727
 20
1506.0
 30
0.0
 40
4.0
  1
L01-OP050
 72
1
 11
512.7272727272727
 21
1506.0
 31
0.0
100
AcDbText
 73
2
  0
INSERT
  5
L01-OP060
330
17
100
AcDbEntity
  8
0
100
AcDbBlockReference
  2
LASER_WELD_CELL
 10
610.909090909091
 20
1450.0
 30
0.0
  0
TEXT
  5
A2
330
17
100
AcDbEntity
  8
TEXT
100
AcDbText
 10
610.909090909091
 20
1432.0
 30
0.0
 40
4.0
  1
L01-OP060
 72
1
 11
610.909090909091
 21
1432.0
 31
0.0
100
AcDbText
 73
2
  0
INSERT
  5
L01-OP070
330
17
100
AcDbEntity
  8
0
100
AcDbBlockReference
  2
EOL_TEST_BENCH
 10
709.0909090909091
 20
1490.0
 30
0.0
  0
TEXT
  5
A5
330
17
100
AcDbEntity
  8
TEXT
100
AcDbText
 10
709.0909090909091
 20
1506.0
 30
0.0
 40
4.0
  1
L01-OP070
 72
1
 11
709.0909090909091
 21
1506.0
 31
0.0
100
AcDbText
 73
2
  0
INSERT
  5
L01-OP080
330
17
100
AcDbEntity
  8
0
100
AcDbBlockReference
  2
ROBOT_CELL
 10
807.2727272727273
 20
1450.0
 30
0.0
  0
TEXT
  5
A8
330
17
100
AcDbEntity
  8
TEXT
100
AcDbText
 10
807.2727272727273
 20
1432.0
 30
0.0
 40
4.0
  1
L01-OP080
 72
1
 11
807.2727272727273
 21
1432.0
 31
0.0
100
AcDbText
 73
2
  0
INSERT
  5
L01-OP090
330
17
100
AcDbEntity
  8
0
100
AcDbBlockReference
  2
VISION_INSPECTION
 10
905.4545454545455
 20
1490.0
 30
0.0
  0
TEXT
  5
AB
330
17
100
AcDbEntity
  8
TEXT
100
AcDbText
 10
905.4545454545455
 20
1506.0
 30
0.0
 40
4.0
  1
L01-OP090
 72
1
 11
905.4545454545455
 21
1506.0
 31
0.0
100
AcDbText
 73
2
  0
INSERT
  5
L01-OP100
330
17
100
AcDbEntity
  8
0
100
AcDbBlockReference
  2
FASTENING_STATION
 10
1003.6363636363637
 20
1450.0
 30
0.0
  0
TEXT
  5
AE
330
17
100
AcDbEntity
  8
TEXT
100
AcDbText
 10
1003.6363636363637
 20
1432.0
 30
0.0
 40
4.0
  1
L01-OP100
 72
1
 11
1003.6363636363637
 21
1432.0
 31
0.0
100
AcDbText
 73
2
  0
INSERT
  5
L01-OP110
330
17
100
AcDbEntity
  8
0
100
AcDbBlockReference
  2
CONVEYOR_BED
 10
1101.818181818182
 20
1490.0
 30
0.0
  0
TEXT
  5
B1
330
17
100
AcDbEntity
  8
TEXT
100
AcDbText
 10
1101.818181818182
 20
1506.0
 30
0.0
 40
4.0
  1
L01-OP110
 72
1
 11
1101.818181818182
 21
1506.0
 31
0.0
100
AcDbText
 73
2
  0
INSERT
  5
L01-OP120
330
17
100
AcDbEntity
  8
0
100
AcDbBlockReference
  2
CONVEYOR_BED
 10
1200.0
 20
1450.0
 30
0.0
  0
TEXT
  5
B4
330
17
100
AcDbEntity
  8
TEXT
100
AcDbText
 10
1200.0
 20
1432.0
 30
0.0
 40
4.0
  1
L01-OP120
 72
1
 11
1200.0
 21
1432.0
 31
0.0
100
AcDbText
 73
2
  0
TEXT
  5
B5
330
17
100
AcDbEntity
  8
TEXT
100
AcDbText
 10
60.0
 20
1340.0
 30
0.0
 40
10.0
  1
LINE 02 – SYNTHETIC AUDI BATTERY PACK LINE (AI SIM)
 11
60.0
 21
1340.0
 31
0.0
100
AcDbText
  0
LINE
  5
B6
330
17
100
AcDbEntity
  8
CONVEYORS
100
AcDbLine
 10
80.0
 20
1300.0
 30
0.0
 11
1240.0
 21
1300.0
 31
0.0
  0
LINE
  5
B7
330
17
100
AcDbEntity
  8
CONVEYORS
100
AcDbLine
 10
80.0
 20
1260.0
 30
0.0
 11
1240.0
 21
1260.0
 31
0.0
  0
ARC
  5
B8
330
17
100
AcDbEntity
  8
CONVEYORS
100
AcDbCircle
 10
80.0
 20
1280.0
 30
0.0
 40
20.0
100
AcDbArc
 50
90.0
 51
270.0
  0
ARC
  5
B9
330
17
100
AcDbEntity
  8
CONVEYORS
100
AcDbCircle
 10
1240.0
 20
1280.0
 30
0.0
 40
20.0
100
AcDbArc
 50
270.0
 51
90.0
  0
LINE
  5
BA
330
17
100
AcDbEntity
  8
CONVEYORS
100
AcDbLine
 10
300.0
 20
1300.0
 30
0.0
 11
315.0
 21
1300.0
 31
0.0
  0
LINE
  5
BB
330
17
100
AcDbEntity
  8
CONVEYORS
100
AcDbLine
 10
315.0
 20
1300.0
 30
0.0
 11
310.0
 21
1304.0
 31
0.0
  0
LINE
  5
BC
330
17
100
AcDbEntity
  8
CONVEYORS
100
AcDbLine
 10
315.0
 20
1300.0
 30
0.0
 11
310.0
 21
1296.0
 31
0.0
  0
LINE
  5
BD
330
17
100
AcDbEntity
  8
CONVEYORS
100
AcDbLine
 10
600.0
 20
1300.0
 30
0.0
 11
615.0
 21
1300.0
 31
0.0
  0
LINE
  5
BE
330
17
100
AcDbEntity
  8
CONVEYORS
100
AcDbLine
 10
615.0
 20
1300.0
 30
0.0
 11
610.0
 21
1304.0
 31
0.0
  0
LINE
  5
BF
330
17
100
AcDbEntity
  8
CONVEYORS
100
AcDbLine
 10
615.0
 20
1300.0
 30
0.0
 11
610.0
 21
1296.0
 31
0.0
  0
LINE
  5
C0
330
17
100
AcDbEntity
  8
CONVEYORS
100
AcDbLine
 10
900.0
 20
1300.0
 30
0.0
 11
915.0
 21
1300.0
 31
0.0
  0
LINE
  5
C1
330
17
100
AcDbEntity
  8
CONVEYORS
100
AcDbLine
 10
915.0
 20
1300.0
 30
0.0
 11
910.0
 21
1304.0
 31
0.0
  0
LINE
  5
C2
330
17
100
AcDbEntity
  8
CONVEYORS
100
AcDbLine
 10
915.0
 20
1300.0
 30
0.0
 11
910.0
 21
1296.0
 31
0.0
  0
INSERT
  5
L02-OP010
330
17
100
AcDbEntity
  8
0
100
AcDbBlockReference
  2
CONVEYOR_BED
 10
120.0
 20
1300.0
 30
0.0
  0
TEXT
  5
C5
330
17
100
AcDbEntity
  8
TEXT
100
AcDbText
 10
120.0
 20
1316.0
 30
0.0
 40
4.0
  1
L02-OP010
 72
1
 11
120.0
 21
1316.0
 31
0.0
100
AcDbText
 73
2
  0
INSERT
  5
L02-OP020
330
17
100
AcDbEntity
  8
0
100
AcDbBlockReference
  2
DISPENSING_CELL
 10
210.0
 20
1260.0
 30
0.0
  0
TEXT
  5
C8
330
17
100
AcDbEntity
  8
TEXT
100
AcDbText
 10
210.0
 20
1242.0
 30
0.0
 40
4.0
  1
L02-OP020
 72
1
 11
210.0
 21
1242.0
 31
0.0
100
AcDbText
 73
2
  0
INSERT
  5
L02-OP030
330
17
100
AcDbEntity
  8
0
100
AcDbBlockReference
  2
ROBOT_CELL
 10
300.0
 20
1300.0
 30
0.0
  0
TEXT
  5
CB
330
17
100
AcDbEntity
  8
TEXT
100
AcDbText
 10
300.0
 20
1316.0
 30
0.0
 40
4.0
  1
L02-OP030
 72
1
 11
300.0
 21
1316.0
 31
0.0
100
AcDbText
 73
2
  0
INSERT
  5
L02-OP040
330
17
100
AcDbEntity
  8
0
100
AcDbBlockReference
  2
ROBOT_CELL
 10
390.0
 20
1260.0
 30
0.0
  0
TEXT
  5
CE
330
17
100
AcDbEntity
  8
TEXT
100
AcDbText
 10
390.0
 20
1242.0
 30
0.0
 40
4.0
  1
L02-OP040
 72
1
 11
390.0
 21
1242.0
 31
0.0
100
AcDbText
 73
2
  0
INSERT
  5
L02-OP050
330
17
100
AcDbEntity
  8
0
100
AcDbBlockReference
  2
FASTENING_STATION
 10
480.0
 20
1300.0
 30
0.0
  0
TEXT
  5
D1
330
17
100
AcDbEntity
  8
TEXT
100
AcDbText
 10
480.0
 20
1316.0
 30
0.0
 40
4.0
  1
L02-OP050
 72
1
 11
480.0
 21
1316.0
 31
0.0
100
AcDbText
 73
2
  0
INSERT
  5
L02-OP060
330
17
100
AcDbEntity
  8
0
100
AcDbBlockReference
  2
LASER_WELD_CELL
 10
570.0
 20
1260.0
 30
0.0
  0
TEXT
  5
D4
330
17
100
AcDbEntity
  8
TEXT
100
AcDbText
 10
570.0
 20
1242.0
 30
0.0
 40
4.0
  1
L02-OP060
 72
1
 11
570.0
 21
1242.0
 31
0.0
100
AcDbText
 73
2
  0
INSERT
  5
L02-OP070
330
17
100
AcDbEntity
  8
0
100
AcDbBlockReference
  2
VISION_INSPECTION
 10
660.0
 20
1300.0
 30
0.0
  0
TEXT
  5
D7
330
17
100
AcDbEntity
  8
TEXT
100
AcDbText
 10
660.0
 20
1316.0
 30
0.0
 40
4.0
  1
L02-OP070
 72
1
 11
660.0
 21
1316.0
 31
0.0
100
AcDbText
 73
2
  0
INSERT
  5
L02-OP080
330
17
100
AcDbEntity
  8
0
100
AcDbBlockReference
  2
EOL_TEST_BENCH
 10
750.0
 20
1260.0
 30
0.0
  0
TEXT
  5
DA
330
17
100
AcDbEntity
  8
TEXT
100
AcDbText
 10
750.0
 20
1242.0
 30
0.0
 40
4.0
  1
L02-OP080
 72
1
 11
750.0
 21
1242.0
 31
0.0
100
AcDbText
 73
2
  0
INSERT
  5
L02-OP090
330
17
100
AcDbEntity
  8
0
100
AcDbBlockReference
  2
SERVO_PRESS
 10
840.0
 20
1300.0
 30
0.0
  0
TEXT
  5
DD
330
17
100
AcDbEntity
  8
TEXT
100
AcDbText
 10
840.0
 20
1316.0
 30
0.0
 40
4.0
  1
L02-OP090
 72
1
 11
840.0
 21
1316.0
 31
0.0
100
AcDbText
 73
2
  0
INSERT
  5
L02-OP100
330
17
100
AcDbEntity
  8
0
100
AcDbBlockReference
  2
FASTENING_STATION
 10
930.0
 20
1260.0
 30
0.0
  0
TEXT
  5
E0
330
17
100
AcDbEntity
  8
TEXT
100
AcDbText
 10
930.0
 20
1242.0
 30
0.0
 40
4.0
  1
L02-OP100
 72
1
 11
930.0
 21
1242.0
 31
0.0
100
AcDbText
 73
2
  0
INSERT
  5
L02-OP110
330
17
100
AcDbEntity
  8
0
100
AcDbBlockReference
  2
VISION_INSPECTION
 10
1020.0
 20
1300.0
 30
0.0
  0
TEXT
  5
E3
330
17
100
AcDbEntity
  8
TEXT
100
AcDbText
 10
1020.0
 20
1316.0
 30
0.0
 40
4.0
  1
L02-OP110
 72
1
 11
1020.0
 21
1316.0
 31
0.0
100
AcDbText
 73
2
  0
INSERT
  5
L02-OP120
330
17
100
AcDbEntity
  8
0
100
AcDbBlockReference
  2
CONVEYOR_BED
 10
1110.0
 20
1260.0
 30
0.0
  0
TEXT
  5
E6
330
17
100
AcDbEntity
  8
TEXT
100
AcDbText
 10
1110.0
 20
1242.0
 30
0.0
 40
4.0
  1
L02-OP120
 72
1
 11
1110.0
 21
1242.0
 31
0.0
100
AcDbText
 73
2
  0
INSERT
  5
L02-OP130
330
17
100
AcDbEntity
  8
0
100
AcDbBlockReference
  2
CONVEYOR_BED
 10
1200.0
 20
1300.0
 30
0.0
  0
TEXT
  5
E9
330
17
100
AcDbEntity
  8
TEXT
100
AcDbText
 10
1200.0
 20
1316.0
 30
0.0
 40
4.0
  1
L02-OP130
 72
1
 11
1200.0
 21
1316.0
 31
0.0
100
AcDbText
 73
2
  0
TEXT
  5
EA
330
17
100
AcDbEntity
  8
TEXT
100
AcDbText
 10
60.0
 20
1150.0
 30
0.0
 40
10.0
  1
LINE 03 – SYNTHETIC AUDI POWERTRAIN LINE (AI SIM)
 11
60.0
 21
1150.0
 31
0.0
100
AcDbText
  0
LINE
  5
EB
330
17
100
AcDbEntity
  8
CONVEYORS
100
AcDbLine
 10
80.0
 20
1110.0
 30
0.0
 11
1240.0
 21
1110.0
 31
0.0
  0
LINE
  5
EC
330
17
100
AcDbEntity
  8
CONVEYORS
100
AcDbLine
 10
80.0
 20
1070.0
 30
0.0
 11
1240.0
 21
1070.0
 31
0.0
  0
ARC
  5
ED
330
17
100
AcDbEntity
  8
CONVEYORS
100
AcDbCircle
 10
80.0
 20
1090.0
 30
0.0
 40
20.0
100
AcDbArc
 50
90.0
 51
270.0
  0
ARC
  5
EE
330
17
100
AcDbEntity
  8
CONVEYORS
100
AcDbCircle
 10
1240.0
 20
1090.0
 30
0.0
 40
20.0
100
AcDbArc
 50
270.0
 51
90.0
  0
LINE
  5
EF
330
17
100
AcDbEntity
  8
CONVEYORS
100
AcDbLine
 10
300.0
 20
1110.0
 30
0.0
 11
315.0
 21
1110.0
 31
0.0
  0
LINE
  5
F0
330
17
100
AcDbEntity
  8
CONVEYORS
100
AcDbLine
 10
315.0
 20
1110.0
 30
0.0
 11
310.0
 21
1114.0
 31
0.0
  0
LINE
  5
F1
330
17
100
AcDbEntity
  8
CONVEYORS
100
AcDbLine
 10
315.0
 20
1110.0
 30
0.0
 11
310.0
 21
1106.0
 31
0.0
  0
LINE
  5
F2
330
17
100
AcDbEntity
  8
CONVEYORS
100
AcDbLine
 10
600.0
 20
1110.0
 30
0.0
 11
615.0
 21
1110.0
 31
0.0
  0
LINE
  5
F3
330
17
100
AcDbEntity
  8
CONVEYORS
100
AcDbLine
 10
615.0
 20
1110.0
 30
0.0
 11
610.0
 21
1114.0
 31
0.0
  0
LINE
  5
F4
330
17
100
AcDbEntity
  8
CONVEYORS
100
AcDbLine
 10
615.0
 20
1110.0
 30
0.0
 11
610.0
 21
1106.0
 31
0.0
  0
LINE
  5
F5
330
17
100
AcDbEntity
  8
CONVEYORS
100
AcDbLine
 10
900.0
 20
1110.0
 30
0.0
 11
915.0
 21
1110.0
 31
0.0
  0
LINE
  5
F6
330
17
100
AcDbEntity
  8
CONVEYORS
100
AcDbLine
 10
915.0
 20
1110.0
 30
0.0
 11
910.0
 21
1114.0
 31
0.0
  0
LINE
  5
F7
330
17
100
AcDbEntity
  8
CONVEYORS
100
AcDbLine
 10
915.0
 20
1110.0
 30
0.0
 11
910.0
 21
1106.0
 31
0.0
  0
INSERT
  5
L03-OP010
330
17
100
AcDbEntity
  8
0
100
AcDbBlockReference
  2
CONVEYOR_BED
 10
120.0
 20
1110.0
 30
0.0
  0
TEXT
  5
FA
330
17
100
AcDbEntity
  8
TEXT
100
AcDbText
 10
120.0
 20
1126.0
 30
0.0
 40
4.0
  1
L03-OP010
 72
1
 11
120.0
 21
1126.0
 31
0.0
100
AcDbText
 73
2
  0
INSERT
  5
L03-OP020
330
17
100
AcDbEntity
  8
0
100
AcDbBlockReference
  2
SERVO_PRESS
 10
218.1818181818182
 20
1070.0
 30
0.0
  0
TEXT
  5
FD
330
17
100
AcDbEntity
  8
TEXT
100
AcDbText
 10
218.1818181818182
 20
1052.0
 30
0.0
 40
4.0
  1
L03-OP020
 72
1
 11
218.1818181818182
 21
1052.0
 31
0.0
100
AcDbText
 73
2
  0
INSERT
  5
L03-OP030
330
17
100
AcDbEntity
  8
0
100
AcDbBlockReference
  2
ROBOT_CELL
 10
316.3636363636364
 20
1110.0
 30
0.0
  0
TEXT
  5
100
330
17
100
AcDbEntity
  8
TEXT
100
AcDbText
 10
316.3636363636364
 20
1126.0
 30
0.0
 40
4.0
  1
L03-OP030
 72
1
 11
316.3636363636364
 21
1126.0
 31
0.0
100
AcDbText
 73
2
  0
INSERT
  5
L03-OP040
330
17
100
AcDbEntity
  8
0
100
AcDbBlockReference
  2
FASTENING_STATION
 10
414.54545454545456
 20
1070.0
 30
0.0
  0
TEXT
  5
103
330
17
100
AcDbEntity
  8
TEXT
100
AcDbText
 10
414.54545454545456
 20
1052.0
 30
0.0
 40
4.0
  1
L03-OP040
 72
1
 11
414.54545454545456
 21
1052.0
 31
0.0
100
AcDbText
 73
2
  0
INSERT
  5
L03-OP050
330
17
100
AcDbEntity
  8
0
100
AcDbBlockReference
  2
SERVO_PRESS
 10
512.7272727272727
 20
1110.0
 30
0.0
  0
TEXT
  5
106
330
17
100
AcDbEntity
  8
TEXT
100
AcDbText
 10
512.7272727272727
 20
1126.0
 30
0.0
 40
4.0
  1
L03-OP050
 72
1
 11
512.7272727272727
 21
1126.0
 31
0.0
100
AcDbText
 73
2
  0
INSERT
  5
L03-OP060
330
17
100
AcDbEntity
  8
0
100
AcDbBlockReference
  2
DISPENSING_CELL
 10
610.909090909091
 20
1070.0
 30
0.0
  0
TEXT
  5
109
330
17
100
AcDbEntity
  8
TEXT
100
AcDbText
 10
610.909090909091
 20
1052.0
 30
0.0
 40
4.0
  1
L03-OP060
 72
1
 11
610.909090909091
 21
1052.0
 31
0.0
100
AcDbText
 73
2
  0
INSERT
  5
L03-OP070
330
17
100
AcDbEntity
  8
0
100
AcDbBlockReference
  2
EOL_TEST_BENCH
 10
709.0909090909091
 20
1110.0
 30
0.0
  0
TEXT
  5
10C
330
17
100
AcDbEntity
  8
TEXT
100
AcDbText
 10
709.0909090909091
 20
1126.0
 30
0.0
 40
4.0
  1
L03-OP070
 72
1
 11
709.0909090909091
 21
1126.0
 31
0.0
100
AcDbText
 73
2
  0
INSERT
  5
L03-OP080
330
17
100
AcDbEntity
  8
0
100
AcDbBlockReference
  2
VISION_INSPECTION
 10
807.2727272727273
 20
1070.0
 30
0.0
  0
TEXT
  5
10F
330
17
100
AcDbEntity
  8
TEXT
100
AcDbText
 10
807.2727272727273
 20
1052.0
 30
0.0
 40
4.0
  1
L03-OP080
 72
1
 11
807.2727272727273
 21
1052.0
 31
0.0
100
AcDbText
 73
2
  0
INSERT
  5
L03-OP090
330
17
100
AcDbEntity
  8
0
100
AcDbBlockReference
  2
FASTENING_STATION
 10
905.4545454545455
 20
1110.0
 30
0.0
  0
TEXT
  5
112
330
17
100
AcDbEntity
  8
TEXT
100
AcDbText
 10
905.4545454545455
 20
1126.0
 30
0.0
 40
4.0
  1
L03-OP090
 72
1
 11
905.4545454545455
 21
1126.0
 31
0.0
100
AcDbText
 73
2
  0
INSERT
  5
L03-OP100
330
17
100
AcDbEntity
  8
0
100
AcDbBlockReference
  2
ROBOT_CELL
 10
1003.6363636363637
 20
1070.0
 30
0.0
  0
TEXT
  5
115
330
17
100
AcDbEntity
  8
TEXT
100
AcDbText
 10
1003.6363636363637
 20
1052.0
 30
0.0
 40
4.0
  1
L03-OP100
 72
1
 11
1003.6363636363637
 21
1052.0
 31
0.0
100
AcDbText
 73
2
  0
INSERT
  5
L03-OP110
330
17
100
AcDbEntity
  8
0
100
AcDbBlockReference
  2
CONVEYOR_BED
 10
1101.818181818182
 20
1110.0
 30
0.0
  0
TEXT
  5
118
330
17
100
AcDbEntity
  8
TEXT
100
AcDbText
 10
1101.818181818182
 20
1126.0
 30
0.0
 40
4.0
  1
L03-OP110
 72
1
 11
1101.818181818182
 21
1126.0
 31
0.0
100
AcDbText
 73
2
  0
INSERT
  5
L03-OP120
330
17
100
AcDbEntity
  8
0
100
AcDbBlockReference
  2
CONVEYOR_BED
 10
1200.0
 20
1070.0
 30
0.0
  0
TEXT
  5
11B
330
17
100
AcDbEntity
  8
TEXT
100
AcDbText
 10
1200.0
 20
1052.0
 30
0.0
 40
4.0
  1
L03-OP120
 72
1
 11
1200.0
 21
1052.0
 31
0.0
100
AcDbText
 73
2
  0
TEXT
  5
11C
330
17
100
AcDbEntity
  8
TEXT
100
AcDbText
 10
60.0
 20
960.0
 30
0.0
 40
10.0
  1
LINE 04 – SYNTHETIC ELECTRONICS SMT PLACEMENT (AI SIM)
 11
60.0
 21
960.0
 31
0.0
100
AcDbText
  0
LINE
  5
11D
330
17
100
AcDbEntity
  8
CONVEYORS
100
AcDbLine
 10
80.0
 20
920.0
 30
0.0
 11
1240.0
 21
920.0
 31
0.0
  0
LINE
  5
11E
330
17
100
AcDbEntity
  8
CONVEYORS
100
AcDbLine
 10
80.0
 20
880.0
 30
0.0
 11
1240.0
 21
880.0
 31
0.0
  0
ARC
  5
11F
330
17
100
AcDbEntity
  8
CONVEYORS
100
AcDbCircle
 10
80.0
 20
900.0
 30
0.0
 40
20.0
100
AcDbArc
 50
90.0
 51
270.0
  0
ARC
  5
120
330
17
100
AcDbEntity
  8
CONVEYORS
100
AcDbCircle
 10
1240.0
 20
900.0
 30
0.0
 40
20.0
100
AcDbArc
 50
270.0
 51
90.0
  0
LINE
  5
121
330
17
100
AcDbEntity
  8
CONVEYORS
100
AcDbLine
 10
300.0
 20
920.0
 30
0.0
 11
315.0
 21
920.0
 31
0.0
  0
LINE
  5
122
330
17
100
AcDbEntity
  8
CONVEYORS
100
AcDbLine
 10
315.0
 20
920.0
 30
0.0
 11
310.0
 21
924.0
 31
0.0
  0
LINE
  5
123
330
17
100
AcDbEntity
  8
CONVEYORS
100
AcDbLine
 10
315.0
 20
920.0
 30
0.0
 11
310.0
 21
916.0
 31
0.0
  0
LINE
  5
124
330
17
100
AcDbEntity
  8
CONVEYORS
100
AcDbLine
 10
600.0
 20
920.0
 30
0.0
 11
615.0
 21
920.0
 31
0.0
  0
LINE
  5
125
330
17
100
AcDbEntity
  8
CONVEYORS
100
AcDbLine
 10
615.0
 20
920.0
 30
0.0
 11
610.0
 21
924.0
 31
0.0
  0
LINE
  5
126
330
17
100
AcDbEntity
  8
CONVEYORS
100
AcDbLine
 10
615.0
 20
920.0
 30
0.0
 11
610.0
 21
916.0
 31
0.0
  0
LINE
  5
127
330
17
100
AcDbEntity
  8
CONVEYORS
100
AcDbLine
 10
900.0
 20
920.0
 30
0.0
 11
915.0
 21
920.0
 31
0.0
  0
LINE
  5
128
330
17
100
AcDbEntity
  8
CONVEYORS
100
AcDbLine
 10
915.0
 20
920.0
 30
0.0
 11
910.0
 21
924.0
 31
0.0
  0
LINE
  5
129
330
17
100
AcDbEntity
  8
CONVEYORS
100
AcDbLine
 10
915.0
 20
920.0
 30
0.0
 11
910.0
 21
916.0
 31
0.0
  0
INSERT
  5
L04-OP010
330
17
100
AcDbEntity
  8
0
100
AcDbBlockReference
  2
CONVEYOR_BED
 10
120.0
 20
920.0
 30
0.0
  0
TEXT
  5
12C
330
17
100
AcDbEntity
  8
TEXT
100
AcDbText
 10
120.0
 20
936.0
 30
0.0
 40
4.0
  1
L04-OP010
 72
1
 11
120.0
 21
936.0
 31
0.0
100
AcDbText
 73
2
  0
INSERT
  5
L04-OP020
330
17
100
AcDbEntity
  8
0
100
AcDbBlockReference
  2
VISION_INSPECTION
 10
210.0
 20
880.0
 30
0.0
  0
TEXT
  5
12F
330
17
100
AcDbEntity
  8
TEXT
100
AcDbText
 10
210.0
 20
862.0
 30
0.0
 40
4.0
  1
L04-OP020
 72
1
 11
210.0
 21
862.0
 31
0.0
100
AcDbText
 73
2
  0
INSERT
  5
L04-OP030
330
17
100
AcDbEntity
  8
0
100
AcDbBlockReference
  2
ROBOT_CELL
 10
300.0
 20
920.0
 30
0.0
  0
TEXT
  5
132
330
17
100
AcDbEntity
  8
TEXT
100
AcDbText
 10
300.0
 20
936.0
 30
0.0
 40
4.0
  1
L04-OP030
 72
1
 11
300.0
 21
936.0
 31
0.0
100
AcDbText
 73
2
  0
INSERT
  5
L04-OP040
330
17
100
AcDbEntity
  8
0
100
AcDbBlockReference
  2
DISPENSING_CELL
 10
390.0
 20
880.0
 30
0.0
  0
TEXT
  5
135
330
17
100
AcDbEntity
  8
TEXT
100
AcDbText
 10
390.0
 20
862.0
 30
0.0
 40
4.0
  1
L04-OP040
 72
1
 11
390.0
 21
862.0
 31
0.0
100
AcDbText
 73
2
  0
INSERT
  5
L04-OP050
330
17
100
AcDbEntity
  8
0
100
AcDbBlockReference
  2
VISION_INSPECTION
 10
480.0
 20
920.0
 30
0.0
  0
TEXT
  5
138
330
17
100
AcDbEntity
  8
TEXT
100
AcDbText
 10
480.0
 20
936.0
 30
0.0
 40
4.0
  1
L04-OP050
 72
1
 11
480.0
 21
936.0
 31
0.0
100
AcDbText
 73
2
  0
INSERT
  5
L04-OP060
330
17
100
AcDbEntity
  8
0
100
AcDbBlockReference
  2
SERVO_PRESS
 10
570.0
 20
880.0
 30
0.0
  0
TEXT
  5
13B
330
17
100
AcDbEntity
  8
TEXT
100
AcDbText
 10
570.0
 20
862.0
 30
0.0
 40
4.0
  1
L04-OP060
 72
1
 11
570.0
 21
862.0
 31
0.0
100
AcDbText
 73
2
  0
INSERT
  5
L04-OP070
330
17
100
AcDbEntity
  8
0
100
AcDbBlockReference
  2
EOL_TEST_BENCH
 10
660.0
 20
920.0
 30
0.0
  0
TEXT
  5
13E
330
17
100
AcDbEntity
  8
TEXT
100
AcDbText
 10
660.0
 20
936.0
 30
0.0
 40
4.0
  1
L04-OP070
 72
1
 11
660.0
 21
936.0
 31
0.0
100
AcDbText
 73
2
  0
INSERT
  5
L04-OP080
330
17
100
AcDbEntity
  8
0
100
AcDbBlockReference
  2
ROBOT_CELL
 10
750.0
 20
880.0
 30
0.0
  0
TEXT
  5
141
330
17
100
AcDbEntity
  8
TEXT
100
AcDbText
 10
750.0
 20
862.0
 30
0.0
 40
4.0
  1
L04-OP080
 72
1
 11
750.0
 21
862.0
 31
0.0
100
AcDbText
 73
2
  0
INSERT
  5
L04-OP090
330
17
100
AcDbEntity
  8
0
100
AcDbBlockReference
  2
VISION_INSPECTION
 10
840.0
 20
920.0
 30
0.0
  0
TEXT
  5
144
330
17
100
AcDbEntity
  8
TEXT
100
AcDbText
 10
840.0
 20
936.0
 30
0.0
 40
4.0
  1
L04-OP090
 72
1
 11
840.0
 21
936.0
 31
0.0
100
AcDbText
 73
2
  0
INSERT
  5
L04-OP100
330
17
100
AcDbEntity
  8
0
100
AcDbBlockReference
  2
FASTENING_STATION
 10
930.0
 20
880.0
 30
0.0
  0
TEXT
  5
147
330
17
100
AcDbEntity
  8
TEXT
100
AcDbText
 10
930.0
 20
862.0
 30
0.0
 40
4.0
  1
L04-OP100
 72
1
 11
930.0
 21
862.0
 31
0.0
100
AcDbText
 73
2
  0
INSERT
  5
L04-OP110
330
17
100
AcDbEntity
  8
0
100
AcDbBlockReference
  2
CONVEYOR_BED
 10
1020.0
 20
920.0
 30
0.0
  0
TEXT
  5
14A
330
17
100
AcDbEntity
  8
TEXT
100
AcDbText
 10
1020.0
 20
936.0
 30
0.0
 40
4.0
  1
L04-OP110
 72
1
 11
1020.0
 21
936.0
 31
0.0
100
AcDbText
 73
2
  0
INSERT
  5
L04-OP120
330
17
100
AcDbEntity
  8
0
100
AcDbBlockReference
  2
CONVEYOR_BED
 10
1110.0
 20
880.0
 30
0.0
  0
TEXT
  5
14D
330
17
100
AcDbEntity
  8
TEXT
100
AcDbText
 10
1110.0
 20
862.0
 30
0.0
 40
4.0
  1
L04-OP120
 72
1
 11
1110.0
 21
862.0
 31
0.0
100
AcDbText
 73
2
  0
INSERT
  5
L04-OP130
330
17
100
AcDbEntity
  8
0
100
AcDbBlockReference
  2
CONVEYOR_BED
 10
1200.0
 20
920.0
 30
0.0
  0
TEXT
  5
150
330
17
100
AcDbEntity
  8
TEXT
100
AcDbText
 10
1200.0
 20
936.0
 30
0.0
 40
4.0
  1
L04-OP130
 72
1
 11
1200.0
 21
936.0
 31
0.0
100
AcDbText
 73
2
  0
TEXT
  5
151
330
17
100
AcDbEntity
  8
TEXT
100
AcDbText
 10
60.0
 20
770.0
 30
0.0
 40
10.0
  1
LINE 05 – SYNTHETIC BODY-IN-WHITE ROBOTIC WELDING (AI SIM)
 11
60.0
 21
770.0
 31
0.0
100
AcDbText
  0
LINE
  5
152
330
17
100
AcDbEntity
  8
CONVEYORS
100
AcDbLine
 10
80.0
 20
730.0
 30
0.0
 11
1240.0
 21
730.0
 31
0.0
  0
LINE
  5
153
330
17
100
AcDbEntity
  8
CONVEYORS
100
AcDbLine
 10
80.0
 20
690.0
 30
0.0
 11
1240.0
 21
690.0
 31
0.0
  0
ARC
  5
154
330
17
100
AcDbEntity
  8
CONVEYORS
100
AcDbCircle
 10
80.0
 20
710.0
 30
0.0
 40
20.0
100
AcDbArc
 50
90.0
 51
270.0
  0
ARC
  5
155
330
17
100
AcDbEntity
  8
CONVEYORS
100
AcDbCircle
 10
1240.0
 20
710.0
 30
0.0
 40
20.0
100
AcDbArc
 50
270.0
 51
90.0
  0
LINE
  5
156
330
17
100
AcDbEntity
  8
CONVEYORS
100
AcDbLine
 10
300.0
 20
730.0
 30
0.0
 11
315.0
 21
730.0
 31
0.0
  0
LINE
  5
157
330
17
100
AcDbEntity
  8
CONVEYORS
100
AcDbLine
 10
315.0
 20
730.0
 30
0.0
 11
310.0
 21
734.0
 31
0.0
  0
LINE
  5
158
330
17
100
AcDbEntity
  8
CONVEYORS
100
AcDbLine
 10
315.0
 20
730.0
 30
0.0
 11
310.0
 21
726.0
 31
0.0
  0
LINE
  5
159
330
17
100
AcDbEntity
  8
CONVEYORS
100
AcDbLine
 10
600.0
 20
730.0
 30
0.0
 11
615.0
 21
730.0
 31
0.0
  0
LINE
  5
15A
330
17
100
AcDbEntity
  8
CONVEYORS
100
AcDbLine
 10
615.0
 20
730.0
 30
0.0
 11
610.0
 21
734.0
 31
0.0
  0
LINE
  5
15B
330
17
100
AcDbEntity
  8
CONVEYORS
100
AcDbLine
 10
615.0
 20
730.0
 30
0.0
 11
610.0
 21
726.0
 31
0.0
  0
LINE
  5
15C
330
17
100
AcDbEntity
  8
CONVEYORS
100
AcDbLine
 10
900.0
 20
730.0
 30
0.0
 11
915.0
 21
730.0
 31
0.0
  0
LINE
  5
15D
330
17
100
AcDbEntity
  8
CONVEYORS
100
AcDbLine
 10
915.0
 20
730.0
 30
0.0
 11
910.0
 21
734.0
 31
0.0
  0
LINE
  5
15E
330
17
100
AcDbEntity
  8
CONVEYORS
100
AcDbLine
 10
915.0
 20
730.0
 30
0.0
 11
910.0
 21
726.0
 31
0.0
  0
INSERT
  5
L05-OP010
330
17
100
AcDbEntity
  8
0
100
AcDbBlockReference
  2
CONVEYOR_BED
 10
120.0
 20
730.0
 30
0.0
  0
TEXT
  5
161
330
17
100
AcDbEntity
  8
TEXT
100
AcDbText
 10
120.0
 20
746.0
 30
0.0
 40
4.0
  1
L05-OP010
 72
1
 11
120.0
 21
746.0
 31
0.0
100
AcDbText
 73
2
  0
INSERT
  5
L05-OP020
330
17
100
AcDbEntity
  8
0
100
AcDbBlockReference
  2
ROBOT_CELL
 10
218.1818181818182
 20
690.0
 30
0.0
  0
TEXT
  5
164
330
17
100
AcDbEntity
  8
TEXT
100
AcDbText
 10
218.1818181818182
 20
672.0
 30
0.0
 40
4.0
  1
L05-OP020
 72
1
 11
218.1818181818182
 21
672.0
 31
0.0
100
AcDbText
 73
2
  0
INSERT
  5
L05-OP030
330
17
100
AcDbEntity
  8
0
100
AcDbBlockReference
  2
LASER_WELD_CELL
 10
316.3636363636364
 20
730.0
 30
0.0
  0
TEXT
  5
167
330
17
100
AcDbEntity
  8
TEXT
100
AcDbText
 10
316.3636363636364
 20
746.0
 30
0.0
 40
4.0
  1
L05-OP030
 72
1
 11
316.3636363636364
 21
746.0
 31
0.0
100
AcDbText
 73
2
  0
INSERT
  5
L05-OP040
330
17
100
AcDbEntity
  8
0
100
AcDbBlockReference
  2
ROBOT_CELL
 10
414.54545454545456
 20
690.0
 30
0.0
  0
TEXT
  5
16A
330
17
100
AcDbEntity
  8
TEXT
100
AcDbText
 10
414.54545454545456
 20
672.0
 30
0.0
 40
4.0
  1
L05-OP040
 72
1
 11
414.54545454545456
 21
672.0
 31
0.0
100
AcDbText
 73
2
  0
INSERT
  5
L05-OP050
330
17
100
AcDbEntity
  8
0
100
AcDbBlockReference
  2
FASTENING_STATION
 10
512.7272727272727
 20
730.0
 30
0.0
  0
TEXT
  5
16D
330
17
100
AcDbEntity
  8
TEXT
100
AcDbText
 10
512.7272727272727
 20
746.0
 30
0.0
 40
4.0
  1
L05-OP050
 72
1
 11
512.7272727272727
 21
746.0
 31
0.0
100
AcDbText
 73
2
  0
INSERT
  5
L05-OP060
330
17
100
AcDbEntity
  8
0
100
AcDbBlockReference
  2
LASER_WELD_CELL
 10
610.909090909091
 20
690.0
 30
0.0
  0
TEXT
  5
170
330
17
100
AcDbEntity
  8
TEXT
100
AcDbText
 10
610.909090909091
 20
672.0
 30
0.0
 40
4.0
  1
L05-OP060
 72
1
 11
610.909090909091
 21
672.0
 31
0.0
100
AcDbText
 73
2
  0
INSERT
  5
L05-OP070
330
17
100
AcDbEntity
  8
0
100
AcDbBlockReference
  2
VISION_INSPECTION
 10
709.0909090909091
 20
730.0
 30
0.0
  0
TEXT
  5
173
330
17
100
AcDbEntity
  8
TEXT
100
AcDbText
 10
709.0909090909091
 20
746.0
 30
0.0
 40
4.0
  1
L05-OP070
 72
1
 11
709.0909090909091
 21
746.0
 31
0.0
100
AcDbText
 73
2
  0
INSERT
  5
L05-OP080
330
17
100
AcDbEntity
  8
0
100
AcDbBlockReference
  2
ROBOT_CELL
 10
807.2727272727273
 20
690.0
 30
0.0
  0
TEXT
  5
176
330
17
100
AcDbEntity
  8
TEXT
100
AcDbText
 10
807.2727272727273
 20
672.0
 30
0.0
 40
4.0
  1
L05-OP080
 72
1
 11
807.2727272727273
 21
672.0
 31
0.0
100
AcDbText
 73
2
  0
INSERT
  5
L05-OP090
330
17
100
AcDbEntity
  8
0
100
AcDbBlockReference
  2
FASTENING_STATION
 10
905.4545454545455
 20
730.0
 30
0.0
  0
TEXT
  5
179
330
17
100
AcDbEntity
  8
TEXT
100
AcDbText
 10
905.4545454545455
 20
746.0
 30
0.0
 40
4.0
  1
L05-OP090
 72
1
 11
905.4545454545455
 21
746.0
 31
0.0
100
AcDbText
 73
2
  0
INSERT
  5
L05-OP100
330
17
100
AcDbEntity
  8
0
100
AcDbBlockReference
  2
ROBOT_CELL
 10
1003.6363636363637
 20
690.0
 30
0.0
  0
TEXT
  5
17C
330
17
100
AcDbEntity
  8
TEXT
100
AcDbText
 10
1003.6363636363637
 20
672.0
 30
0.0
 40
4.0
  1
L05-OP100
 72
1
 11
1003.6363636363637
 21
672.0
 31
0.0
100
AcDbText
 73
2
  0
INSERT
  5
L05-OP110
330
17
100
AcDbEntity
  8
0
100
AcDbBlockReference
  2
CONVEYOR_BED
 10
1101.818181818182
 20
730.0
 30
0.0
  0
TEXT
  5
17F
330
17
100
AcDbEntity
  8
TEXT
100
AcDbText
 10
1101.818181818182
 20
746.0
 30
0.0
 40
4.0
  1
L05-OP110
 72
1
 11
1101.818181818182
 21
746.0
 31
0.0
100
AcDbText
 73
2
  0
INSERT
  5
L05-OP120
330
17
100
AcDbEntity
  8
0
100
AcDbBlockReference
  2
CONVEYOR_BED
 10
1200.0
 20
690.0
 30
0.0
  0
TEXT
  5
182
330
17
100
AcDbEntity
  8
TEXT
100
AcDbText
 10
1200.0
 20
672.0
 30
0.0
 40
4.0
  1
L05-OP120
 72
1
 11
1200.0
 21
672.0
 31
0.0
100
AcDbText
 73
2
  0
TEXT
  5
183
330
17
100
AcDbEntity
  8
TEXT
100
AcDbText
 10
60.0
 20
580.0
 30
0.0
 40
10.0
  1
LINE 06 – SYNTHETIC PRECISION PRESS FIT (AI SIM)
 11
60.0
 21
580.0
 31
0.0
100
AcDbText
  0
LINE
  5
184
330
17
100
AcDbEntity
  8
CONVEYORS
100
AcDbLine
 10
80.0
 20
540.0
 30
0.0
 11
1240.0
 21
540.0
 31
0.0
  0
LINE
  5
185
330
17
100
AcDbEntity
  8
CONVEYORS
100
AcDbLine
 10
80.0
 20
500.0
 30
0.0
 11
1240.0
 21
500.0
 31
0.0
  0
ARC
  5
186
330
17
100
AcDbEntity
  8
CONVEYORS
100
AcDbCircle
 10
80.0
 20
520.0
 30
0.0
 40
20.0
100
AcDbArc
 50
90.0
 51
270.0
  0
ARC
  5
187
330
17
100
AcDbEntity
  8
CONVEYORS
100
AcDbCircle
 10
1240.0
 20
520.0
 30
0.0
 40
20.0
100
AcDbArc
 50
270.0
 51
90.0
  0
LINE
  5
188
330
17
100
AcDbEntity
  8
CONVEYORS
100
AcDbLine
 10
300.0
 20
540.0
 30
0.0
 11
315.0
 21
540.0
 31
0.0
  0
LINE
  5
189
330
17
100
AcDbEntity
  8
CONVEYORS
100
AcDbLine
 10
315.0
 20
540.0
 30
0.0
 11
310.0
 21
544.0
 31
0.0
  0
LINE
  5
18A
330
17
100
AcDbEntity
  8
CONVEYORS
100
AcDbLine
 10
315.0
 20
540.0
 30
0.0
 11
310.0
 21
536.0
 31
0.0
  0
LINE
  5
18B
330
17
100
AcDbEntity
  8
CONVEYORS
100
AcDbLine
 10
600.0
 20
540.0
 30
0.0
 11
615.0
 21
540.0
 31
0.0
  0
LINE
  5
18C
330
17
100
AcDbEntity
  8
CONVEYORS
100
AcDbLine
 10
615.0
 20
540.0
 30
0.0
 11
610.0
 21
544.0
 31
0.0
  0
LINE
  5
18D
330
17
100
AcDbEntity
  8
CONVEYORS
100
AcDbLine
 10
615.0
 20
540.0
 30
0.0
 11
610.0
 21
536.0
 31
0.0
  0
LINE
  5
18E
330
17
100
AcDbEntity
  8
CONVEYORS
100
AcDbLine
 10
900.0
 20
540.0
 30
0.0
 11
915.0
 21
540.0
 31
0.0
  0
LINE
  5
18F
330
17
100
AcDbEntity
  8
CONVEYORS
100
AcDbLine
 10
915.0
 20
540.0
 30
0.0
 11
910.0
 21
544.0
 31
0.0
  0
LINE
  5
190
330
17
100
AcDbEntity
  8
CONVEYORS
100
AcDbLine
 10
915.0
 20
540.0
 30
0.0
 11
910.0
 21
536.0
 31
0.0
  0
INSERT
  5
L06-OP010
330
17
100
AcDbEntity
  8
0
100
AcDbBlockReference
  2
CONVEYOR_BED
 10
120.0
 20
540.0
 30
0.0
  0
TEXT
  5
193
330
17
100
AcDbEntity
  8
TEXT
100
AcDbText
 10
120.0
 20
556.0
 30
0.0
 40
4.0
  1
L06-OP010
 72
1
 11
120.0
 21
556.0
 31
0.0
100
AcDbText
 73
2
  0
INSERT
  5
L06-OP020
330
17
100
AcDbEntity
  8
0
100
AcDbBlockReference
  2
SERVO_PRESS
 10
218.1818181818182
 20
500.0
 30
0.0
  0
TEXT
  5
196
330
17
100
AcDbEntity
  8
TEXT
100
AcDbText
 10
218.1818181818182
 20
482.0
 30
0.0
 40
4.0
  1
L06-OP020
 72
1
 11
218.1818181818182
 21
482.0
 31
0.0
100
AcDbText
 73
2
  0
INSERT
  5
L06-OP030
330
17
100
AcDbEntity
  8
0
100
AcDbBlockReference
  2
SERVO_PRESS
 10
316.3636363636364
 20
540.0
 30
0.0
  0
TEXT
  5
199
330
17
100
AcDbEntity
  8
TEXT
100
AcDbText
 10
316.3636363636364
 20
556.0
 30
0.0
 40
4.0
  1
L06-OP030
 72
1
 11
316.3636363636364
 21
556.0
 31
0.0
100
AcDbText
 73
2
  0
INSERT
  5
L06-OP040
330
17
100
AcDbEntity
  8
0
100
AcDbBlockReference
  2
ROBOT_CELL
 10
414.54545454545456
 20
500.0
 30
0.0
  0
TEXT
  5
19C
330
17
100
AcDbEntity
  8
TEXT
100
AcDbText
 10
414.54545454545456
 20
482.0
 30
0.0
 40
4.0
  1
L06-OP040
 72
1
 11
414.54545454545456
 21
482.0
 31
0.0
100
AcDbText
 73
2
  0
INSERT
  5
L06-OP050
330
17
100
AcDbEntity
  8
0
100
AcDbBlockReference
  2
FASTENING_STATION
 10
512.7272727272727
 20
540.0
 30
0.0
  0
TEXT
  5
19F
330
17
100
AcDbEntity
  8
TEXT
100
AcDbText
 10
512.7272727272727
 20
556.0
 30
0.0
 40
4.0
  1
L06-OP050
 72
1
 11
512.7272727272727
 21
556.0
 31
0.0
100
AcDbText
 73
2
  0
INSERT
  5
L06-OP060
330
17
100
AcDbEntity
  8
0
100
AcDbBlockReference
  2
SERVO_PRESS
 10
610.909090909091
 20
500.0
 30
0.0
  0
TEXT
  5
1A2
330
17
100
AcDbEntity
  8
TEXT
100
AcDbText
 10
610.909090909091
 20
482.0
 30
0.0
 40
4.0
  1
L06-OP060
 72
1
 11
610.909090909091
 21
482.0
 31
0.0
100
AcDbText
 73
2
  0
INSERT
  5
L06-OP070
330
17
100
AcDbEntity
  8
0
100
AcDbBlockReference
  2
VISION_INSPECTION
 10
709.0909090909091
 20
540.0
 30
0.0
  0
TEXT
  5
1A5
330
17
100
AcDbEntity
  8
TEXT
100
AcDbText
 10
709.0909090909091
 20
556.0
 30
0.0
 40
4.0
  1
L06-OP070
 72
1
 11
709.0909090909091
 21
556.0
 31
0.0
100
AcDbText
 73
2
  0
INSERT
  5
L06-OP080
330
17
100
AcDbEntity
  8
0
100
AcDbBlockReference
  2
EOL_TEST_BENCH
 10
807.2727272727273
 20
500.0
 30
0.0
  0
TEXT
  5
1A8
330
17
100
AcDbEntity
  8
TEXT
100
AcDbText
 10
807.2727272727273
 20
482.0
 30
0.0
 40
4.0
  1
L06-OP080
 72
1
 11
807.2727272727273
 21
482.0
 31
0.0
100
AcDbText
 73
2
  0
INSERT
  5
L06-OP090
330
17
100
AcDbEntity
  8
0
100
AcDbBlockReference
  2
SERVO_PRESS
 10
905.4545454545455
 20
540.0
 30
0.0
  0
TEXT
  5
1AB
330
17
100
AcDbEntity
  8
TEXT
100
AcDbText
 10
905.4545454545455
 20
556.0
 30
0.0
 40
4.0
  1
L06-OP090
 72
1
 11
905.4545454545455
 21
556.0
 31
0.0
100
AcDbText
 73
2
  0
INSERT
  5
L06-OP100
330
17
100
AcDbEntity
  8
0
100
AcDbBlockReference
  2
ROBOT_CELL
 10
1003.6363636363637
 20
500.0
 30
0.0
  0
TEXT
  5
1AE
330
17
100
AcDbEntity
  8
TEXT
100
AcDbText
 10
1003.6363636363637
 20
482.0
 30
0.0
 40
4.0
  1
L06-OP100
 72
1
 11
1003.6363636363637
 21
482.0
 31
0.0
100
AcDbText
 73
2
  0
INSERT
  5
L06-OP110
330
17
100
AcDbEntity
  8
0
100
AcDbBlockReference
  2
CONVEYOR_BED
 10
1101.818181818182
 20
540.0
 30
0.0
  0
TEXT
  5
1B1
330
17
100
AcDbEntity
  8
TEXT
100
AcDbText
 10
1101.818181818182
 20
556.0
 30
0.0
 40
4.0
  1
L06-OP110
 72
1
 11
1101.818181818182
 21
556.0
 31
0.0
100
AcDbText
 73
2
  0
INSERT
  5
L06-OP120
330
17
100
AcDbEntity
  8
0
100
AcDbBlockReference
  2
CONVEYOR_BED
 10
1200.0
 20
500.0
 30
0.0
  0
TEXT
  5
1B4
330
17
100
AcDbEntity
  8
TEXT
100
AcDbText
 10
1200.0
 20
482.0
 30
0.0
 40
4.0
  1
L06-OP120
 72
1
 11
1200.0
 21
482.0
 31
0.0
100
AcDbText
 73
2
  0
TEXT
  5
1B5
330
17
100
AcDbEntity
  8
TEXT
100
AcDbText
 10
60.0
 20
390.0
 30
0.0
 40
10.0
  1
LINE 07 – SYNTHETIC OPTICAL QUALITY METROLOGY (AI SIM)
 11
60.0
 21
390.0
 31
0.0
100
AcDbText
  0
LINE
  5
1B6
330
17
100
AcDbEntity
  8
CONVEYORS
100
AcDbLine
 10
80.0
 20
350.0
 30
0.0
 11
1240.0
 21
350.0
 31
0.0
  0
LINE
  5
1B7
330
17
100
AcDbEntity
  8
CONVEYORS
100
AcDbLine
 10
80.0
 20
310.0
 30
0.0
 11
1240.0
 21
310.0
 31
0.0
  0
ARC
  5
1B8
330
17
100
AcDbEntity
  8
CONVEYORS
100
AcDbCircle
 10
80.0
 20
330.0
 30
0.0
 40
20.0
100
AcDbArc
 50
90.0
 51
270.0
  0
ARC
  5
1B9
330
17
100
AcDbEntity
  8
CONVEYORS
100
AcDbCircle
 10
1240.0
 20
330.0
 30
0.0
 40
20.0
100
AcDbArc
 50
270.0
 51
90.0
  0
LINE
  5
1BA
330
17
100
AcDbEntity
  8
CONVEYORS
100
AcDbLine
 10
300.0
 20
350.0
 30
0.0
 11
315.0
 21
350.0
 31
0.0
  0
LINE
  5
1BB
330
17
100
AcDbEntity
  8
CONVEYORS
100
AcDbLine
 10
315.0
 20
350.0
 30
0.0
 11
310.0
 21
354.0
 31
0.0
  0
LINE
  5
1BC
330
17
100
AcDbEntity
  8
CONVEYORS
100
AcDbLine
 10
315.0
 20
350.0
 30
0.0
 11
310.0
 21
346.0
 31
0.0
  0
LINE
  5
1BD
330
17
100
AcDbEntity
  8
CONVEYORS
100
AcDbLine
 10
600.0
 20
350.0
 30
0.0
 11
615.0
 21
350.0
 31
0.0
  0
LINE
  5
1BE
330
17
100
AcDbEntity
  8
CONVEYORS
100
AcDbLine
 10
615.0
 20
350.0
 30
0.0
 11
610.0
 21
354.0
 31
0.0
  0
LINE
  5
1BF
330
17
100
AcDbEntity
  8
CONVEYORS
100
AcDbLine
 10
615.0
 20
350.0
 30
0.0
 11
610.0
 21
346.0
 31
0.0
  0
LINE
  5
1C0
330
17
100
AcDbEntity
  8
CONVEYORS
100
AcDbLine
 10
900.0
 20
350.0
 30
0.0
 11
915.0
 21
350.0
 31
0.0
  0
LINE
  5
1C1
330
17
100
AcDbEntity
  8
CONVEYORS
100
AcDbLine
 10
915.0
 20
350.0
 30
0.0
 11
910.0
 21
354.0
 31
0.0
  0
LINE
  5
1C2
330
17
100
AcDbEntity
  8
CONVEYORS
100
AcDbLine
 10
915.0
 20
350.0
 30
0.0
 11
910.0
 21
346.0
 31
0.0
  0
INSERT
  5
L07-OP010
330
17
100
AcDbEntity
  8
0
100
AcDbBlockReference
  2
CONVEYOR_BED
 10
120.0
 20
350.0
 30
0.0
  0
TEXT
  5
1C5
330
17
100
AcDbEntity
  8
TEXT
100
AcDbText
 10
120.0
 20
366.0
 30
0.0
 40
4.0
  1
L07-OP010
 72
1
 11
120.0
 21
366.0
 31
0.0
100
AcDbText
 73
2
  0
INSERT
  5
L07-OP020
330
17
100
AcDbEntity
  8
0
100
AcDbBlockReference
  2
VISION_INSPECTION
 10
210.0
 20
310.0
 30
0.0
  0
TEXT
  5
1C8
330
17
100
AcDbEntity
  8
TEXT
100
AcDbText
 10
210.0
 20
292.0
 30
0.0
 40
4.0
  1
L07-OP020
 72
1
 11
210.0
 21
292.0
 31
0.0
100
AcDbText
 73
2
  0
INSERT
  5
L07-OP030
330
17
100
AcDbEntity
  8
0
100
AcDbBlockReference
  2
VISION_INSPECTION
 10
300.0
 20
350.0
 30
0.0
  0
TEXT
  5
1CB
330
17
100
AcDbEntity
  8
TEXT
100
AcDbText
 10
300.0
 20
366.0
 30
0.0
 40
4.0
  1
L07-OP030
 72
1
 11
300.0
 21
366.0
 31
0.0
100
AcDbText
 73
2
  0
INSERT
  5
L07-OP040
330
17
100
AcDbEntity
  8
0
100
AcDbBlockReference
  2
ROBOT_CELL
 10
390.0
 20
310.0
 30
0.0
  0
TEXT
  5
1CE
330
17
100
AcDbEntity
  8
TEXT
100
AcDbText
 10
390.0
 20
292.0
 30
0.0
 40
4.0
  1
L07-OP040
 72
1
 11
390.0
 21
292.0
 31
0.0
100
AcDbText
 73
2
  0
INSERT
  5
L07-OP050
330
17
100
AcDbEntity
  8
0
100
AcDbBlockReference
  2
VISION_INSPECTION
 10
480.0
 20
350.0
 30
0.0
  0
TEXT
  5
1D1
330
17
100
AcDbEntity
  8
TEXT
100
AcDbText
 10
480.0
 20
366.0
 30
0.0
 40
4.0
  1
L07-OP050
 72
1
 11
480.0
 21
366.0
 31
0.0
100
AcDbText
 73
2
  0
INSERT
  5
L07-OP060
330
17
100
AcDbEntity
  8
0
100
AcDbBlockReference
  2
EOL_TEST_BENCH
 10
570.0
 20
310.0
 30
0.0
  0
TEXT
  5
1D4
330
17
100
AcDbEntity
  8
TEXT
100
AcDbText
 10
570.0
 20
292.0
 30
0.0
 40
4.0
  1
L07-OP060
 72
1
 11
570.0
 21
292.0
 31
0.0
100
AcDbText
 73
2
  0
INSERT
  5
L07-OP070
330
17
100
AcDbEntity
  8
0
100
AcDbBlockReference
  2
VISION_INSPECTION
 10
660.0
 20
350.0
 30
0.0
  0
TEXT
  5
1D7
330
17
100
AcDbEntity
  8
TEXT
100
AcDbText
 10
660.0
 20
366.0
 30
0.0
 40
4.0
  1
L07-OP070
 72
1
 11
660.0
 21
366.0
 31
0.0
100
AcDbText
 73
2
  0
INSERT
  5
L07-OP080
330
17
100
AcDbEntity
  8
0
100
AcDbBlockReference
  2
ROBOT_CELL
 10
750.0
 20
310.0
 30
0.0
  0
TEXT
  5
1DA
330
17
100
AcDbEntity
  8
TEXT
100
AcDbText
 10
750.0
 20
292.0
 30
0.0
 40
4.0
  1
L07-OP080
 72
1
 11
750.0
 21
292.0
 31
0.0
100
AcDbText
 73
2
  0
INSERT
  5
L07-OP090
330
17
100
AcDbEntity
  8
0
100
AcDbBlockReference
  2
VISION_INSPECTION
 10
840.0
 20
350.0
 30
0.0
  0
TEXT
  5
1DD
330
17
100
AcDbEntity
  8
TEXT
100
AcDbText
 10
840.0
 20
366.0
 30
0.0
 40
4.0
  1
L07-OP090
 72
1
 11
840.0
 21
366.0
 31
0.0
100
AcDbText
 73
2
  0
INSERT
  5
L07-OP100
330
17
100
AcDbEntity
  8
0
100
AcDbBlockReference
  2
CONVEYOR_BED
 10
930.0
 20
310.0
 30
0.0
  0
TEXT
  5
1E0
330
17
100
AcDbEntity
  8
TEXT
100
AcDbText
 10
930.0
 20
292.0
 30
0.0
 40
4.0
  1
L07-OP100
 72
1
 11
930.0
 21
292.0
 31
0.0
100
AcDbText
 73
2
  0
INSERT
  5
L07-OP110
330
17
100
AcDbEntity
  8
0
100
AcDbBlockReference
  2
CONVEYOR_BED
 10
1020.0
 20
350.0
 30
0.0
  0
TEXT
  5
1E3
330
17
100
AcDbEntity
  8
TEXT
100
AcDbText
 10
1020.0
 20
366.0
 30
0.0
 40
4.0
  1
L07-OP110
 72
1
 11
1020.0
 21
366.0
 31
0.0
100
AcDbText
 73
2
  0
INSERT
  5
L07-OP120
330
17
100
AcDbEntity
  8
0
100
AcDbBlockReference
  2
CONVEYOR_BED
 10
1110.0
 20
310.0
 30
0.0
  0
TEXT
  5
1E6
330
17
100
AcDbEntity
  8
TEXT
100
AcDbText
 10
1110.0
 20
292.0
 30
0.0
 40
4.0
  1
L07-OP120
 72
1
 11
1110.0
 21
292.0
 31
0.0
100
AcDbText
 73
2
  0
INSERT
  5
L07-OP130
330
17
100
AcDbEntity
  8
0
100
AcDbBlockReference
  2
CONVEYOR_BED
 10
1200.0
 20
350.0
 30
0.0
  0
TEXT
  5
1E9
330
17
100
AcDbEntity
  8
TEXT
100
AcDbText
 10
1200.0
 20
366.0
 30
0.0
 40
4.0
  1
L07-OP130
 72
1
 11
1200.0
 21
366.0
 31
0.0
100
AcDbText
 73
2
  0
TEXT
  5
1EA
330
17
100
AcDbEntity
  8
TEXT
100
AcDbText
 10
60.0
 20
200.0
 30
0.0
 40
10.0
  1
LINE 08 – SYNTHETIC END-OF-LINE VEHICLE INTEGRATION (AI SIM)
 11
60.0
 21
200.0
 31
0.0
100
AcDbText
  0
LINE
  5
1EB
330
17
100
AcDbEntity
  8
CONVEYORS
100
AcDbLine
 10
80.0
 20
160.0
 30
0.0
 11
1240.0
 21
160.0
 31
0.0
  0
LINE
  5
1EC
330
17
100
AcDbEntity
  8
CONVEYORS
100
AcDbLine
 10
80.0
 20
120.0
 30
0.0
 11
1240.0
 21
120.0
 31
0.0
  0
ARC
  5
1ED
330
17
100
AcDbEntity
  8
CONVEYORS
100
AcDbCircle
 10
80.0
 20
140.0
 30
0.0
 40
20.0
100
AcDbArc
 50
90.0
 51
270.0
  0
ARC
  5
1EE
330
17
100
AcDbEntity
  8
CONVEYORS
100
AcDbCircle
 10
1240.0
 20
140.0
 30
0.0
 40
20.0
100
AcDbArc
 50
270.0
 51
90.0
  0
LINE
  5
1EF
330
17
100
AcDbEntity
  8
CONVEYORS
100
AcDbLine
 10
300.0
 20
160.0
 30
0.0
 11
315.0
 21
160.0
 31
0.0
  0
LINE
  5
1F0
330
17
100
AcDbEntity
  8
CONVEYORS
100
AcDbLine
 10
315.0
 20
160.0
 30
0.0
 11
310.0
 21
164.0
 31
0.0
  0
LINE
  5
1F1
330
17
100
AcDbEntity
  8
CONVEYORS
100
AcDbLine
 10
315.0
 20
160.0
 30
0.0
 11
310.0
 21
156.0
 31
0.0
  0
LINE
  5
1F2
330
17
100
AcDbEntity
  8
CONVEYORS
100
AcDbLine
 10
600.0
 20
160.0
 30
0.0
 11
615.0
 21
160.0
 31
0.0
  0
LINE
  5
1F3
330
17
100
AcDbEntity
  8
CONVEYORS
100
AcDbLine
 10
615.0
 20
160.0
 30
0.0
 11
610.0
 21
164.0
 31
0.0
  0
LINE
  5
1F4
330
17
100
AcDbEntity
  8
CONVEYORS
100
AcDbLine
 10
615.0
 20
160.0
 30
0.0
 11
610.0
 21
156.0
 31
0.0
  0
LINE
  5
1F5
330
17
100
AcDbEntity
  8
CONVEYORS
100
AcDbLine
 10
900.0
 20
160.0
 30
0.0
 11
915.0
 21
160.0
 31
0.0
  0
LINE
  5
1F6
330
17
100
AcDbEntity
  8
CONVEYORS
100
AcDbLine
 10
915.0
 20
160.0
 30
0.0
 11
910.0
 21
164.0
 31
0.0
  0
LINE
  5
1F7
330
17
100
AcDbEntity
  8
CONVEYORS
100
AcDbLine
 10
915.0
 20
160.0
 30
0.0
 11
910.0
 21
156.0
 31
0.0
  0
INSERT
  5
L08-OP010
330
17
100
AcDbEntity
  8
0
100
AcDbBlockReference
  2
CONVEYOR_BED
 10
120.0
 20
160.0
 30
0.0
  0
TEXT
  5
1FA
330
17
100
AcDbEntity
  8
TEXT
100
AcDbText
 10
120.0
 20
176.0
 30
0.0
 40
4.0
  1
L08-OP010
 72
1
 11
120.0
 21
176.0
 31
0.0
100
AcDbText
 73
2
  0
INSERT
  5
L08-OP020
330
17
100
AcDbEntity
  8
0
100
AcDbBlockReference
  2
EOL_TEST_BENCH
 10
210.0
 20
120.0
 30
0.0
  0
TEXT
  5
1FD
330
17
100
AcDbEntity
  8
TEXT
100
AcDbText
 10
210.0
 20
102.0
 30
0.0
 40
4.0
  1
L08-OP020
 72
1
 11
210.0
 21
102.0
 31
0.0
100
AcDbText
 73
2
  0
INSERT
  5
L08-OP030
330
17
100
AcDbEntity
  8
0
100
AcDbBlockReference
  2
EOL_TEST_BENCH
 10
300.0
 20
160.0
 30
0.0
  0
TEXT
  5
200
330
17
100
AcDbEntity
  8
TEXT
100
AcDbText
 10
300.0
 20
176.0
 30
0.0
 40
4.0
  1
L08-OP030
 72
1
 11
300.0
 21
176.0
 31
0.0
100
AcDbText
 73
2
  0
INSERT
  5
L08-OP040
330
17
100
AcDbEntity
  8
0
100
AcDbBlockReference
  2
ROBOT_CELL
 10
390.0
 20
120.0
 30
0.0
  0
TEXT
  5
203
330
17
100
AcDbEntity
  8
TEXT
100
AcDbText
 10
390.0
 20
102.0
 30
0.0
 40
4.0
  1
L08-OP040
 72
1
 11
390.0
 21
102.0
 31
0.0
100
AcDbText
 73
2
  0
INSERT
  5
L08-OP050
330
17
100
AcDbEntity
  8
0
100
AcDbBlockReference
  2
VISION_INSPECTION
 10
480.0
 20
160.0
 30
0.0
  0
TEXT
  5
206
330
17
100
AcDbEntity
  8
TEXT
100
AcDbText
 10
480.0
 20
176.0
 30
0.0
 40
4.0
  1
L08-OP050
 72
1
 11
480.0
 21
176.0
 31
0.0
100
AcDbText
 73
2
  0
INSERT
  5
L08-OP060
330
17
100
AcDbEntity
  8
0
100
AcDbBlockReference
  2
EOL_TEST_BENCH
 10
570.0
 20
120.0
 30
0.0
  0
TEXT
  5
209
330
17
100
AcDbEntity
  8
TEXT
100
AcDbText
 10
570.0
 20
102.0
 30
0.0
 40
4.0
  1
L08-OP060
 72
1
 11
570.0
 21
102.0
 31
0.0
100
AcDbText
 73
2
  0
INSERT
  5
L08-OP070
330
17
100
AcDbEntity
  8
0
100
AcDbBlockReference
  2
FASTENING_STATION
 10
660.0
 20
160.0
 30
0.0
  0
TEXT
  5
20C
330
17
100
AcDbEntity
  8
TEXT
100
AcDbText
 10
660.0
 20
176.0
 30
0.0
 40
4.0
  1
L08-OP070
 72
1
 11
660.0
 21
176.0
 31
0.0
100
AcDbText
 73
2
  0
INSERT
  5
L08-OP080
330
17
100
AcDbEntity
  8
0
100
AcDbBlockReference
  2
EOL_TEST_BENCH
 10
750.0
 20
120.0
 30
0.0
  0
TEXT
  5
20F
330
17
100
AcDbEntity
  8
TEXT
100
AcDbText
 10
750.0
 20
102.0
 30
0.0
 40
4.0
  1
L08-OP080
 72
1
 11
750.0
 21
102.0
 31
0.0
100
AcDbText
 73
2
  0
INSERT
  5
L08-OP090
330
17
100
AcDbEntity
  8
0
100
AcDbBlockReference
  2
ROBOT_CELL
 10
840.0
 20
160.0
 30
0.0
  0
TEXT
  5
212
330
17
100
AcDbEntity
  8
TEXT
100
AcDbText
 10
840.0
 20
176.0
 30
0.0
 40
4.0
  1
L08-OP090
 72
1
 11
840.0
 21
176.0
 31
0.0
100
AcDbText
 73
2
  0
INSERT
  5
L08-OP100
330
17
100
AcDbEntity
  8
0
100
AcDbBlockReference
  2
VISION_INSPECTION
 10
930.0
 20
120.0
 30
0.0
  0
TEXT
  5
215
330
17
100
AcDbEntity
  8
TEXT
100
AcDbText
 10
930.0
 20
102.0
 30
0.0
 40
4.0
  1
L08-OP100
 72
1
 11
930.0
 21
102.0
 31
0.0
100
AcDbText
 73
2
  0
INSERT
  5
L08-OP110
330
17
100
AcDbEntity
  8
0
100
AcDbBlockReference
  2
CONVEYOR_BED
 10
1020.0
 20
160.0
 30
0.0
  0
TEXT
  5
218
330
17
100
AcDbEntity
  8
TEXT
100
AcDbText
 10
1020.0
 20
176.0
 30
0.0
 40
4.0
  1
L08-OP110
 72
1
 11
1020.0
 21
176.0
 31
0.0
100
AcDbText
 73
2
  0
INSERT
  5
L08-OP120
330
17
100
AcDbEntity
  8
0
100
AcDbBlockReference
  2
CONVEYOR_BED
 10
1110.0
 20
120.0
 30
0.0
  0
TEXT
  5
21B
330
17
100
AcDbEntity
  8
TEXT
100
AcDbText
 10
1110.0
 20
102.0
 30
0.0
 40
4.0
  1
L08-OP120
 72
1
 11
1110.0
 21
102.0
 31
0.0
100
AcDbText
 73
2
  0
INSERT
  5
L08-OP130
330
17
100
AcDbEntity
  8
0
100
AcDbBlockReference
  2
CONVEYOR_BED
 10
1200.0
 20
160.0
 30
0.0
  0
TEXT
  5
21E
330
17
100
AcDbEntity
  8
TEXT
100
AcDbText
 10
1200.0
 20
176.0
 30
0.0
 40
4.0
  1
L08-OP130
 72
1
 11
1200.0
 21
176.0
 31
0.0
100
AcDbText
 73
2
  0
TEXT
  5
21F
330
17
100
AcDbEntity
  8
TEXT
100
AcDbText
 10
1420.0
 20
240.0
 30
0.0
 40
8.0
  1
WAREHOUSE AISLE A – SPARE PARTS & BULK STORAGE
 11
1420.0
 21
240.0
 31
0.0
100
AcDbText
  0
INSERT
  5
RACK-A-1
330
17
100
AcDbEntity
  8
0
100
AcDbBlockReference
  2
WAREHOUSE_RACK
 10
1500.0
 20
200.0
 30
0.0
  0
INSERT
  5
RACK-A-2
330
17
100
AcDbEntity
  8
0
100
AcDbBlockReference
  2
WAREHOUSE_RACK
 10
1700.0
 20
200.0
 30
0.0
  0
INSERT
  5
RACK-A-3
330
17
100
AcDbEntity
  8
0
100
AcDbBlockReference
  2
WAREHOUSE_RACK
 10
1900.0
 20
200.0
 30
0.0
  0
INSERT
  5
RACK-A-4
330
17
100
AcDbEntity
  8
0
100
AcDbBlockReference
  2
WAREHOUSE_RACK
 10
2100.0
 20
200.0
 30
0.0
  0
TEXT
  5
228
330
17
100
AcDbEntity
  8
TEXT
100
AcDbText
 10
1420.0
 20
440.0
 30
0.0
 40
8.0
  1
WAREHOUSE AISLE B – SPARE PARTS & BULK STORAGE
 11
1420.0
 21
440.0
 31
0.0
100
AcDbText
  0
INSERT
  5
RACK-B-1
330
17
100
AcDbEntity
  8
0
100
AcDbBlockReference
  2
WAREHOUSE_RACK
 10
1500.0
 20
400.0
 30
0.0
  0
INSERT
  5
RACK-B-2
330
17
100
AcDbEntity
  8
0
100
AcDbBlockReference
  2
WAREHOUSE_RACK
 10
1700.0
 20
400.0
 30
0.0
  0
INSERT
  5
RACK-B-3
330
17
100
AcDbEntity
  8
0
100
AcDbBlockReference
  2
WAREHOUSE_RACK
 10
1900.0
 20
400.0
 30
0.0
  0
INSERT
  5
RACK-B-4
330
17
100
AcDbEntity
  8
0
100
AcDbBlockReference
  2
WAREHOUSE_RACK
 10
2100.0
 20
400.0
 30
0.0
  0
TEXT
  5
231
330
17
100
AcDbEntity
  8
TEXT
100
AcDbText
 10
1420.0
 20
640.0
 30
0.0
 40
8.0
  1
WAREHOUSE AISLE C – SPARE PARTS & BULK STORAGE
 11
1420.0
 21
640.0
 31
0.0
100
AcDbText
  0
INSERT
  5
RACK-C-1
330
17
100
AcDbEntity
  8
0
100
AcDbBlockReference
  2
WAREHOUSE_RACK
 10
1500.0
 20
600.0
 30
0.0
  0
INSERT
  5
RACK-C-2
330
17
100
AcDbEntity
  8
0
100
AcDbBlockReference
  2
WAREHOUSE_RACK
 10
1700.0
 20
600.0
 30
0.0
  0
INSERT
  5
RACK-C-3
330
17
100
AcDbEntity
  8
0
100
AcDbBlockReference
  2
WAREHOUSE_RACK
 10
1900.0
 20
600.0
 30
0.0
  0
INSERT
  5
RACK-C-4
330
17
100
AcDbEntity
  8
0
100
AcDbBlockReference
  2
WAREHOUSE_RACK
 10
2100.0
 20
600.0
 30
0.0
  0
TEXT
  5
23A
330
17
100
AcDbEntity
  8
TEXT
100
AcDbText
 10
1420.0
 20
840.0
 30
0.0
 40
8.0
  1
WAREHOUSE AISLE D – SPARE PARTS & BULK STORAGE
 11
1420.0
 21
840.0
 31
0.0
100
AcDbText
  0
INSERT
  5
RACK-D-1
330
17
100
AcDbEntity
  8
0
100
AcDbBlockReference
  2
WAREHOUSE_RACK
 10
1500.0
 20
800.0
 30
0.0
  0
INSERT
  5
RACK-D-2
330
17
100
AcDbEntity
  8
0
100
AcDbBlockReference
  2
WAREHOUSE_RACK
 10
1700.0
 20
800.0
 30
0.0
  0
INSERT
  5
RACK-D-3
330
17
100
AcDbEntity
  8
0
100
AcDbBlockReference
  2
WAREHOUSE_RACK
 10
1900.0
 20
800.0
 30
0.0
  0
INSERT
  5
RACK-D-4
330
17
100
AcDbEntity
  8
0
100
AcDbBlockReference
  2
WAREHOUSE_RACK
 10
2100.0
 20
800.0
 30
0.0
  0
TEXT
  5
243
330
17
100
AcDbEntity
  8
TEXT
100
AcDbText
 10
1420.0
 20
1040.0
 30
0.0
 40
8.0
  1
WAREHOUSE AISLE E – SPARE PARTS & BULK STORAGE
 11
1420.0
 21
1040.0
 31
0.0
100
AcDbText
  0
INSERT
  5
RACK-E-1
330
17
100
AcDbEntity
  8
0
100
AcDbBlockReference
  2
WAREHOUSE_RACK
 10
1500.0
 20
1000.0
 30
0.0
  0
INSERT
  5
RACK-E-2
330
17
100
AcDbEntity
  8
0
100
AcDbBlockReference
  2
WAREHOUSE_RACK
 10
1700.0
 20
1000.0
 30
0.0
  0
INSERT
  5
RACK-E-3
330
17
100
AcDbEntity
  8
0
100
AcDbBlockReference
  2
WAREHOUSE_RACK
 10
1900.0
 20
1000.0
 30
0.0
  0
INSERT
  5
RACK-E-4
330
17
100
AcDbEntity
  8
0
100
AcDbBlockReference
  2
WAREHOUSE_RACK
 10
2100.0
 20
1000.0
 30
0.0
  0
TEXT
  5
24C
330
17
100
AcDbEntity
  8
TEXT
100
AcDbText
 10
1420.0
 20
1240.0
 30
0.0
 40
8.0
  1
WAREHOUSE AISLE F – SPARE PARTS & BULK STORAGE
 11
1420.0
 21
1240.0
 31
0.0
100
AcDbText
  0
INSERT
  5
RACK-F-1
330
17
100
AcDbEntity
  8
0
100
AcDbBlockReference
  2
WAREHOUSE_RACK
 10
1500.0
 20
1200.0
 30
0.0
  0
INSERT
  5
RACK-F-2
330
17
100
AcDbEntity
  8
0
100
AcDbBlockReference
  2
WAREHOUSE_RACK
 10
1700.0
 20
1200.0
 30
0.0
  0
INSERT
  5
RACK-F-3
330
17
100
AcDbEntity
  8
0
100
AcDbBlockReference
  2
WAREHOUSE_RACK
 10
1900.0
 20
1200.0
 30
0.0
  0
INSERT
  5
RACK-F-4
330
17
100
AcDbEntity
  8
0
100
AcDbBlockReference
  2
WAREHOUSE_RACK
 10
2100.0
 20
1200.0
 30
0.0
  0
TEXT
  5
255
330
17
100
AcDbEntity
  8
TEXT
100
AcDbText
 10
1420.0
 20
1440.0
 30
0.0
 40
8.0
  1
WAREHOUSE AISLE G – SPARE PARTS & BULK STORAGE
 11
1420.0
 21
1440.0
 31
0.0
100
AcDbText
  0
INSERT
  5
RACK-G-1
330
17
100
AcDbEntity
  8
0
100
AcDbBlockReference
  2
WAREHOUSE_RACK
 10
1500.0
 20
1400.0
 30
0.0
  0
INSERT
  5
RACK-G-2
330
17
100
AcDbEntity
  8
0
100
AcDbBlockReference
  2
WAREHOUSE_RACK
 10
1700.0
 20
1400.0
 30
0.0
  0
INSERT
  5
RACK-G-3
330
17
100
AcDbEntity
  8
0
100
AcDbBlockReference
  2
WAREHOUSE_RACK
 10
1900.0
 20
1400.0
 30
0.0
  0
INSERT
  5
RACK-G-4
330
17
100
AcDbEntity
  8
0
100
AcDbBlockReference
  2
WAREHOUSE_RACK
 10
2100.0
 20
1400.0
 30
0.0
  0
ENDSEC
  0
SECTION
  2
OBJECTS
  0
DICTIONARY
  5
A
330
0
100
AcDbDictionary
281
1
  3
ACAD_COLOR
350
B
  3
ACAD_GROUP
350
C
  3
ACAD_LAYOUT
350
D
  3
ACAD_MATERIAL
350
E
  3
ACAD_MLEADERSTYLE
350
F
  3
ACAD_MLINESTYLE
350
10
  3
ACAD_PLOTSETTINGS
350
11
  3
ACAD_PLOTSTYLENAME
350
12
  3
ACAD_SCALELIST
350
14
  3
ACAD_TABLESTYLE
350
15
  3
ACAD_VISUALSTYLE
350
16
  3
EZDXF_META
350
2D
  0
DICTIONARY
  5
B
330
A
100
AcDbDictionary
281
1
  0
DICTIONARY
  5
C
330
A
100
AcDbDictionary
281
1
  0
DICTIONARY
  5
D
330
A
100
AcDbDictionary
281
1
  3
Model
350
1A
  3
Layout1
350
1E
  0
DICTIONARY
  5
E
330
A
100
AcDbDictionary
281
1
  3
ByBlock
350
1F
  3
ByLayer
350
20
  3
Global
350
21
  0
DICTIONARY
  5
F
330
A
100
AcDbDictionary
281
1
  3
Standard
350
2C
  0
DICTIONARY
  5
10
330
A
100
AcDbDictionary
281
1
  3
Standard
350
22
  0
DICTIONARY
  5
11
330
A
100
AcDbDictionary
281
1
  0
ACDBDICTIONARYWDFLT
  5
12
330
A
100
AcDbDictionary
281
1
  3
Normal
350
13
100
AcDbDictionaryWithDefault
340
13
  0
ACDBPLACEHOLDER
  5
13
330
12
  0
DICTIONARY
  5
14
330
A
100
AcDbDictionary
281
1
  0
DICTIONARY
  5
15
330
A
100
AcDbDictionary
281
1
  0
DICTIONARY
  5
16
330
A
100
AcDbDictionary
281
1
  0
LAYOUT
  5
1A
330
D
100
AcDbPlotSettings
  1

  4
A3
  6

 40
7.5
 41
20.0
 42
7.5
 43
20.0
 44
420.0
 45
297.0
 46
0.0
 47
0.0
 48
0.0
 49
0.0
140
0.0
141
0.0
142
1.0
143
1.0
 70
1024
 72
1
 73
0
 74
5
  7

 75
16
 76
0
 77
2
 78
300
147
1.0
148
0.0
149
0.0
100
AcDbLayout
  1
Model
 70
1
 71
0
 10
0.0
 20
0.0
 11
420.0
 21
297.0
 12
0.0
 22
0.0
 32
0.0
 14
1e+20
 24
1e+20
 34
1e+20
 15
-1e+20
 25
-1e+20
 35
-1e+20
146
0.0
 13
0.0
 23
0.0
 33
0.0
 16
1.0
 26
0.0
 36
0.0
 17
0.0
 27
1.0
 37
0.0
 76
1
330
17
  0
LAYOUT
  5
1E
330
D
100
AcDbPlotSettings
  1

  4
A3
  6

 40
7.5
 41
20.0
 42
7.5
 43
20.0
 44
420.0
 45
297.0
 46
0.0
 47
0.0
 48
0.0
 49
0.0
140
0.0
141
0.0
142
1.0
143
1.0
 70
0
 72
1
 73
0
 74
5
  7

 75
16
 76
0
 77
2
 78
300
147
1.0
148
0.0
149
0.0
100
AcDbLayout
  1
Layout1
 70
1
 71
1
 10
0.0
 20
0.0
 11
420.0
 21
297.0
 12
0.0
 22
0.0
 32
0.0
 14
1e+20
 24
1e+20
 34
1e+20
 15
-1e+20
 25
-1e+20
 35
-1e+20
146
0.0
 13
0.0
 23
0.0
 33
0.0
 16
1.0
 26
0.0
 36
0.0
 17
0.0
 27
1.0
 37
0.0
 76
1
330
1B
  0
MATERIAL
  5
1F
102
{ACAD_REACTORS
330
E
102
}
330
E
100
AcDbMaterial
  1
ByBlock
  2

 70
0
 40
1.0
 71
1
 41
1.0
 91
-1023410177
 42
1.0
 72
1
  3

 73
1
 74
1
 75
1
 44
0.5
 73
0
 45
1.0
 46
1.0
 77
1
  4

 78
1
 79
1
170
1
 48
1.0
171
1
  6

172
1
173
1
174
1
140
1.0
141
1.0
175
1
  7

176
1
177
1
178
1
143
1.0
179
1
  8

270
1
271
1
272
1
145
1.0
146
1.0
273
1
  9

274
1
275
1
276
1
 42
1.0
 72
1
  3

 73
1
 74
1
 75
1
 94
63
  0
MATERIAL
  5
20
102
{ACAD_REACTORS
330
E
102
}
330
E
100
AcDbMaterial
  1
ByLayer
  2

 70
0
 40
1.0
 71
1
 41
1.0
 91
-1023410177
 42
1.0
 72
1
  3

 73
1
 74
1
 75
1
 44
0.5
 73
0
 45
1.0
 46
1.0
 77
1
  4

 78
1
 79
1
170
1
 48
1.0
171
1
  6

172
1
173
1
174
1
140
1.0
141
1.0
175
1
  7

176
1
177
1
178
1
143
1.0
179
1
  8

270
1
271
1
272
1
145
1.0
146
1.0
273
1
  9

274
1
275
1
276
1
 42
1.0
 72
1
  3

 73
1
 74
1
 75
1
 94
63
  0
MATERIAL
  5
21
102
{ACAD_REACTORS
330
E
102
}
330
E
100
AcDbMaterial
  1
Global
  2

 70
0
 40
1.0
 71
1
 41
1.0
 91
-1023410177
 42
1.0
 72
1
  3

 73
1
 74
1
 75
1
 44
0.5
 73
0
 45
1.0
 46
1.0
 77
1
  4

 78
1
 79
1
170
1
 48
1.0
171
1
  6

172
1
173
1
174
1
140
1.0
141
1.0
175
1
  7

176
1
177
1
178
1
143
1.0
179
1
  8

270
1
271
1
272
1
145
1.0
146
1.0
273
1
  9

274
1
275
1
276
1
 42
1.0
 72
1
  3

 73
1
 74
1
 75
1
 94
63
  0
MLINESTYLE
  5
22
102
{ACAD_REACTORS
330
10
102
}
330
10
100
AcDbMlineStyle
  2
Standard
 70
0
  3

 62
256
 51
90.0
 52
90.0
 71
2
 49
0.5
 62
256
  6
BYLAYER
 49
-0.5
 62
256
  6
BYLAYER
  0
MLEADERSTYLE
  5
2C
102
{ACAD_REACTORS
330
F
102
}
330
F
100
AcDbMLeaderStyle
179
2
170
2
171
1
172
0
 90
2
 40
0.0
 41
0.0
173
1
 91
-1056964608
 92
-2
290
1
 42
2.0
291
1
 43
8.0
  3
Standard
 44
4.0
300

342
29
174
1
175
1
176
0
178
1
 93
-1056964608
 45
4.0
292
0
297
0
 46
4.0
 94
-1056964608
 47
1.0
 49
1.0
140
1.0
294
1
141
0.0
177
0
142
1.0
295
0
296
0
143
3.75
271
0
272
9
273
9
  0
DICTIONARY
  5
2D
330
A
100
AcDbDictionary
280
1
281
1
  3
CREATED_BY_EZDXF
350
2E
  3
WRITTEN_BY_EZDXF
350
260
  0
DICTIONARYVAR
  5
2E
330
2D
100
DictionaryVariables
280
0
  1
1.4.3 @ 2026-09-12T16:06:41.523665+00:00
  0
DICTIONARYVAR
  5
260
330
2D
100
DictionaryVariables
280
0
  1
1.4.3 @ 2026-09-12T16:06:41.545000+00:00
  0
ENDSEC
  0
EOF
