  0
SECTION
  2
HEADER
  9
$ACADVER
  1
AC1024
  9
$ACADMAINTVER
 70
6
  9
$DWGCODEPAGE
  3
ANSI_1252
  9
$LASTSAVEDBY
  1
ezdxf
  9
$INSBASE
 10
0.0
 20
0.0
 30
0.0
  9
$EXTMIN
 10
1e+20
 20
1e+20
 30
1e+20
  9
$EXTMAX
 10
-1e+20
 20
-1e+20
 30
-1e+20
  9
$LIMMIN
 10
0.0
 20
0.0
  9
$LIMMAX
 10
420.0
 20
297.0
  9
$ORTHOMODE
 70
0
  9
$REGENMODE
 70
1
  9
$FILLMODE
 70
1
  9
$QTEXTMODE
 70
0
  9
$MIRRTEXT
 70
1
  9
$LTSCALE
 40
1.0
  9
$ATTMODE
 70
1
  9
$TEXTSIZE
 40
2.5
  9
$TRACEWID
 40
1.0
  9
$TEXTSTYLE
  7
Standard
  9
$CLAYER
  8
0
  9
$CELTYPE
  6
ByLayer
  9
$CECOLOR
 62
256
  9
$CELTSCALE
 40
1.0
  9
$DISPSILH
 70
0
  9
$DIMSCALE
 40
1.0
  9
$DIMASZ
 40
2.5
  9
$DIMEXO
 40
0.625
  9
$DIMDLI
 40
3.75
  9
$DIMRND
 40
0.0
  9
$DIMDLE
 40
0.0
  9
$DIMEXE
 40
1.25
  9
$DIMTP
 40
0.0
  9
$DIMTM
 40
0.0
  9
$DIMTXT
 40
2.5
  9
$DIMCEN
 40
2.5
  9
$DIMTSZ
 40
0.0
  9
$DIMTOL
 70
0
  9
$DIMLIM
 70
0
  9
$DIMTIH
 70
0
  9
$DIMTOH
 70
0
  9
$DIMSE1
 70
0
  9
$DIMSE2
 70
0
  9
$DIMTAD
 70
1
  9
$DIMZIN
 70
8
  9
$DIMBLK
  1

  9
$DIMASO
 70
1
  9
$DIMSHO
 70
1
  9
$DIMPOST
  1

  9
$DIMAPOST
  1

  9
$DIMALT
 70
0
  9
$DIMALTD
 70
3
  9
$DIMALTF
 40
0.03937007874
  9
$DIMLFAC
 40
1.0
  9
$DIMTOFL
 70
1
  9
$DIMTVP
 40
0.0
  9
$DIMTIX
 70
0
  9
$DIMSOXD
 70
0
  9
$DIMSAH
 70
0
  9
$DIMBLK1
  1

  9
$DIMBLK2
  1

  9
$DIMSTYLE
  2
ISO-25
  9
$DIMCLRD
 70
0
  9
$DIMCLRE
 70
0
  9
$DIMCLRT
 70
0
  9
$DIMTFAC
 40
1.0
  9
$DIMGAP
 40
0.625
  9
$DIMJUST
 70
0
  9
$DIMSD1
 70
0
  9
$DIMSD2
 70
0
  9
$DIMTOLJ
 70
0
  9
$DIMTZIN
 70
8
  9
$DIMALTZ
 70
0
  9
$DIMALTTZ
 70
0
  9
$DIMUPT
 70
0
  9
$DIMDEC
 70
2
  9
$DIMTDEC
 70
2
  9
$DIMALTU
 70
2
  9
$DIMALTTD
 70
3
  9
$DIMTXSTY
  7
Standard
  9
$DIMAUNIT
 70
0
  9
$DIMADEC
 70
0
  9
$DIMALTRND
 40
0.0
  9
$DIMAZIN
 70
0
  9
$DIMDSEP
 70
44
  9
$DIMATFIT
 70
3
  9
$DIMFRAC
 70
0
  9
$DIMLDRBLK
  1

  9
$DIMLUNIT
 70
2
  9
$DIMLWD
 70
-2
  9
$DIMLWE
 70
-2
  9
$DIMTMOVE
 70
0
  9
$DIMFXL
 40
1.0
  9
$DIMFXLON
 70
0
  9
$DIMJOGANG
 40
0.785398163397
  9
$DIMTFILL
 70
0
  9
$DIMTFILLCLR
 70
0
  9
$DIMARCSYM
 70
0
  9
$DIMLTYPE
  6

  9
$DIMLTEX1
  6

  9
$DIMLTEX2
  6

  9
$DIMTXTDIRECTION
 70
0
  9
$LUNITS
 70
2
  9
$LUPREC
 70
4
  9
$SKETCHINC
 40
1.0
  9
$FILLETRAD
 40
10.0
  9
$AUNITS
 70
0
  9
$AUPREC
 70
2
  9
$MENU
  1
.
  9
$ELEVATION
 40
0.0
  9
$PELEVATION
 40
0.0
  9
$THICKNESS
 40
0.0
  9
$LIMCHECK
 70
0
  9
$CHAMFERA
 40
0.0
  9
$CHAMFERB
 40
0.0
  9
$CHAMFERC
 40
0.0
  9
$CHAMFERD
 40
0.0
  9
$SKPOLY
 70
0
  9
$TDCREATE
 40
2461170.9069791664
  9
$TDUCREATE
 40
2458532.153996898
  9
$TDUPDATE
 40
2461170.9069791664
  9
$TDUUPDATE
 40
2458532.1544311
  9
$TDINDWG
 40
0.0
  9
$TDUSRTIMER
 40
0.0
  9
$USRTIMER
 70
1
  9
$ANGBASE
 50
0.0
  9
$ANGDIR
 70
0
  9
$PDMODE
 70
0
  9
$PDSIZE
 40
0.0
  9
$PLINEWID
 40
0.0
  9
$SPLFRAME
 70
0
  9
$SPLINETYPE
 70
6
  9
$SPLINESEGS
 70
8
  9
$HANDSEED
  5
19E
  9
$SURFTAB1
 70
6
  9
$SURFTAB2
 70
6
  9
$SURFTYPE
 70
6
  9
$SURFU
 70
6
  9
$SURFV
 70
6
  9
$UCSBASE
  2

  9
$UCSNAME
  2

  9
$UCSORG
 10
0.0
 20
0.0
 30
0.0
  9
$UCSXDIR
 10
1.0
 20
0.0
 30
0.0
  9
$UCSYDIR
 10
0.0
 20
1.0
 30
0.0
  9
$UCSORTHOREF
  2

  9
$UCSORTHOVIEW
 70
0
  9
$UCSORGTOP
 10
0.0
 20
0.0
 30
0.0
  9
$UCSORGBOTTOM
 10
0.0
 20
0.0
 30
0.0
  9
$UCSORGLEFT
 10
0.0
 20
0.0
 30
0.0
  9
$UCSORGRIGHT
 10
0.0
 20
0.0
 30
0.0
  9
$UCSORGFRONT
 10
0.0
 20
0.0
 30
0.0
  9
$UCSORGBACK
 10
0.0
 20
0.0
 30
0.0
  9
$PUCSBASE
  2

  9
$PUCSNAME
  2

  9
$PUCSORG
 10
0.0
 20
0.0
 30
0.0
  9
$PUCSXDIR
 10
1.0
 20
0.0
 30
0.0
  9
$PUCSYDIR
 10
0.0
 20
1.0
 30
0.0
  9
$PUCSORTHOREF
  2

  9
$PUCSORTHOVIEW
 70
0
  9
$PUCSORGTOP
 10
0.0
 20
0.0
 30
0.0
  9
$PUCSORGBOTTOM
 10
0.0
 20
0.0
 30
0.0
  9
$PUCSORGLEFT
 10
0.0
 20
0.0
 30
0.0
  9
$PUCSORGRIGHT
 10
0.0
 20
0.0
 30
0.0
  9
$PUCSORGFRONT
 10
0.0
 20
0.0
 30
0.0
  9
$PUCSORGBACK
 10
0.0
 20
0.0
 30
0.0
  9
$USERI1
 70
0
  9
$USERI2
 70
0
  9
$USERI3
 70
0
  9
$USERI4
 70
0
  9
$USERI5
 70
0
  9
$USERR1
 40
0.0
  9
$USERR2
 40
0.0
  9
$USERR3
 40
0.0
  9
$USERR4
 40
0.0
  9
$USERR5
 40
0.0
  9
$WORLDVIEW
 70
1
  9
$SHADEDGE
 70
3
  9
$SHADEDIF
 70
70
  9
$TILEMODE
 70
1
  9
$MAXACTVP
 70
64
  9
$PINSBASE
 10
0.0
 20
0.0
 30
0.0
  9
$PLIMCHECK
 70
0
  9
$PEXTMIN
 10
1e+20
 20
1e+20
 30
1e+20
  9
$PEXTMAX
 10
-1e+20
 20
-1e+20
 30
-1e+20
  9
$PLIMMIN
 10
0.0
 20
0.0
  9
$PLIMMAX
 10
420.0
 20
297.0
  9
$UNITMODE
 70
0
  9
$VISRETAIN
 70
1
  9
$PLINEGEN
 70
0
  9
$PSLTSCALE
 70
1
  9
$TREEDEPTH
 70
3020
  9
$CMLSTYLE
  2
Standard
  9
$CMLJUST
 70
0
  9
$CMLSCALE
 40
20.0
  9
$PROXYGRAPHICS
 70
1
  9
$MEASUREMENT
 70
1
  9
$CELWEIGHT
370
-1
  9
$ENDCAPS
280
0
  9
$JOINSTYLE
280
0
  9
$LWDISPLAY
290
0
  9
$INSUNITS
 70
6
  9
$HYPERLINKBASE
  1

  9
$STYLESHEET
  1

  9
$XEDIT
290
1
  9
$CEPSNTYPE
380
0
  9
$PSTYLEMODE
290
1
  9
$FINGERPRINTGUID
  2
{9DA71634-5587-4D38-B97D-99543C2AE1C6}
  9
$VERSIONGUID
  2
{4F754701-BD9E-4EF0-92DE-0E620C60E33B}
  9
$EXTNAMES
290
1
  9
$PSVPSCALE
 40
0.0
  9
$OLESTARTUP
290
0
  9
$SORTENTS
280
127
  9
$INDEXCTL
280
0
  9
$HIDETEXT
280
1
  9
$XCLIPFRAME
280
1
  9
$HALOGAP
280
0
  9
$OBSCOLOR
 70
257
  9
$OBSLTYPE
280
0
  9
$INTERSECTIONDISPLAY
280
0
  9
$INTERSECTIONCOLOR
 70
257
  9
$DIMASSOC
280
2
  9
$PROJECTNAME
  1

  9
$CAMERADISPLAY
290
0
  9
$LENSLENGTH
 40
50.0
  9
$CAMERAHEIGHT
 40
0.0
  9
$STEPSPERSEC
 40
24.0
  9
$STEPSIZE
 40
100.0
  9
$3DDWFPREC
 40
2.0
  9
$PSOLWIDTH
 40
0.005
  9
$PSOLHEIGHT
 40
0.08
  9
$LOFTANG1
 40
1.570796326795
  9
$LOFTANG2
 40
1.570796326795
  9
$LOFTMAG1
 40
0.0
  9
$LOFTMAG2
 40
0.0
  9
$LOFTPARAM
 70
7
  9
$LOFTNORMALS
280
1
  9
$LATITUDE
 40
37.795
  9
$LONGITUDE
 40
-122.394
  9
$NORTHDIRECTION
 40
0.0
  9
$TIMEZONE
 70
-8000
  9
$LIGHTGLYPHDISPLAY
280
1
  9
$TILEMODELIGHTSYNCH
280
1
  9
$CMATERIAL
347
20
  9
$SOLIDHIST
280
0
  9
$SHOWHIST
280
1
  9
$DWFFRAME
280
2
  9
$DGNFRAME
280
2
  9
$REALWORLDSCALE
290
1
  9
$INTERFERECOLOR
 62
256
  9
$CSHADOW
280
0
  9
$SHADOWPLANELOCATION
 40
0.0
  0
ENDSEC
  0
SECTION
  2
CLASSES
  0
CLASS
  1
ACDBDICTIONARYWDFLT
  2
AcDbDictionaryWithDefault
  3
ObjectDBX Classes
 90
0
 91
0
280
0
281
0
  0
CLASS
  1
SUN
  2
AcDbSun
  3
SCENEOE
 90
1153
 91
0
280
0
281
0
  0
CLASS
  1
VISUALSTYLE
  2
AcDbVisualStyle
  3
ObjectDBX Classes
 90
4095
 91
0
280
0
281
0
  0
CLASS
  1
MATERIAL
  2
AcDbMaterial
  3
ObjectDBX Classes
 90
1153
 91
0
280
0
281
0
  0
CLASS
  1
SCALE
  2
AcDbScale
  3
ObjectDBX Classes
 90
1153
 91
0
280
0
281
0
  0
CLASS
  1
TABLESTYLE
  2
AcDbTableStyle
  3
ObjectDBX Classes
 90
4095
 91
0
280
0
281
0
  0
CLASS
  1
MLEADERSTYLE
  2
AcDbMLeaderStyle
  3
ACDB_MLEADERSTYLE_CLASS
 90
4095
 91
0
280
0
281
0
  0
CLASS
  1
DICTIONARYVAR
  2
AcDbDictionaryVar
  3
ObjectDBX Classes
 90
0
 91
0
280
0
281
0
  0
CLASS
  1
CELLSTYLEMAP
  2
AcDbCellStyleMap
  3
ObjectDBX Classes
 90
1152
 91
0
280
0
281
0
  0
CLASS
  1
MENTALRAYRENDERSETTINGS
  2
AcDbMentalRayRenderSettings
  3
SCENEOE
 90
1024
 91
0
280
0
281
0
  0
CLASS
  1
ACDBDETAILVIEWSTYLE
  2
AcDbDetailViewStyle
  3
ObjectDBX Classes
 90
1025
 91
0
280
0
281
0
  0
CLASS
  1
ACDBSECTIONVIEWSTYLE
  2
AcDbSectionViewStyle
  3
ObjectDBX Classes
 90
1025
 91
0
280
0
281
0
  0
CLASS
  1
RASTERVARIABLES
  2
AcDbRasterVariables
  3
ISM
 90
0
 91
0
280
0
281
0
  0
CLASS
  1
LAYOUT
  2
AcDbLayout
  3
ObjectDBX Classes
 90
0
 91
0
280
0
281
0
  0
CLASS
  1
ACDBPLACEHOLDER
  2
AcDbPlaceHolder
  3
ObjectDBX Classes
 90
0
 91
0
280
0
281
0
  0
ENDSEC
  0
SECTION
  2
TABLES
  0
TABLE
  2
VPORT
  5
8
330
0
100
AcDbSymbolTable
 70
1
  0
VPORT
  5
23
330
8
100
AcDbSymbolTableRecord
100
AcDbViewportTableRecord
  2
*Active
 70
0
 10
0.0
 20
0.0
 11
1.0
 21
1.0
 12
0.0
 22
0.0
 13
0.0
 23
0.0
 14
0.5
 24
0.5
 15
0.5
 25
0.5
 16
0.0
 26
0.0
 36
1.0
 17
0.0
 27
0.0
 37
0.0
 40
1000.0
 41
1.34
 42
50.0
 43
0.0
 44
0.0
 50
0.0
 51
0.0
 71
0
 72
1000
 73
1
 74
3
 75
0
 76
0
 77
0
 78
0
281
0
 65
0
146
0.0
  0
ENDTAB
  0
TABLE
  2
LTYPE
  5
2
330
0
100
AcDbSymbolTable
 70
3
  0
LTYPE
  5
24
330
2
100
AcDbSymbolTableRecord
100
AcDbLinetypeTableRecord
  2
ByBlock
 70
0
  3

 72
65
 73
0
 40
0.0
  0
LTYPE
  5
25
330
2
100
AcDbSymbolTableRecord
100
AcDbLinetypeTableRecord
  2
ByLayer
 70
0
  3

 72
65
 73
0
 40
0.0
  0
LTYPE
  5
26
330
2
100
AcDbSymbolTableRecord
100
AcDbLinetypeTableRecord
  2
Continuous
 70
0
  3

 72
65
 73
0
 40
0.0
  0
ENDTAB
  0
TABLE
  2
LAYER
  5
1
330
0
100
AcDbSymbolTable
 70
9
  0
LAYER
  5
27
330
1
100
AcDbSymbolTableRecord
100
AcDbLayerTableRecord
  2
0
 70
0
 62
7
  6
Continuous
370
-3
390
13
347
21
  0
LAYER
  5
28
330
1
100
AcDbSymbolTableRecord
100
AcDbLayerTableRecord
  2
Defpoints
 70
0
 62
7
  6
Continuous
290
0
370
-3
390
13
347
21
  0
LAYER
  5
2F
330
1
100
AcDbSymbolTableRecord
100
AcDbLayerTableRecord
  2
BUILDING
 70
0
 62
4
  6
Continuous
370
-3
390
13
347
21
  0
LAYER
  5
30
330
1
100
AcDbSymbolTableRecord
100
AcDbLayerTableRecord
  2
STATIONS
 70
0
 62
3
  6
Continuous
370
-3
390
13
347
21
  0
LAYER
  5
31
330
1
100
AcDbSymbolTableRecord
100
AcDbLayerTableRecord
  2
SAFETY
 70
0
 62
2
  6
DASHED
370
-3
390
13
347
21
  0
LAYER
  5
32
330
1
100
AcDbSymbolTableRecord
100
AcDbLayerTableRecord
  2
CONVEYORS
 70
0
 62
4
  6
Continuous
370
-3
390
13
347
21
  0
LAYER
  5
33
330
1
100
AcDbSymbolTableRecord
100
AcDbLayerTableRecord
  2
WALKWAYS
 70
0
 62
8
  6
Continuous
370
-3
390
13
347
21
  0
LAYER
  5
34
330
1
100
AcDbSymbolTableRecord
100
AcDbLayerTableRecord
  2
TEXT
 70
0
 62
7
  6
Continuous
370
-3
390
13
347
21
  0
LAYER
  5
35
330
1
100
AcDbSymbolTableRecord
100
AcDbLayerTableRecord
  2
FLOOR
 70
0
 62
8
  6
Continuous
370
-3
390
13
347
21
  0
ENDTAB
  0
TABLE
  2
STYLE
  5
5
330
0
100
AcDbSymbolTable
 70
1
  0
STYLE
  5
29
330
5
100
AcDbSymbolTableRecord
100
AcDbTextStyleTableRecord
  2
Standard
 70
0
 40
0.0
 41
1.0
 50
0.0
 71
0
 42
2.5
  3
txt
  4

  0
ENDTAB
  0
TABLE
  2
VIEW
  5
7
330
0
100
AcDbSymbolTable
 70
0
  0
ENDTAB
  0
TABLE
  2
UCS
  5
6
330
0
100
AcDbSymbolTable
 70
0
  0
ENDTAB
  0
TABLE
  2
APPID
  5
3
330
0
100
AcDbSymbolTable
 70
3
  0
APPID
  5
2A
330
3
100
AcDbSymbolTableRecord
100
AcDbRegAppTableRecord
  2
ACAD
 70
0
  0
APPID
  5
19B
330
3
100
AcDbSymbolTableRecord
100
AcDbRegAppTableRecord
  2
HATCHBACKGROUNDCOLOR
 70
0
  0
APPID
  5
19C
330
3
100
AcDbSymbolTableRecord
100
AcDbRegAppTableRecord
  2
EZDXF
 70
0
  0
ENDTAB
  0
TABLE
  2
DIMSTYLE
  5
4
330
0
100
AcDbSymbolTable
 70
1
100
AcDbDimStyleTable
  0
DIMSTYLE
105
2B
330
4
100
AcDbSymbolTableRecord
100
AcDbDimStyleTableRecord
  2
Standard
 70
0
 40
1.0
 41
2.5
 42
0.625
 43
3.75
 44
1.25
 45
0.0
 46
0.0
 47
0.0
 48
0.0
 49
2.5
140
2.5
141
2.5
142
0.0
143
0.03937007874
144
1.0
145
0.0
146
1.0
147
0.625
148
0.0
 69
0
 70
0
 71
0
 72
0
 73
0
 74
0
 75
0
 76
0
 77
1
 78
8
 79
3
170
0
171
3
172
1
173
0
174
0
175
0
176
0
177
0
178
0
179
2
271
2
272
2
273
2
274
3
275
0
276
0
277
2
278
44
279
0
280
0
281
0
282
0
283
0
284
8
285
0
286
0
288
0
289
3
290
0
371
-2
372
-2
  0
ENDTAB
  0
TABLE
  2
BLOCK_RECORD
  5
9
330
0
100
AcDbSymbolTable
 70
9
  0
BLOCK_RECORD
  5
17
330
9
100
AcDbSymbolTableRecord
100
AcDbBlockTableRecord
  2
*Model_Space
340
1A
 70
0
280
1
281
0
  0
BLOCK_RECORD
  5
1B
330
9
100
AcDbSymbolTableRecord
100
AcDbBlockTableRecord
  2
*Paper_Space
340
1E
 70
0
280
1
281
0
  0
BLOCK_RECORD
  5
36
330
9
100
AcDbSymbolTableRecord
100
AcDbBlockTableRecord
  2
TYPE_MECHANICAL
340
0
 70
0
280
1
281
0
  0
BLOCK_RECORD
  5
3E
330
9
100
AcDbSymbolTableRecord
100
AcDbBlockTableRecord
  2
TYPE_SCREWING
340
0
 70
0
280
1
281
0
  0
BLOCK_RECORD
  5
45
330
9
100
AcDbSymbolTableRecord
100
AcDbBlockTableRecord
  2
TYPE_VISION
340
0
 70
0
280
1
281
0
  0
BLOCK_RECORD
  5
4E
330
9
100
AcDbSymbolTableRecord
100
AcDbBlockTableRecord
  2
TYPE_TEST
340
0
 70
0
280
1
281
0
  0
BLOCK_RECORD
  5
55
330
9
100
AcDbSymbolTableRecord
100
AcDbBlockTableRecord
  2
TYPE_DISPENSING
340
0
 70
0
280
1
281
0
  0
BLOCK_RECORD
  5
5C
330
9
100
AcDbSymbolTableRecord
100
AcDbBlockTableRecord
  2
TYPE_WELDING
340
0
 70
0
280
1
281
0
  0
BLOCK_RECORD
  5
63
330
9
100
AcDbSymbolTableRecord
100
AcDbBlockTableRecord
  2
TYPE_PACKAGING
340
0
 70
0
280
1
281
0
  0
ENDTAB
  0
ENDSEC
  0
SECTION
  2
BLOCKS
  0
BLOCK
  5
18
330
17
100
AcDbEntity
  8
0
100
AcDbBlockBegin
  2
*Model_Space
 70
0
 10
0.0
 20
0.0
 30
0.0
  3
*Model_Space
  1

  0
ENDBLK
  5
19
330
17
100
AcDbEntity
  8
0
100
AcDbBlockEnd
  0
BLOCK
  5
1C
330
1B
100
AcDbEntity
  8
0
100
AcDbBlockBegin
  2
*Paper_Space
 70
0
 10
0.0
 20
0.0
 30
0.0
  3
*Paper_Space
  1

  0
ENDBLK
  5
1D
330
1B
100
AcDbEntity
  8
0
100
AcDbBlockEnd
  0
BLOCK
  5
37
330
36
100
AcDbEntity
  8
0
100
AcDbBlockBegin
  2
TYPE_MECHANICAL
 70
0
 10
0.0
 20
0.0
 30
0.0
  3
TYPE_MECHANICAL
  1

  0
LWPOLYLINE
  5
39
330
36
100
AcDbEntity
  8
SAFETY
  6
DASHED
 62
2
100
AcDbPolyline
 90
5
 70
1
 10
-1.0
 20
-1.0
 10
13.0
 20
-1.0
 10
13.0
 20
11.0
 10
-1.0
 20
11.0
 10
-1.0
 20
-1.0
  0
LWPOLYLINE
  5
3A
330
36
100
AcDbEntity
  8
STATIONS
 62
4
100
AcDbPolyline
 90
5
 70
1
 10
0.0
 20
0.0
 10
12.0
 20
0.0
 10
12.0
 20
10.0
 10
0.0
 20
10.0
 10
0.0
 20
0.0
  0
LWPOLYLINE
  5
3B
330
36
100
AcDbEntity
  8
STATIONS
 62
8
100
AcDbPolyline
 90
5
 70
1
 10
2.0
 20
2.0
 10
10.0
 20
2.0
 10
10.0
 20
8.0
 10
2.0
 20
8.0
 10
2.0
 20
2.0
  0
LINE
  5
3C
330
36
100
AcDbEntity
  8
STATIONS
 62
8
100
AcDbLine
 10
0.0
 20
0.0
 30
0.0
 11
12.0
 21
10.0
 31
0.0
  0
LINE
  5
3D
330
36
100
AcDbEntity
  8
STATIONS
 62
8
100
AcDbLine
 10
0.0
 20
10.0
 30
0.0
 11
12.0
 21
0.0
 31
0.0
  0
ENDBLK
  5
38
330
36
100
AcDbEntity
  8
0
100
AcDbBlockEnd
  0
BLOCK
  5
3F
330
3E
100
AcDbEntity
  8
0
100
AcDbBlockBegin
  2
TYPE_SCREWING
 70
0
 10
0.0
 20
0.0
 30
0.0
  3
TYPE_SCREWING
  1

  0
LWPOLYLINE
  5
41
330
3E
100
AcDbEntity
  8
SAFETY
  6
DASHED
 62
2
100
AcDbPolyline
 90
5
 70
1
 10
-1.0
 20
-1.0
 10
13.0
 20
-1.0
 10
13.0
 20
11.0
 10
-1.0
 20
11.0
 10
-1.0
 20
-1.0
  0
LWPOLYLINE
  5
42
330
3E
100
AcDbEntity
  8
STATIONS
 62
3
100
AcDbPolyline
 90
5
 70
1
 10
0.0
 20
0.0
 10
12.0
 20
0.0
 10
12.0
 20
10.0
 10
0.0
 20
10.0
 10
0.0
 20
0.0
  0
LWPOLYLINE
  5
43
330
3E
100
AcDbEntity
  8
STATIONS
 62
7
100
AcDbPolyline
 90
3
 70
0
 10
6.0
 20
10.0
 10
6.0
 20
6.0
 10
9.0
 20
6.0
  0
CIRCLE
  5
44
330
3E
100
AcDbEntity
  8
STATIONS
 62
2
100
AcDbCircle
 10
9.0
 20
6.0
 30
0.0
 40
1.0
  0
ENDBLK
  5
40
330
3E
100
AcDbEntity
  8
0
100
AcDbBlockEnd
  0
BLOCK
  5
46
330
45
100
AcDbEntity
  8
0
100
AcDbBlockBegin
  2
TYPE_VISION
 70
0
 10
0.0
 20
0.0
 30
0.0
  3
TYPE_VISION
  1

  0
LWPOLYLINE
  5
48
330
45
100
AcDbEntity
  8
SAFETY
  6
DASHED
 62
2
100
AcDbPolyline
 90
5
 70
1
 10
-1.0
 20
-1.0
 10
13.0
 20
-1.0
 10
13.0
 20
11.0
 10
-1.0
 20
11.0
 10
-1.0
 20
-1.0
  0
LWPOLYLINE
  5
49
330
45
100
AcDbEntity
  8
STATIONS
 62
6
100
AcDbPolyline
 90
5
 70
1
 10
0.0
 20
0.0
 10
12.0
 20
0.0
 10
12.0
 20
10.0
 10
0.0
 20
10.0
 10
0.0
 20
0.0
  0
CIRCLE
  5
4A
330
45
100
AcDbEntity
  8
STATIONS
 62
7
100
AcDbCircle
 10
6.0
 20
5.0
 30
0.0
 40
2.0
  0
CIRCLE
  5
4B
330
45
100
AcDbEntity
  8
STATIONS
 62
4
100
AcDbCircle
 10
6.0
 20
5.0
 30
0.0
 40
0.5
  0
LINE
  5
4C
330
45
100
AcDbEntity
  8
STATIONS
 62
2
100
AcDbLine
 10
2.0
 20
1.0
 30
0.0
 11
10.0
 21
1.0
 31
0.0
  0
LINE
  5
4D
330
45
100
AcDbEntity
  8
STATIONS
 62
2
100
AcDbLine
 10
2.0
 20
9.0
 30
0.0
 11
10.0
 21
9.0
 31
0.0
  0
ENDBLK
  5
47
330
45
100
AcDbEntity
  8
0
100
AcDbBlockEnd
  0
BLOCK
  5
4F
330
4E
100
AcDbEntity
  8
0
100
AcDbBlockBegin
  2
TYPE_TEST
 70
0
 10
0.0
 20
0.0
 30
0.0
  3
TYPE_TEST
  1

  0
LWPOLYLINE
  5
51
330
4E
100
AcDbEntity
  8
SAFETY
  6
DASHED
 62
2
100
AcDbPolyline
 90
5
 70
1
 10
-1.0
 20
-1.0
 10
13.0
 20
-1.0
 10
13.0
 20
11.0
 10
-1.0
 20
11.0
 10
-1.0
 20
-1.0
  0
LWPOLYLINE
  5
52
330
4E
100
AcDbEntity
  8
STATIONS
 62
1
100
AcDbPolyline
 90
5
 70
1
 10
0.0
 20
0.0
 10
12.0
 20
0.0
 10
12.0
 20
10.0
 10
0.0
 20
10.0
 10
0.0
 20
0.0
  0
LWPOLYLINE
  5
53
330
4E
100
AcDbEntity
  8
STATIONS
 62
7
100
AcDbPolyline
 90
5
 70
1
 10
3.0
 20
3.0
 10
9.0
 20
3.0
 10
9.0
 20
7.0
 10
3.0
 20
7.0
 10
3.0
 20
3.0
  0
LINE
  5
54
330
4E
100
AcDbEntity
  8
STATIONS
 62
3
100
AcDbLine
 10
4.0
 20
4.0
 30
0.0
 11
8.0
 21
6.0
 31
0.0
  0
ENDBLK
  5
50
330
4E
100
AcDbEntity
  8
0
100
AcDbBlockEnd
  0
BLOCK
  5
56
330
55
100
AcDbEntity
  8
0
100
AcDbBlockBegin
  2
TYPE_DISPENSING
 70
0
 10
0.0
 20
0.0
 30
0.0
  3
TYPE_DISPENSING
  1

  0
LWPOLYLINE
  5
58
330
55
100
AcDbEntity
  8
SAFETY
  6
DASHED
 62
2
100
AcDbPolyline
 90
5
 70
1
 10
-1.0
 20
-1.0
 10
13.0
 20
-1.0
 10
13.0
 20
11.0
 10
-1.0
 20
11.0
 10
-1.0
 20
-1.0
  0
LWPOLYLINE
  5
59
330
55
100
AcDbEntity
  8
STATIONS
 62
5
100
AcDbPolyline
 90
5
 70
1
 10
0.0
 20
0.0
 10
12.0
 20
0.0
 10
12.0
 20
10.0
 10
0.0
 20
10.0
 10
0.0
 20
0.0
  0
CIRCLE
  5
5A
330
55
100
AcDbEntity
  8
STATIONS
 62
7
100
AcDbCircle
 10
3.0
 20
5.0
 30
0.0
 40
2.0
  0
LWPOLYLINE
  5
5B
330
55
100
AcDbEntity
  8
STATIONS
 62
7
100
AcDbPolyline
 90
3
 70
0
 10
5.0
 20
5.0
 10
10.0
 20
5.0
 10
10.0
 20
3.0
  0
ENDBLK
  5
57
330
55
100
AcDbEntity
  8
0
100
AcDbBlockEnd
  0
BLOCK
  5
5D
330
5C
100
AcDbEntity
  8
0
100
AcDbBlockBegin
  2
TYPE_WELDING
 70
0
 10
0.0
 20
0.0
 30
0.0
  3
TYPE_WELDING
  1

  0
LWPOLYLINE
  5
5F
330
5C
100
AcDbEntity
  8
SAFETY
  6
DASHED
 62
2
100
AcDbPolyline
 90
5
 70
1
 10
-1.0
 20
-1.0
 10
13.0
 20
-1.0
 10
13.0
 20
11.0
 10
-1.0
 20
11.0
 10
-1.0
 20
-1.0
  0
LWPOLYLINE
  5
60
330
5C
100
AcDbEntity
  8
STATIONS
 62
2
100
AcDbPolyline
 90
5
 70
1
 10
0.0
 20
0.0
 10
12.0
 20
0.0
 10
12.0
 20
10.0
 10
0.0
 20
10.0
 10
0.0
 20
0.0
  0
LWPOLYLINE
  5
61
330
5C
100
AcDbEntity
  8
STATIONS
 62
7
100
AcDbPolyline
 90
3
 70
0
 10
2.0
 20
2.0
 10
6.0
 20
5.0
 10
10.0
 20
8.0
  0
CIRCLE
  5
62
330
5C
100
AcDbEntity
  8
STATIONS
 62
1
100
AcDbCircle
 10
10.0
 20
8.0
 30
0.0
 40
0.5
  0
ENDBLK
  5
5E
330
5C
100
AcDbEntity
  8
0
100
AcDbBlockEnd
  0
BLOCK
  5
64
330
63
100
AcDbEntity
  8
0
100
AcDbBlockBegin
  2
TYPE_PACKAGING
 70
0
 10
0.0
 20
0.0
 30
0.0
  3
TYPE_PACKAGING
  1

  0
LWPOLYLINE
  5
66
330
63
100
AcDbEntity
  8
SAFETY
  6
DASHED
 62
2
100
AcDbPolyline
 90
5
 70
1
 10
-1.0
 20
-1.0
 10
13.0
 20
-1.0
 10
13.0
 20
11.0
 10
-1.0
 20
11.0
 10
-1.0
 20
-1.0
  0
LWPOLYLINE
  5
67
330
63
100
AcDbEntity
  8
STATIONS
 62
40
100
AcDbPolyline
 90
5
 70
1
 10
0.0
 20
0.0
 10
12.0
 20
0.0
 10
12.0
 20
10.0
 10
0.0
 20
10.0
 10
0.0
 20
0.0
  0
LWPOLYLINE
  5
68
330
63
100
AcDbEntity
  8
STATIONS
 62
7
100
AcDbPolyline
 90
5
 70
1
 10
4.0
 20
4.0
 10
8.0
 20
4.0
 10
8.0
 20
8.0
 10
4.0
 20
8.0
 10
4.0
 20
4.0
  0
ENDBLK
  5
65
330
63
100
AcDbEntity
  8
0
100
AcDbBlockEnd
  0
ENDSEC
  0
SECTION
  2
ENTITIES
  0
LWPOLYLINE
  5
69
330
17
100
AcDbEntity
  8
BUILDING
370
70
100
AcDbPolyline
 90
5
 70
1
 10
0.0
 20
0.0
 10
500.0
 20
0.0
 10
500.0
 20
800.0
 10
0.0
 20
800.0
 10
0.0
 20
0.0
  0
LWPOLYLINE
  5
6A
330
17
100
AcDbEntity
  8
WALKWAYS
100
AcDbPolyline
 90
2
 70
0
 10
230.0
 20
0.0
 10
230.0
 20
800.0
  0
LWPOLYLINE
  5
6B
330
17
100
AcDbEntity
  8
WALKWAYS
100
AcDbPolyline
 90
2
 70
0
 10
270.0
 20
0.0
 10
270.0
 20
800.0
  0
TEXT
  5
6C
330
17
100
AcDbEntity
  8
TEXT
100
AcDbText
 10
250.0
 20
400.0
 30
0.0
 40
7.0
  1
CENTRAL LOGISTICS THOROUGHFARE
 50
90.0
 72
1
 11
250.0
 21
400.0
 31
0.0
100
AcDbText
 73
2
  0
LWPOLYLINE
  5
6D
330
17
100
AcDbEntity
  8
FLOOR
100
AcDbPolyline
 90
5
 70
1
 10
30.0
 20
60.0
 10
199.2
 20
60.0
 10
199.2
 20
114.0
 10
30.0
 20
114.0
 10
30.0
 20
60.0
  0
TEXT
  5
6E
330
17
100
AcDbEntity
  8
TEXT
100
AcDbText
 10
30.0
 20
119.0
 30
0.0
 40
6.0
  1
Final Assembly Line LINE-A
 11
30.0
 21
119.0
 31
0.0
100
AcDbText
  0
INSERT
  5
STA-LINE-A-10
330
17
100
AcDbEntity
  8
0
100
AcDbBlockReference
  2
TYPE_MECHANICAL
 10
48.0
 20
84.0
 30
0.0
 41
0.6
 42
0.6
  0
TEXT
  5
71
330
17
100
AcDbEntity
  8
TEXT
100
AcDbText
 10
51.6
 20
76.0
 30
0.0
 40
2.0
  1
STA-LINE-A-10
 72
1
 11
51.6
 21
76.0
 31
0.0
100
AcDbText
  0
LINE
  5
72
330
17
100
AcDbEntity
  8
CONVEYORS
100
AcDbLine
 10
55.2
 20
85.8
 30
0.0
 11
73.19999999999999
 21
85.8
 31
0.0
  0
LINE
  5
73
330
17
100
AcDbEntity
  8
CONVEYORS
100
AcDbLine
 10
55.2
 20
88.2
 30
0.0
 11
73.19999999999999
 21
88.2
 31
0.0
  0
INSERT
  5
STA-LINE-A-20
330
17
100
AcDbEntity
  8
0
100
AcDbBlockReference
  2
TYPE_MECHANICAL
 10
73.19999999999999
 20
84.0
 30
0.0
 41
0.6
 42
0.6
  0
TEXT
  5
76
330
17
100
AcDbEntity
  8
TEXT
100
AcDbText
 10
76.79999999999998
 20
76.0
 30
0.0
 40
2.0
  1
STA-LINE-A-20
 72
1
 11
76.79999999999998
 21
76.0
 31
0.0
100
AcDbText
  0
LINE
  5
77
330
17
100
AcDbEntity
  8
CONVEYORS
100
AcDbLine
 10
80.4
 20
85.8
 30
0.0
 11
98.39999999999999
 21
85.8
 31
0.0
  0
LINE
  5
78
330
17
100
AcDbEntity
  8
CONVEYORS
100
AcDbLine
 10
80.4
 20
88.2
 30
0.0
 11
98.39999999999999
 21
88.2
 31
0.0
  0
INSERT
  5
STA-LINE-A-30
330
17
100
AcDbEntity
  8
0
100
AcDbBlockReference
  2
TYPE_VISION
 10
98.39999999999999
 20
84.0
 30
0.0
 41
0.6
 42
0.6
  0
TEXT
  5
7B
330
17
100
AcDbEntity
  8
TEXT
100
AcDbText
 10
101.99999999999999
 20
76.0
 30
0.0
 40
2.0
  1
STA-LINE-A-30
 72
1
 11
101.99999999999999
 21
76.0
 31
0.0
100
AcDbText
  0
LINE
  5
7C
330
17
100
AcDbEntity
  8
CONVEYORS
100
AcDbLine
 10
105.6
 20
85.8
 30
0.0
 11
123.6
 21
85.8
 31
0.0
  0
LINE
  5
7D
330
17
100
AcDbEntity
  8
CONVEYORS
100
AcDbLine
 10
105.6
 20
88.2
 30
0.0
 11
123.6
 21
88.2
 31
0.0
  0
INSERT
  5
STA-LINE-A-40
330
17
100
AcDbEntity
  8
0
100
AcDbBlockReference
  2
TYPE_DISPENSING
 10
123.6
 20
84.0
 30
0.0
 41
0.6
 42
0.6
  0
TEXT
  5
80
330
17
100
AcDbEntity
  8
TEXT
100
AcDbText
 10
127.19999999999999
 20
76.0
 30
0.0
 40
2.0
  1
STA-LINE-A-40
 72
1
 11
127.19999999999999
 21
76.0
 31
0.0
100
AcDbText
  0
LINE
  5
81
330
17
100
AcDbEntity
  8
CONVEYORS
100
AcDbLine
 10
130.8
 20
85.8
 30
0.0
 11
148.8
 21
85.8
 31
0.0
  0
LINE
  5
82
330
17
100
AcDbEntity
  8
CONVEYORS
100
AcDbLine
 10
130.8
 20
88.2
 30
0.0
 11
148.8
 21
88.2
 31
0.0
  0
INSERT
  5
STA-LINE-A-50
330
17
100
AcDbEntity
  8
0
100
AcDbBlockReference
  2
TYPE_VISION
 10
148.8
 20
84.0
 30
0.0
 41
0.6
 42
0.6
  0
TEXT
  5
85
330
17
100
AcDbEntity
  8
TEXT
100
AcDbText
 10
152.4
 20
76.0
 30
0.0
 40
2.0
  1
STA-LINE-A-50
 72
1
 11
152.4
 21
76.0
 31
0.0
100
AcDbText
  0
LINE
  5
86
330
17
100
AcDbEntity
  8
CONVEYORS
100
AcDbLine
 10
156.0
 20
85.8
 30
0.0
 11
174.0
 21
85.8
 31
0.0
  0
LINE
  5
87
330
17
100
AcDbEntity
  8
CONVEYORS
100
AcDbLine
 10
156.0
 20
88.2
 30
0.0
 11
174.0
 21
88.2
 31
0.0
  0
INSERT
  5
STA-LINE-A-60
330
17
100
AcDbEntity
  8
0
100
AcDbBlockReference
  2
TYPE_MECHANICAL
 10
174.0
 20
84.0
 30
0.0
 41
0.6
 42
0.6
  0
TEXT
  5
8A
330
17
100
AcDbEntity
  8
TEXT
100
AcDbText
 10
177.6
 20
76.0
 30
0.0
 40
2.0
  1
STA-LINE-A-60
 72
1
 11
177.6
 21
76.0
 31
0.0
100
AcDbText
  0
LWPOLYLINE
  5
8B
330
17
100
AcDbEntity
  8
FLOOR
100
AcDbPolyline
 90
5
 70
1
 10
300.0
 20
60.0
 10
469.2
 20
60.0
 10
469.2
 20
114.0
 10
300.0
 20
114.0
 10
300.0
 20
60.0
  0
TEXT
  5
8C
330
17
100
AcDbEntity
  8
TEXT
100
AcDbText
 10
300.0
 20
119.0
 30
0.0
 40
6.0
  1
Electronics Test Line LINE-B
 11
300.0
 21
119.0
 31
0.0
100
AcDbText
  0
INSERT
  5
STA-LINE-B-10
330
17
100
AcDbEntity
  8
0
100
AcDbBlockReference
  2
TYPE_MECHANICAL
 10
318.0
 20
84.0
 30
0.0
 41
0.6
 42
0.6
  0
TEXT
  5
8F
330
17
100
AcDbEntity
  8
TEXT
100
AcDbText
 10
321.6
 20
76.0
 30
0.0
 40
2.0
  1
STA-LINE-B-10
 72
1
 11
321.6
 21
76.0
 31
0.0
100
AcDbText
  0
LINE
  5
90
330
17
100
AcDbEntity
  8
CONVEYORS
100
AcDbLine
 10
325.2
 20
85.8
 30
0.0
 11
343.2
 21
85.8
 31
0.0
  0
LINE
  5
91
330
17
100
AcDbEntity
  8
CONVEYORS
100
AcDbLine
 10
325.2
 20
88.2
 30
0.0
 11
343.2
 21
88.2
 31
0.0
  0
INSERT
  5
STA-LINE-B-20
330
17
100
AcDbEntity
  8
0
100
AcDbBlockReference
  2
TYPE_TEST
 10
343.2
 20
84.0
 30
0.0
 41
0.6
 42
0.6
  0
TEXT
  5
94
330
17
100
AcDbEntity
  8
TEXT
100
AcDbText
 10
346.8
 20
76.0
 30
0.0
 40
2.0
  1
STA-LINE-B-20
 72
1
 11
346.8
 21
76.0
 31
0.0
100
AcDbText
  0
LINE
  5
95
330
17
100
AcDbEntity
  8
CONVEYORS
100
AcDbLine
 10
350.4
 20
85.8
 30
0.0
 11
368.4
 21
85.8
 31
0.0
  0
LINE
  5
96
330
17
100
AcDbEntity
  8
CONVEYORS
100
AcDbLine
 10
350.4
 20
88.2
 30
0.0
 11
368.4
 21
88.2
 31
0.0
  0
INSERT
  5
STA-LINE-B-30
330
17
100
AcDbEntity
  8
0
100
AcDbBlockReference
  2
TYPE_DISPENSING
 10
368.4
 20
84.0
 30
0.0
 41
0.6
 42
0.6
  0
TEXT
  5
99
330
17
100
AcDbEntity
  8
TEXT
100
AcDbText
 10
372.0
 20
76.0
 30
0.0
 40
2.0
  1
STA-LINE-B-30
 72
1
 11
372.0
 21
76.0
 31
0.0
100
AcDbText
  0
LINE
  5
9A
330
17
100
AcDbEntity
  8
CONVEYORS
100
AcDbLine
 10
375.6
 20
85.8
 30
0.0
 11
393.6
 21
85.8
 31
0.0
  0
LINE
  5
9B
330
17
100
AcDbEntity
  8
CONVEYORS
100
AcDbLine
 10
375.6
 20
88.2
 30
0.0
 11
393.6
 21
88.2
 31
0.0
  0
INSERT
  5
STA-LINE-B-40
330
17
100
AcDbEntity
  8
0
100
AcDbBlockReference
  2
TYPE_WELDING
 10
393.6
 20
84.0
 30
0.0
 41
0.6
 42
0.6
  0
TEXT
  5
9E
330
17
100
AcDbEntity
  8
TEXT
100
AcDbText
 10
397.20000000000005
 20
76.0
 30
0.0
 40
2.0
  1
STA-LINE-B-40
 72
1
 11
397.20000000000005
 21
76.0
 31
0.0
100
AcDbText
  0
LINE
  5
9F
330
17
100
AcDbEntity
  8
CONVEYORS
100
AcDbLine
 10
400.8
 20
85.8
 30
0.0
 11
418.8
 21
85.8
 31
0.0
  0
LINE
  5
A0
330
17
100
AcDbEntity
  8
CONVEYORS
100
AcDbLine
 10
400.8
 20
88.2
 30
0.0
 11
418.8
 21
88.2
 31
0.0
  0
INSERT
  5
STA-LINE-B-50
330
17
100
AcDbEntity
  8
0
100
AcDbBlockReference
  2
TYPE_PACKAGING
 10
418.8
 20
84.0
 30
0.0
 41
0.6
 42
0.6
  0
TEXT
  5
A3
330
17
100
AcDbEntity
  8
TEXT
100
AcDbText
 10
422.40000000000003
 20
76.0
 30
0.0
 40
2.0
  1
STA-LINE-B-50
 72
1
 11
422.40000000000003
 21
76.0
 31
0.0
100
AcDbText
  0
LINE
  5
A4
330
17
100
AcDbEntity
  8
CONVEYORS
100
AcDbLine
 10
426.0
 20
85.8
 30
0.0
 11
444.0
 21
85.8
 31
0.0
  0
LINE
  5
A5
330
17
100
AcDbEntity
  8
CONVEYORS
100
AcDbLine
 10
426.0
 20
88.2
 30
0.0
 11
444.0
 21
88.2
 31
0.0
  0
INSERT
  5
STA-LINE-B-60
330
17
100
AcDbEntity
  8
0
100
AcDbBlockReference
  2
TYPE_DISPENSING
 10
444.0
 20
84.0
 30
0.0
 41
0.6
 42
0.6
  0
TEXT
  5
A8
330
17
100
AcDbEntity
  8
TEXT
100
AcDbText
 10
447.6
 20
76.0
 30
0.0
 40
2.0
  1
STA-LINE-B-60
 72
1
 11
447.6
 21
76.0
 31
0.0
100
AcDbText
  0
LWPOLYLINE
  5
A9
330
17
100
AcDbEntity
  8
FLOOR
100
AcDbPolyline
 90
5
 70
1
 10
30.0
 20
200.0
 10
199.2
 20
200.0
 10
199.2
 20
254.0
 10
30.0
 20
254.0
 10
30.0
 20
200.0
  0
TEXT
  5
AA
330
17
100
AcDbEntity
  8
TEXT
100
AcDbText
 10
30.0
 20
259.0
 30
0.0
 40
6.0
  1
Final Assembly Line LINE-C
 11
30.0
 21
259.0
 31
0.0
100
AcDbText
  0
INSERT
  5
STA-LINE-C-10
330
17
100
AcDbEntity
  8
0
100
AcDbBlockReference
  2
TYPE_SCREWING
 10
48.0
 20
224.0
 30
0.0
 41
0.6
 42
0.6
  0
TEXT
  5
AD
330
17
100
AcDbEntity
  8
TEXT
100
AcDbText
 10
51.6
 20
216.0
 30
0.0
 40
2.0
  1
STA-LINE-C-10
 72
1
 11
51.6
 21
216.0
 31
0.0
100
AcDbText
  0
LINE
  5
AE
330
17
100
AcDbEntity
  8
CONVEYORS
100
AcDbLine
 10
55.2
 20
225.8
 30
0.0
 11
73.19999999999999
 21
225.8
 31
0.0
  0
LINE
  5
AF
330
17
100
AcDbEntity
  8
CONVEYORS
100
AcDbLine
 10
55.2
 20
228.2
 30
0.0
 11
73.19999999999999
 21
228.2
 31
0.0
  0
INSERT
  5
STA-LINE-C-20
330
17
100
AcDbEntity
  8
0
100
AcDbBlockReference
  2
TYPE_PACKAGING
 10
73.19999999999999
 20
224.0
 30
0.0
 41
0.6
 42
0.6
  0
TEXT
  5
B2
330
17
100
AcDbEntity
  8
TEXT
100
AcDbText
 10
76.79999999999998
 20
216.0
 30
0.0
 40
2.0
  1
STA-LINE-C-20
 72
1
 11
76.79999999999998
 21
216.0
 31
0.0
100
AcDbText
  0
LINE
  5
B3
330
17
100
AcDbEntity
  8
CONVEYORS
100
AcDbLine
 10
80.4
 20
225.8
 30
0.0
 11
98.39999999999999
 21
225.8
 31
0.0
  0
LINE
  5
B4
330
17
100
AcDbEntity
  8
CONVEYORS
100
AcDbLine
 10
80.4
 20
228.2
 30
0.0
 11
98.39999999999999
 21
228.2
 31
0.0
  0
INSERT
  5
STA-LINE-C-30
330
17
100
AcDbEntity
  8
0
100
AcDbBlockReference
  2
TYPE_WELDING
 10
98.39999999999999
 20
224.0
 30
0.0
 41
0.6
 42
0.6
  0
TEXT
  5
B7
330
17
100
AcDbEntity
  8
TEXT
100
AcDbText
 10
101.99999999999999
 20
216.0
 30
0.0
 40
2.0
  1
STA-LINE-C-30
 72
1
 11
101.99999999999999
 21
216.0
 31
0.0
100
AcDbText
  0
LINE
  5
B8
330
17
100
AcDbEntity
  8
CONVEYORS
100
AcDbLine
 10
105.6
 20
225.8
 30
0.0
 11
123.6
 21
225.8
 31
0.0
  0
LINE
  5
B9
330
17
100
AcDbEntity
  8
CONVEYORS
100
AcDbLine
 10
105.6
 20
228.2
 30
0.0
 11
123.6
 21
228.2
 31
0.0
  0
INSERT
  5
STA-LINE-C-40
330
17
100
AcDbEntity
  8
0
100
AcDbBlockReference
  2
TYPE_VISION
 10
123.6
 20
224.0
 30
0.0
 41
0.6
 42
0.6
  0
TEXT
  5
BC
330
17
100
AcDbEntity
  8
TEXT
100
AcDbText
 10
127.19999999999999
 20
216.0
 30
0.0
 40
2.0
  1
STA-LINE-C-40
 72
1
 11
127.19999999999999
 21
216.0
 31
0.0
100
AcDbText
  0
LINE
  5
BD
330
17
100
AcDbEntity
  8
CONVEYORS
100
AcDbLine
 10
130.8
 20
225.8
 30
0.0
 11
148.8
 21
225.8
 31
0.0
  0
LINE
  5
BE
330
17
100
AcDbEntity
  8
CONVEYORS
100
AcDbLine
 10
130.8
 20
228.2
 30
0.0
 11
148.8
 21
228.2
 31
0.0
  0
INSERT
  5
STA-LINE-C-50
330
17
100
AcDbEntity
  8
0
100
AcDbBlockReference
  2
TYPE_WELDING
 10
148.8
 20
224.0
 30
0.0
 41
0.6
 42
0.6
  0
TEXT
  5
C1
330
17
100
AcDbEntity
  8
TEXT
100
AcDbText
 10
152.4
 20
216.0
 30
0.0
 40
2.0
  1
STA-LINE-C-50
 72
1
 11
152.4
 21
216.0
 31
0.0
100
AcDbText
  0
LINE
  5
C2
330
17
100
AcDbEntity
  8
CONVEYORS
100
AcDbLine
 10
156.0
 20
225.8
 30
0.0
 11
174.0
 21
225.8
 31
0.0
  0
LINE
  5
C3
330
17
100
AcDbEntity
  8
CONVEYORS
100
AcDbLine
 10
156.0
 20
228.2
 30
0.0
 11
174.0
 21
228.2
 31
0.0
  0
INSERT
  5
STA-LINE-C-60
330
17
100
AcDbEntity
  8
0
100
AcDbBlockReference
  2
TYPE_WELDING
 10
174.0
 20
224.0
 30
0.0
 41
0.6
 42
0.6
  0
TEXT
  5
C6
330
17
100
AcDbEntity
  8
TEXT
100
AcDbText
 10
177.6
 20
216.0
 30
0.0
 40
2.0
  1
STA-LINE-C-60
 72
1
 11
177.6
 21
216.0
 31
0.0
100
AcDbText
  0
LWPOLYLINE
  5
C7
330
17
100
AcDbEntity
  8
FLOOR
100
AcDbPolyline
 90
5
 70
1
 10
300.0
 20
200.0
 10
469.2
 20
200.0
 10
469.2
 20
254.0
 10
300.0
 20
254.0
 10
300.0
 20
200.0
  0
TEXT
  5
C8
330
17
100
AcDbEntity
  8
TEXT
100
AcDbText
 10
300.0
 20
259.0
 30
0.0
 40
6.0
  1
Battery Module Line LINE-D
 11
300.0
 21
259.0
 31
0.0
100
AcDbText
  0
INSERT
  5
STA-LINE-D-10
330
17
100
AcDbEntity
  8
0
100
AcDbBlockReference
  2
TYPE_DISPENSING
 10
318.0
 20
224.0
 30
0.0
 41
0.6
 42
0.6
  0
TEXT
  5
CB
330
17
100
AcDbEntity
  8
TEXT
100
AcDbText
 10
321.6
 20
216.0
 30
0.0
 40
2.0
  1
STA-LINE-D-10
 72
1
 11
321.6
 21
216.0
 31
0.0
100
AcDbText
  0
LINE
  5
CC
330
17
100
AcDbEntity
  8
CONVEYORS
100
AcDbLine
 10
325.2
 20
225.8
 30
0.0
 11
343.2
 21
225.8
 31
0.0
  0
LINE
  5
CD
330
17
100
AcDbEntity
  8
CONVEYORS
100
AcDbLine
 10
325.2
 20
228.2
 30
0.0
 11
343.2
 21
228.2
 31
0.0
  0
INSERT
  5
STA-LINE-D-20
330
17
100
AcDbEntity
  8
0
100
AcDbBlockReference
  2
TYPE_WELDING
 10
343.2
 20
224.0
 30
0.0
 41
0.6
 42
0.6
  0
TEXT
  5
D0
330
17
100
AcDbEntity
  8
TEXT
100
AcDbText
 10
346.8
 20
216.0
 30
0.0
 40
2.0
  1
STA-LINE-D-20
 72
1
 11
346.8
 21
216.0
 31
0.0
100
AcDbText
  0
LINE
  5
D1
330
17
100
AcDbEntity
  8
CONVEYORS
100
AcDbLine
 10
350.4
 20
225.8
 30
0.0
 11
368.4
 21
225.8
 31
0.0
  0
LINE
  5
D2
330
17
100
AcDbEntity
  8
CONVEYORS
100
AcDbLine
 10
350.4
 20
228.2
 30
0.0
 11
368.4
 21
228.2
 31
0.0
  0
INSERT
  5
STA-LINE-D-30
330
17
100
AcDbEntity
  8
0
100
AcDbBlockReference
  2
TYPE_DISPENSING
 10
368.4
 20
224.0
 30
0.0
 41
0.6
 42
0.6
  0
TEXT
  5
D5
330
17
100
AcDbEntity
  8
TEXT
100
AcDbText
 10
372.0
 20
216.0
 30
0.0
 40
2.0
  1
STA-LINE-D-30
 72
1
 11
372.0
 21
216.0
 31
0.0
100
AcDbText
  0
LINE
  5
D6
330
17
100
AcDbEntity
  8
CONVEYORS
100
AcDbLine
 10
375.6
 20
225.8
 30
0.0
 11
393.6
 21
225.8
 31
0.0
  0
LINE
  5
D7
330
17
100
AcDbEntity
  8
CONVEYORS
100
AcDbLine
 10
375.6
 20
228.2
 30
0.0
 11
393.6
 21
228.2
 31
0.0
  0
INSERT
  5
STA-LINE-D-40
330
17
100
AcDbEntity
  8
0
100
AcDbBlockReference
  2
TYPE_PACKAGING
 10
393.6
 20
224.0
 30
0.0
 41
0.6
 42
0.6
  0
TEXT
  5
DA
330
17
100
AcDbEntity
  8
TEXT
100
AcDbText
 10
397.20000000000005
 20
216.0
 30
0.0
 40
2.0
  1
STA-LINE-D-40
 72
1
 11
397.20000000000005
 21
216.0
 31
0.0
100
AcDbText
  0
LINE
  5
DB
330
17
100
AcDbEntity
  8
CONVEYORS
100
AcDbLine
 10
400.8
 20
225.8
 30
0.0
 11
418.8
 21
225.8
 31
0.0
  0
LINE
  5
DC
330
17
100
AcDbEntity
  8
CONVEYORS
100
AcDbLine
 10
400.8
 20
228.2
 30
0.0
 11
418.8
 21
228.2
 31
0.0
  0
INSERT
  5
STA-LINE-D-50
330
17
100
AcDbEntity
  8
0
100
AcDbBlockReference
  2
TYPE_SCREWING
 10
418.8
 20
224.0
 30
0.0
 41
0.6
 42
0.6
  0
TEXT
  5
DF
330
17
100
AcDbEntity
  8
TEXT
100
AcDbText
 10
422.40000000000003
 20
216.0
 30
0.0
 40
2.0
  1
STA-LINE-D-50
 72
1
 11
422.40000000000003
 21
216.0
 31
0.0
100
AcDbText
  0
LINE
  5
E0
330
17
100
AcDbEntity
  8
CONVEYORS
100
AcDbLine
 10
426.0
 20
225.8
 30
0.0
 11
444.0
 21
225.8
 31
0.0
  0
LINE
  5
E1
330
17
100
AcDbEntity
  8
CONVEYORS
100
AcDbLine
 10
426.0
 20
228.2
 30
0.0
 11
444.0
 21
228.2
 31
0.0
  0
INSERT
  5
STA-LINE-D-60
330
17
100
AcDbEntity
  8
0
100
AcDbBlockReference
  2
TYPE_PACKAGING
 10
444.0
 20
224.0
 30
0.0
 41
0.6
 42
0.6
  0
TEXT
  5
E4
330
17
100
AcDbEntity
  8
TEXT
100
AcDbText
 10
447.6
 20
216.0
 30
0.0
 40
2.0
  1
STA-LINE-D-60
 72
1
 11
447.6
 21
216.0
 31
0.0
100
AcDbText
  0
LWPOLYLINE
  5
E5
330
17
100
AcDbEntity
  8
FLOOR
100
AcDbPolyline
 90
5
 70
1
 10
30.0
 20
340.0
 10
199.2
 20
340.0
 10
199.2
 20
394.0
 10
30.0
 20
394.0
 10
30.0
 20
340.0
  0
TEXT
  5
E6
330
17
100
AcDbEntity
  8
TEXT
100
AcDbText
 10
30.0
 20
399.0
 30
0.0
 40
6.0
  1
Sealant Dispensing Line LINE-E
 11
30.0
 21
399.0
 31
0.0
100
AcDbText
  0
INSERT
  5
STA-LINE-E-10
330
17
100
AcDbEntity
  8
0
100
AcDbBlockReference
  2
TYPE_MECHANICAL
 10
48.0
 20
364.0
 30
0.0
 41
0.6
 42
0.6
  0
TEXT
  5
E9
330
17
100
AcDbEntity
  8
TEXT
100
AcDbText
 10
51.6
 20
356.0
 30
0.0
 40
2.0
  1
STA-LINE-E-10
 72
1
 11
51.6
 21
356.0
 31
0.0
100
AcDbText
  0
LINE
  5
EA
330
17
100
AcDbEntity
  8
CONVEYORS
100
AcDbLine
 10
55.2
 20
365.8
 30
0.0
 11
73.19999999999999
 21
365.8
 31
0.0
  0
LINE
  5
EB
330
17
100
AcDbEntity
  8
CONVEYORS
100
AcDbLine
 10
55.2
 20
368.2
 30
0.0
 11
73.19999999999999
 21
368.2
 31
0.0
  0
INSERT
  5
STA-LINE-E-20
330
17
100
AcDbEntity
  8
0
100
AcDbBlockReference
  2
TYPE_DISPENSING
 10
73.19999999999999
 20
364.0
 30
0.0
 41
0.6
 42
0.6
  0
TEXT
  5
EE
330
17
100
AcDbEntity
  8
TEXT
100
AcDbText
 10
76.79999999999998
 20
356.0
 30
0.0
 40
2.0
  1
STA-LINE-E-20
 72
1
 11
76.79999999999998
 21
356.0
 31
0.0
100
AcDbText
  0
LINE
  5
EF
330
17
100
AcDbEntity
  8
CONVEYORS
100
AcDbLine
 10
80.4
 20
365.8
 30
0.0
 11
98.39999999999999
 21
365.8
 31
0.0
  0
LINE
  5
F0
330
17
100
AcDbEntity
  8
CONVEYORS
100
AcDbLine
 10
80.4
 20
368.2
 30
0.0
 11
98.39999999999999
 21
368.2
 31
0.0
  0
INSERT
  5
STA-LINE-E-30
330
17
100
AcDbEntity
  8
0
100
AcDbBlockReference
  2
TYPE_WELDING
 10
98.39999999999999
 20
364.0
 30
0.0
 41
0.6
 42
0.6
  0
TEXT
  5
F3
330
17
100
AcDbEntity
  8
TEXT
100
AcDbText
 10
101.99999999999999
 20
356.0
 30
0.0
 40
2.0
  1
STA-LINE-E-30
 72
1
 11
101.99999999999999
 21
356.0
 31
0.0
100
AcDbText
  0
LINE
  5
F4
330
17
100
AcDbEntity
  8
CONVEYORS
100
AcDbLine
 10
105.6
 20
365.8
 30
0.0
 11
123.6
 21
365.8
 31
0.0
  0
LINE
  5
F5
330
17
100
AcDbEntity
  8
CONVEYORS
100
AcDbLine
 10
105.6
 20
368.2
 30
0.0
 11
123.6
 21
368.2
 31
0.0
  0
INSERT
  5
STA-LINE-E-40
330
17
100
AcDbEntity
  8
0
100
AcDbBlockReference
  2
TYPE_VISION
 10
123.6
 20
364.0
 30
0.0
 41
0.6
 42
0.6
  0
TEXT
  5
F8
330
17
100
AcDbEntity
  8
TEXT
100
AcDbText
 10
127.19999999999999
 20
356.0
 30
0.0
 40
2.0
  1
STA-LINE-E-40
 72
1
 11
127.19999999999999
 21
356.0
 31
0.0
100
AcDbText
  0
LINE
  5
F9
330
17
100
AcDbEntity
  8
CONVEYORS
100
AcDbLine
 10
130.8
 20
365.8
 30
0.0
 11
148.8
 21
365.8
 31
0.0
  0
LINE
  5
FA
330
17
100
AcDbEntity
  8
CONVEYORS
100
AcDbLine
 10
130.8
 20
368.2
 30
0.0
 11
148.8
 21
368.2
 31
0.0
  0
INSERT
  5
STA-LINE-E-50
330
17
100
AcDbEntity
  8
0
100
AcDbBlockReference
  2
TYPE_WELDING
 10
148.8
 20
364.0
 30
0.0
 41
0.6
 42
0.6
  0
TEXT
  5
FD
330
17
100
AcDbEntity
  8
TEXT
100
AcDbText
 10
152.4
 20
356.0
 30
0.0
 40
2.0
  1
STA-LINE-E-50
 72
1
 11
152.4
 21
356.0
 31
0.0
100
AcDbText
  0
LINE
  5
FE
330
17
100
AcDbEntity
  8
CONVEYORS
100
AcDbLine
 10
156.0
 20
365.8
 30
0.0
 11
174.0
 21
365.8
 31
0.0
  0
LINE
  5
FF
330
17
100
AcDbEntity
  8
CONVEYORS
100
AcDbLine
 10
156.0
 20
368.2
 30
0.0
 11
174.0
 21
368.2
 31
0.0
  0
INSERT
  5
STA-LINE-E-60
330
17
100
AcDbEntity
  8
0
100
AcDbBlockReference
  2
TYPE_SCREWING
 10
174.0
 20
364.0
 30
0.0
 41
0.6
 42
0.6
  0
TEXT
  5
102
330
17
100
AcDbEntity
  8
TEXT
100
AcDbText
 10
177.6
 20
356.0
 30
0.0
 40
2.0
  1
STA-LINE-E-60
 72
1
 11
177.6
 21
356.0
 31
0.0
100
AcDbText
  0
LWPOLYLINE
  5
103
330
17
100
AcDbEntity
  8
FLOOR
100
AcDbPolyline
 90
5
 70
1
 10
300.0
 20
340.0
 10
469.2
 20
340.0
 10
469.2
 20
394.0
 10
300.0
 20
394.0
 10
300.0
 20
340.0
  0
TEXT
  5
104
330
17
100
AcDbEntity
  8
TEXT
100
AcDbText
 10
300.0
 20
399.0
 30
0.0
 40
6.0
  1
Electronics Test Line LINE-F
 11
300.0
 21
399.0
 31
0.0
100
AcDbText
  0
INSERT
  5
STA-LINE-F-10
330
17
100
AcDbEntity
  8
0
100
AcDbBlockReference
  2
TYPE_VISION
 10
318.0
 20
364.0
 30
0.0
 41
0.6
 42
0.6
  0
TEXT
  5
107
330
17
100
AcDbEntity
  8
TEXT
100
AcDbText
 10
321.6
 20
356.0
 30
0.0
 40
2.0
  1
STA-LINE-F-10
 72
1
 11
321.6
 21
356.0
 31
0.0
100
AcDbText
  0
LINE
  5
108
330
17
100
AcDbEntity
  8
CONVEYORS
100
AcDbLine
 10
325.2
 20
365.8
 30
0.0
 11
343.2
 21
365.8
 31
0.0
  0
LINE
  5
109
330
17
100
AcDbEntity
  8
CONVEYORS
100
AcDbLine
 10
325.2
 20
368.2
 30
0.0
 11
343.2
 21
368.2
 31
0.0
  0
INSERT
  5
STA-LINE-F-20
330
17
100
AcDbEntity
  8
0
100
AcDbBlockReference
  2
TYPE_DISPENSING
 10
343.2
 20
364.0
 30
0.0
 41
0.6
 42
0.6
  0
TEXT
  5
10C
330
17
100
AcDbEntity
  8
TEXT
100
AcDbText
 10
346.8
 20
356.0
 30
0.0
 40
2.0
  1
STA-LINE-F-20
 72
1
 11
346.8
 21
356.0
 31
0.0
100
AcDbText
  0
LINE
  5
10D
330
17
100
AcDbEntity
  8
CONVEYORS
100
AcDbLine
 10
350.4
 20
365.8
 30
0.0
 11
368.4
 21
365.8
 31
0.0
  0
LINE
  5
10E
330
17
100
AcDbEntity
  8
CONVEYORS
100
AcDbLine
 10
350.4
 20
368.2
 30
0.0
 11
368.4
 21
368.2
 31
0.0
  0
INSERT
  5
STA-LINE-F-30
330
17
100
AcDbEntity
  8
0
100
AcDbBlockReference
  2
TYPE_VISION
 10
368.4
 20
364.0
 30
0.0
 41
0.6
 42
0.6
  0
TEXT
  5
111
330
17
100
AcDbEntity
  8
TEXT
100
AcDbText
 10
372.0
 20
356.0
 30
0.0
 40
2.0
  1
STA-LINE-F-30
 72
1
 11
372.0
 21
356.0
 31
0.0
100
AcDbText
  0
LINE
  5
112
330
17
100
AcDbEntity
  8
CONVEYORS
100
AcDbLine
 10
375.6
 20
365.8
 30
0.0
 11
393.6
 21
365.8
 31
0.0
  0
LINE
  5
113
330
17
100
AcDbEntity
  8
CONVEYORS
100
AcDbLine
 10
375.6
 20
368.2
 30
0.0
 11
393.6
 21
368.2
 31
0.0
  0
INSERT
  5
STA-LINE-F-40
330
17
100
AcDbEntity
  8
0
100
AcDbBlockReference
  2
TYPE_WELDING
 10
393.6
 20
364.0
 30
0.0
 41
0.6
 42
0.6
  0
TEXT
  5
116
330
17
100
AcDbEntity
  8
TEXT
100
AcDbText
 10
397.20000000000005
 20
356.0
 30
0.0
 40
2.0
  1
STA-LINE-F-40
 72
1
 11
397.20000000000005
 21
356.0
 31
0.0
100
AcDbText
  0
LINE
  5
117
330
17
100
AcDbEntity
  8
CONVEYORS
100
AcDbLine
 10
400.8
 20
365.8
 30
0.0
 11
418.8
 21
365.8
 31
0.0
  0
LINE
  5
118
330
17
100
AcDbEntity
  8
CONVEYORS
100
AcDbLine
 10
400.8
 20
368.2
 30
0.0
 11
418.8
 21
368.2
 31
0.0
  0
INSERT
  5
STA-LINE-F-50
330
17
100
AcDbEntity
  8
0
100
AcDbBlockReference
  2
TYPE_SCREWING
 10
418.8
 20
364.0
 30
0.0
 41
0.6
 42
0.6
  0
TEXT
  5
11B
330
17
100
AcDbEntity
  8
TEXT
100
AcDbText
 10
422.40000000000003
 20
356.0
 30
0.0
 40
2.0
  1
STA-LINE-F-50
 72
1
 11
422.40000000000003
 21
356.0
 31
0.0
100
AcDbText
  0
LINE
  5
11C
330
17
100
AcDbEntity
  8
CONVEYORS
100
AcDbLine
 10
426.0
 20
365.8
 30
0.0
 11
444.0
 21
365.8
 31
0.0
  0
LINE
  5
11D
330
17
100
AcDbEntity
  8
CONVEYORS
100
AcDbLine
 10
426.0
 20
368.2
 30
0.0
 11
444.0
 21
368.2
 31
0.0
  0
INSERT
  5
STA-LINE-F-60
330
17
100
AcDbEntity
  8
0
100
AcDbBlockReference
  2
TYPE_DISPENSING
 10
444.0
 20
364.0
 30
0.0
 41
0.6
 42
0.6
  0
TEXT
  5
120
330
17
100
AcDbEntity
  8
TEXT
100
AcDbText
 10
447.6
 20
356.0
 30
0.0
 40
2.0
  1
STA-LINE-F-60
 72
1
 11
447.6
 21
356.0
 31
0.0
100
AcDbText
  0
LWPOLYLINE
  5
121
330
17
100
AcDbEntity
  8
FLOOR
100
AcDbPolyline
 90
5
 70
1
 10
30.0
 20
480.0
 10
199.2
 20
480.0
 10
199.2
 20
534.0
 10
30.0
 20
534.0
 10
30.0
 20
480.0
  0
TEXT
  5
122
330
17
100
AcDbEntity
  8
TEXT
100
AcDbText
 10
30.0
 20
539.0
 30
0.0
 40
6.0
  1
Electronics Test Line LINE-G
 11
30.0
 21
539.0
 31
0.0
100
AcDbText
  0
INSERT
  5
STA-LINE-G-10
330
17
100
AcDbEntity
  8
0
100
AcDbBlockReference
  2
TYPE_SCREWING
 10
48.0
 20
504.0
 30
0.0
 41
0.6
 42
0.6
  0
TEXT
  5
125
330
17
100
AcDbEntity
  8
TEXT
100
AcDbText
 10
51.6
 20
496.0
 30
0.0
 40
2.0
  1
STA-LINE-G-10
 72
1
 11
51.6
 21
496.0
 31
0.0
100
AcDbText
  0
LINE
  5
126
330
17
100
AcDbEntity
  8
CONVEYORS
100
AcDbLine
 10
55.2
 20
505.8
 30
0.0
 11
73.19999999999999
 21
505.8
 31
0.0
  0
LINE
  5
127
330
17
100
AcDbEntity
  8
CONVEYORS
100
AcDbLine
 10
55.2
 20
508.2
 30
0.0
 11
73.19999999999999
 21
508.2
 31
0.0
  0
INSERT
  5
STA-LINE-G-20
330
17
100
AcDbEntity
  8
0
100
AcDbBlockReference
  2
TYPE_SCREWING
 10
73.19999999999999
 20
504.0
 30
0.0
 41
0.6
 42
0.6
  0
TEXT
  5
12A
330
17
100
AcDbEntity
  8
TEXT
100
AcDbText
 10
76.79999999999998
 20
496.0
 30
0.0
 40
2.0
  1
STA-LINE-G-20
 72
1
 11
76.79999999999998
 21
496.0
 31
0.0
100
AcDbText
  0
LINE
  5
12B
330
17
100
AcDbEntity
  8
CONVEYORS
100
AcDbLine
 10
80.4
 20
505.8
 30
0.0
 11
98.39999999999999
 21
505.8
 31
0.0
  0
LINE
  5
12C
330
17
100
AcDbEntity
  8
CONVEYORS
100
AcDbLine
 10
80.4
 20
508.2
 30
0.0
 11
98.39999999999999
 21
508.2
 31
0.0
  0
INSERT
  5
STA-LINE-G-30
330
17
100
AcDbEntity
  8
0
100
AcDbBlockReference
  2
TYPE_VISION
 10
98.39999999999999
 20
504.0
 30
0.0
 41
0.6
 42
0.6
  0
TEXT
  5
12F
330
17
100
AcDbEntity
  8
TEXT
100
AcDbText
 10
101.99999999999999
 20
496.0
 30
0.0
 40
2.0
  1
STA-LINE-G-30
 72
1
 11
101.99999999999999
 21
496.0
 31
0.0
100
AcDbText
  0
LINE
  5
130
330
17
100
AcDbEntity
  8
CONVEYORS
100
AcDbLine
 10
105.6
 20
505.8
 30
0.0
 11
123.6
 21
505.8
 31
0.0
  0
LINE
  5
131
330
17
100
AcDbEntity
  8
CONVEYORS
100
AcDbLine
 10
105.6
 20
508.2
 30
0.0
 11
123.6
 21
508.2
 31
0.0
  0
INSERT
  5
STA-LINE-G-40
330
17
100
AcDbEntity
  8
0
100
AcDbBlockReference
  2
TYPE_WELDING
 10
123.6
 20
504.0
 30
0.0
 41
0.6
 42
0.6
  0
TEXT
  5
134
330
17
100
AcDbEntity
  8
TEXT
100
AcDbText
 10
127.19999999999999
 20
496.0
 30
0.0
 40
2.0
  1
STA-LINE-G-40
 72
1
 11
127.19999999999999
 21
496.0
 31
0.0
100
AcDbText
  0
LINE
  5
135
330
17
100
AcDbEntity
  8
CONVEYORS
100
AcDbLine
 10
130.8
 20
505.8
 30
0.0
 11
148.8
 21
505.8
 31
0.0
  0
LINE
  5
136
330
17
100
AcDbEntity
  8
CONVEYORS
100
AcDbLine
 10
130.8
 20
508.2
 30
0.0
 11
148.8
 21
508.2
 31
0.0
  0
INSERT
  5
STA-LINE-G-50
330
17
100
AcDbEntity
  8
0
100
AcDbBlockReference
  2
TYPE_MECHANICAL
 10
148.8
 20
504.0
 30
0.0
 41
0.6
 42
0.6
  0
TEXT
  5
139
330
17
100
AcDbEntity
  8
TEXT
100
AcDbText
 10
152.4
 20
496.0
 30
0.0
 40
2.0
  1
STA-LINE-G-50
 72
1
 11
152.4
 21
496.0
 31
0.0
100
AcDbText
  0
LINE
  5
13A
330
17
100
AcDbEntity
  8
CONVEYORS
100
AcDbLine
 10
156.0
 20
505.8
 30
0.0
 11
174.0
 21
505.8
 31
0.0
  0
LINE
  5
13B
330
17
100
AcDbEntity
  8
CONVEYORS
100
AcDbLine
 10
156.0
 20
508.2
 30
0.0
 11
174.0
 21
508.2
 31
0.0
  0
INSERT
  5
STA-LINE-G-60
330
17
100
AcDbEntity
  8
0
100
AcDbBlockReference
  2
TYPE_MECHANICAL
 10
174.0
 20
504.0
 30
0.0
 41
0.6
 42
0.6
  0
TEXT
  5
13E
330
17
100
AcDbEntity
  8
TEXT
100
AcDbText
 10
177.6
 20
496.0
 30
0.0
 40
2.0
  1
STA-LINE-G-60
 72
1
 11
177.6
 21
496.0
 31
0.0
100
AcDbText
  0
LWPOLYLINE
  5
13F
330
17
100
AcDbEntity
  8
FLOOR
100
AcDbPolyline
 90
5
 70
1
 10
300.0
 20
480.0
 10
469.2
 20
480.0
 10
469.2
 20
534.0
 10
300.0
 20
534.0
 10
300.0
 20
480.0
  0
TEXT
  5
140
330
17
100
AcDbEntity
  8
TEXT
100
AcDbText
 10
300.0
 20
539.0
 30
0.0
 40
6.0
  1
Vision Inspection Line LINE-H
 11
300.0
 21
539.0
 31
0.0
100
AcDbText
  0
INSERT
  5
STA-LINE-H-10
330
17
100
AcDbEntity
  8
0
100
AcDbBlockReference
  2
TYPE_PACKAGING
 10
318.0
 20
504.0
 30
0.0
 41
0.6
 42
0.6
  0
TEXT
  5
143
330
17
100
AcDbEntity
  8
TEXT
100
AcDbText
 10
321.6
 20
496.0
 30
0.0
 40
2.0
  1
STA-LINE-H-10
 72
1
 11
321.6
 21
496.0
 31
0.0
100
AcDbText
  0
LINE
  5
144
330
17
100
AcDbEntity
  8
CONVEYORS
100
AcDbLine
 10
325.2
 20
505.8
 30
0.0
 11
343.2
 21
505.8
 31
0.0
  0
LINE
  5
145
330
17
100
AcDbEntity
  8
CONVEYORS
100
AcDbLine
 10
325.2
 20
508.2
 30
0.0
 11
343.2
 21
508.2
 31
0.0
  0
INSERT
  5
STA-LINE-H-20
330
17
100
AcDbEntity
  8
0
100
AcDbBlockReference
  2
TYPE_VISION
 10
343.2
 20
504.0
 30
0.0
 41
0.6
 42
0.6
  0
TEXT
  5
148
330
17
100
AcDbEntity
  8
TEXT
100
AcDbText
 10
346.8
 20
496.0
 30
0.0
 40
2.0
  1
STA-LINE-H-20
 72
1
 11
346.8
 21
496.0
 31
0.0
100
AcDbText
  0
LINE
  5
149
330
17
100
AcDbEntity
  8
CONVEYORS
100
AcDbLine
 10
350.4
 20
505.8
 30
0.0
 11
368.4
 21
505.8
 31
0.0
  0
LINE
  5
14A
330
17
100
AcDbEntity
  8
CONVEYORS
100
AcDbLine
 10
350.4
 20
508.2
 30
0.0
 11
368.4
 21
508.2
 31
0.0
  0
INSERT
  5
STA-LINE-H-30
330
17
100
AcDbEntity
  8
0
100
AcDbBlockReference
  2
TYPE_WELDING
 10
368.4
 20
504.0
 30
0.0
 41
0.6
 42
0.6
  0
TEXT
  5
14D
330
17
100
AcDbEntity
  8
TEXT
100
AcDbText
 10
372.0
 20
496.0
 30
0.0
 40
2.0
  1
STA-LINE-H-30
 72
1
 11
372.0
 21
496.0
 31
0.0
100
AcDbText
  0
LINE
  5
14E
330
17
100
AcDbEntity
  8
CONVEYORS
100
AcDbLine
 10
375.6
 20
505.8
 30
0.0
 11
393.6
 21
505.8
 31
0.0
  0
LINE
  5
14F
330
17
100
AcDbEntity
  8
CONVEYORS
100
AcDbLine
 10
375.6
 20
508.2
 30
0.0
 11
393.6
 21
508.2
 31
0.0
  0
INSERT
  5
STA-LINE-H-40
330
17
100
AcDbEntity
  8
0
100
AcDbBlockReference
  2
TYPE_VISION
 10
393.6
 20
504.0
 30
0.0
 41
0.6
 42
0.6
  0
TEXT
  5
152
330
17
100
AcDbEntity
  8
TEXT
100
AcDbText
 10
397.20000000000005
 20
496.0
 30
0.0
 40
2.0
  1
STA-LINE-H-40
 72
1
 11
397.20000000000005
 21
496.0
 31
0.0
100
AcDbText
  0
LINE
  5
153
330
17
100
AcDbEntity
  8
CONVEYORS
100
AcDbLine
 10
400.8
 20
505.8
 30
0.0
 11
418.8
 21
505.8
 31
0.0
  0
LINE
  5
154
330
17
100
AcDbEntity
  8
CONVEYORS
100
AcDbLine
 10
400.8
 20
508.2
 30
0.0
 11
418.8
 21
508.2
 31
0.0
  0
INSERT
  5
STA-LINE-H-50
330
17
100
AcDbEntity
  8
0
100
AcDbBlockReference
  2
TYPE_PACKAGING
 10
418.8
 20
504.0
 30
0.0
 41
0.6
 42
0.6
  0
TEXT
  5
157
330
17
100
AcDbEntity
  8
TEXT
100
AcDbText
 10
422.40000000000003
 20
496.0
 30
0.0
 40
2.0
  1
STA-LINE-H-50
 72
1
 11
422.40000000000003
 21
496.0
 31
0.0
100
AcDbText
  0
LINE
  5
158
330
17
100
AcDbEntity
  8
CONVEYORS
100
AcDbLine
 10
426.0
 20
505.8
 30
0.0
 11
444.0
 21
505.8
 31
0.0
  0
LINE
  5
159
330
17
100
AcDbEntity
  8
CONVEYORS
100
AcDbLine
 10
426.0
 20
508.2
 30
0.0
 11
444.0
 21
508.2
 31
0.0
  0
INSERT
  5
STA-LINE-H-60
330
17
100
AcDbEntity
  8
0
100
AcDbBlockReference
  2
TYPE_DISPENSING
 10
444.0
 20
504.0
 30
0.0
 41
0.6
 42
0.6
  0
TEXT
  5
15C
330
17
100
AcDbEntity
  8
TEXT
100
AcDbText
 10
447.6
 20
496.0
 30
0.0
 40
2.0
  1
STA-LINE-H-60
 72
1
 11
447.6
 21
496.0
 31
0.0
100
AcDbText
  0
LWPOLYLINE
  5
15D
330
17
100
AcDbEntity
  8
FLOOR
100
AcDbPolyline
 90
5
 70
1
 10
30.0
 20
620.0
 10
199.2
 20
620.0
 10
199.2
 20
674.0
 10
30.0
 20
674.0
 10
30.0
 20
620.0
  0
TEXT
  5
15E
330
17
100
AcDbEntity
  8
TEXT
100
AcDbText
 10
30.0
 20
679.0
 30
0.0
 40
6.0
  1
Sealant Dispensing Line LINE-I
 11
30.0
 21
679.0
 31
0.0
100
AcDbText
  0
INSERT
  5
STA-LINE-I-10
330
17
100
AcDbEntity
  8
0
100
AcDbBlockReference
  2
TYPE_MECHANICAL
 10
48.0
 20
644.0
 30
0.0
 41
0.6
 42
0.6
  0
TEXT
  5
161
330
17
100
AcDbEntity
  8
TEXT
100
AcDbText
 10
51.6
 20
636.0
 30
0.0
 40
2.0
  1
STA-LINE-I-10
 72
1
 11
51.6
 21
636.0
 31
0.0
100
AcDbText
  0
LINE
  5
162
330
17
100
AcDbEntity
  8
CONVEYORS
100
AcDbLine
 10
55.2
 20
645.8
 30
0.0
 11
73.19999999999999
 21
645.8
 31
0.0
  0
LINE
  5
163
330
17
100
AcDbEntity
  8
CONVEYORS
100
AcDbLine
 10
55.2
 20
648.2
 30
0.0
 11
73.19999999999999
 21
648.2
 31
0.0
  0
INSERT
  5
STA-LINE-I-20
330
17
100
AcDbEntity
  8
0
100
AcDbBlockReference
  2
TYPE_PACKAGING
 10
73.19999999999999
 20
644.0
 30
0.0
 41
0.6
 42
0.6
  0
TEXT
  5
166
330
17
100
AcDbEntity
  8
TEXT
100
AcDbText
 10
76.79999999999998
 20
636.0
 30
0.0
 40
2.0
  1
STA-LINE-I-20
 72
1
 11
76.79999999999998
 21
636.0
 31
0.0
100
AcDbText
  0
LINE
  5
167
330
17
100
AcDbEntity
  8
CONVEYORS
100
AcDbLine
 10
80.4
 20
645.8
 30
0.0
 11
98.39999999999999
 21
645.8
 31
0.0
  0
LINE
  5
168
330
17
100
AcDbEntity
  8
CONVEYORS
100
AcDbLine
 10
80.4
 20
648.2
 30
0.0
 11
98.39999999999999
 21
648.2
 31
0.0
  0
INSERT
  5
STA-LINE-I-30
330
17
100
AcDbEntity
  8
0
100
AcDbBlockReference
  2
TYPE_DISPENSING
 10
98.39999999999999
 20
644.0
 30
0.0
 41
0.6
 42
0.6
  0
TEXT
  5
16B
330
17
100
AcDbEntity
  8
TEXT
100
AcDbText
 10
101.99999999999999
 20
636.0
 30
0.0
 40
2.0
  1
STA-LINE-I-30
 72
1
 11
101.99999999999999
 21
636.0
 31
0.0
100
AcDbText
  0
LINE
  5
16C
330
17
100
AcDbEntity
  8
CONVEYORS
100
AcDbLine
 10
105.6
 20
645.8
 30
0.0
 11
123.6
 21
645.8
 31
0.0
  0
LINE
  5
16D
330
17
100
AcDbEntity
  8
CONVEYORS
100
AcDbLine
 10
105.6
 20
648.2
 30
0.0
 11
123.6
 21
648.2
 31
0.0
  0
INSERT
  5
STA-LINE-I-40
330
17
100
AcDbEntity
  8
0
100
AcDbBlockReference
  2
TYPE_TEST
 10
123.6
 20
644.0
 30
0.0
 41
0.6
 42
0.6
  0
TEXT
  5
170
330
17
100
AcDbEntity
  8
TEXT
100
AcDbText
 10
127.19999999999999
 20
636.0
 30
0.0
 40
2.0
  1
STA-LINE-I-40
 72
1
 11
127.19999999999999
 21
636.0
 31
0.0
100
AcDbText
  0
LINE
  5
171
330
17
100
AcDbEntity
  8
CONVEYORS
100
AcDbLine
 10
130.8
 20
645.8
 30
0.0
 11
148.8
 21
645.8
 31
0.0
  0
LINE
  5
172
330
17
100
AcDbEntity
  8
CONVEYORS
100
AcDbLine
 10
130.8
 20
648.2
 30
0.0
 11
148.8
 21
648.2
 31
0.0
  0
INSERT
  5
STA-LINE-I-50
330
17
100
AcDbEntity
  8
0
100
AcDbBlockReference
  2
TYPE_SCREWING
 10
148.8
 20
644.0
 30
0.0
 41
0.6
 42
0.6
  0
TEXT
  5
175
330
17
100
AcDbEntity
  8
TEXT
100
AcDbText
 10
152.4
 20
636.0
 30
0.0
 40
2.0
  1
STA-LINE-I-50
 72
1
 11
152.4
 21
636.0
 31
0.0
100
AcDbText
  0
LINE
  5
176
330
17
100
AcDbEntity
  8
CONVEYORS
100
AcDbLine
 10
156.0
 20
645.8
 30
0.0
 11
174.0
 21
645.8
 31
0.0
  0
LINE
  5
177
330
17
100
AcDbEntity
  8
CONVEYORS
100
AcDbLine
 10
156.0
 20
648.2
 30
0.0
 11
174.0
 21
648.2
 31
0.0
  0
INSERT
  5
STA-LINE-I-60
330
17
100
AcDbEntity
  8
0
100
AcDbBlockReference
  2
TYPE_TEST
 10
174.0
 20
644.0
 30
0.0
 41
0.6
 42
0.6
  0
TEXT
  5
17A
330
17
100
AcDbEntity
  8
TEXT
100
AcDbText
 10
177.6
 20
636.0
 30
0.0
 40
2.0
  1
STA-LINE-I-60
 72
1
 11
177.6
 21
636.0
 31
0.0
100
AcDbText
  0
LWPOLYLINE
  5
17B
330
17
100
AcDbEntity
  8
FLOOR
100
AcDbPolyline
 90
5
 70
1
 10
300.0
 20
620.0
 10
469.2
 20
620.0
 10
469.2
 20
674.0
 10
300.0
 20
674.0
 10
300.0
 20
620.0
  0
TEXT
  5
17C
330
17
100
AcDbEntity
  8
TEXT
100
AcDbText
 10
300.0
 20
679.0
 30
0.0
 40
6.0
  1
Final Assembly Line LINE-J
 11
300.0
 21
679.0
 31
0.0
100
AcDbText
  0
INSERT
  5
STA-LINE-J-10
330
17
100
AcDbEntity
  8
0
100
AcDbBlockReference
  2
TYPE_TEST
 10
318.0
 20
644.0
 30
0.0
 41
0.6
 42
0.6
  0
TEXT
  5
17F
330
17
100
AcDbEntity
  8
TEXT
100
AcDbText
 10
321.6
 20
636.0
 30
0.0
 40
2.0
  1
STA-LINE-J-10
 72
1
 11
321.6
 21
636.0
 31
0.0
100
AcDbText
  0
LINE
  5
180
330
17
100
AcDbEntity
  8
CONVEYORS
100
AcDbLine
 10
325.2
 20
645.8
 30
0.0
 11
343.2
 21
645.8
 31
0.0
  0
LINE
  5
181
330
17
100
AcDbEntity
  8
CONVEYORS
100
AcDbLine
 10
325.2
 20
648.2
 30
0.0
 11
343.2
 21
648.2
 31
0.0
  0
INSERT
  5
STA-LINE-J-20
330
17
100
AcDbEntity
  8
0
100
AcDbBlockReference
  2
TYPE_DISPENSING
 10
343.2
 20
644.0
 30
0.0
 41
0.6
 42
0.6
  0
TEXT
  5
184
330
17
100
AcDbEntity
  8
TEXT
100
AcDbText
 10
346.8
 20
636.0
 30
0.0
 40
2.0
  1
STA-LINE-J-20
 72
1
 11
346.8
 21
636.0
 31
0.0
100
AcDbText
  0
LINE
  5
185
330
17
100
AcDbEntity
  8
CONVEYORS
100
AcDbLine
 10
350.4
 20
645.8
 30
0.0
 11
368.4
 21
645.8
 31
0.0
  0
LINE
  5
186
330
17
100
AcDbEntity
  8
CONVEYORS
100
AcDbLine
 10
350.4
 20
648.2
 30
0.0
 11
368.4
 21
648.2
 31
0.0
  0
INSERT
  5
STA-LINE-J-30
330
17
100
AcDbEntity
  8
0
100
AcDbBlockReference
  2
TYPE_DISPENSING
 10
368.4
 20
644.0
 30
0.0
 41
0.6
 42
0.6
  0
TEXT
  5
189
330
17
100
AcDbEntity
  8
TEXT
100
AcDbText
 10
372.0
 20
636.0
 30
0.0
 40
2.0
  1
STA-LINE-J-30
 72
1
 11
372.0
 21
636.0
 31
0.0
100
AcDbText
  0
LINE
  5
18A
330
17
100
AcDbEntity
  8
CONVEYORS
100
AcDbLine
 10
375.6
 20
645.8
 30
0.0
 11
393.6
 21
645.8
 31
0.0
  0
LINE
  5
18B
330
17
100
AcDbEntity
  8
CONVEYORS
100
AcDbLine
 10
375.6
 20
648.2
 30
0.0
 11
393.6
 21
648.2
 31
0.0
  0
INSERT
  5
STA-LINE-J-40
330
17
100
AcDbEntity
  8
0
100
AcDbBlockReference
  2
TYPE_DISPENSING
 10
393.6
 20
644.0
 30
0.0
 41
0.6
 42
0.6
  0
TEXT
  5
18E
330
17
100
AcDbEntity
  8
TEXT
100
AcDbText
 10
397.20000000000005
 20
636.0
 30
0.0
 40
2.0
  1
STA-LINE-J-40
 72
1
 11
397.20000000000005
 21
636.0
 31
0.0
100
AcDbText
  0
LINE
  5
18F
330
17
100
AcDbEntity
  8
CONVEYORS
100
AcDbLine
 10
400.8
 20
645.8
 30
0.0
 11
418.8
 21
645.8
 31
0.0
  0
LINE
  5
190
330
17
100
AcDbEntity
  8
CONVEYORS
100
AcDbLine
 10
400.8
 20
648.2
 30
0.0
 11
418.8
 21
648.2
 31
0.0
  0
INSERT
  5
STA-LINE-J-50
330
17
100
AcDbEntity
  8
0
100
AcDbBlockReference
  2
TYPE_VISION
 10
418.8
 20
644.0
 30
0.0
 41
0.6
 42
0.6
  0
TEXT
  5
193
330
17
100
AcDbEntity
  8
TEXT
100
AcDbText
 10
422.40000000000003
 20
636.0
 30
0.0
 40
2.0
  1
STA-LINE-J-50
 72
1
 11
422.40000000000003
 21
636.0
 31
0.0
100
AcDbText
  0
LINE
  5
194
330
17
100
AcDbEntity
  8
CONVEYORS
100
AcDbLine
 10
426.0
 20
645.8
 30
0.0
 11
444.0
 21
645.8
 31
0.0
  0
LINE
  5
195
330
17
100
AcDbEntity
  8
CONVEYORS
100
AcDbLine
 10
426.0
 20
648.2
 30
0.0
 11
444.0
 21
648.2
 31
0.0
  0
INSERT
  5
STA-LINE-J-60
330
17
100
AcDbEntity
  8
0
100
AcDbBlockReference
  2
TYPE_TEST
 10
444.0
 20
644.0
 30
0.0
 41
0.6
 42
0.6
  0
TEXT
  5
198
330
17
100
AcDbEntity
  8
TEXT
100
AcDbText
 10
447.6
 20
636.0
 30
0.0
 40
2.0
  1
STA-LINE-J-60
 72
1
 11
447.6
 21
636.0
 31
0.0
100
AcDbText
  0
TEXT
  5
199
330
17
100
AcDbEntity
  8
TEXT
100
AcDbText
 10
250.0
 20
20.0
 30
0.0
 40
15.0
  1
INBOUND SHIPPING
 72
1
 11
250.0
 21
20.0
 31
0.0
100
AcDbText
 73
2
  0
TEXT
  5
19A
330
17
100
AcDbEntity
  8
TEXT
100
AcDbText
 10
250.0
 20
770.0
 30
0.0
 40
15.0
  1
TECHNICAL LABS
 72
1
 11
250.0
 21
770.0
 31
0.0
100
AcDbText
 73
2
  0
ENDSEC
  0
SECTION
  2
OBJECTS
  0
DICTIONARY
  5
A
330
0
100
AcDbDictionary
281
1
  3
ACAD_COLOR
350
B
  3
ACAD_GROUP
350
C
  3
ACAD_LAYOUT
350
D
  3
ACAD_MATERIAL
350
E
  3
ACAD_MLEADERSTYLE
350
F
  3
ACAD_MLINESTYLE
350
10
  3
ACAD_PLOTSETTINGS
350
11
  3
ACAD_PLOTSTYLENAME
350
12
  3
ACAD_SCALELIST
350
14
  3
ACAD_TABLESTYLE
350
15
  3
ACAD_VISUALSTYLE
350
16
  3
EZDXF_META
350
2D
  0
DICTIONARY
  5
B
330
A
100
AcDbDictionary
281
1
  0
DICTIONARY
  5
C
330
A
100
AcDbDictionary
281
1
  0
DICTIONARY
  5
D
330
A
100
AcDbDictionary
281
1
  3
Model
350
1A
  3
Layout1
350
1E
  0
DICTIONARY
  5
E
330
A
100
AcDbDictionary
281
1
  3
ByBlock
350
1F
  3
ByLayer
350
20
  3
Global
350
21
  0
DICTIONARY
  5
F
330
A
100
AcDbDictionary
281
1
  3
Standard
350
2C
  0
DICTIONARY
  5
10
330
A
100
AcDbDictionary
281
1
  3
Standard
350
22
  0
DICTIONARY
  5
11
330
A
100
AcDbDictionary
281
1
  0
ACDBDICTIONARYWDFLT
  5
12
330
A
100
AcDbDictionary
281
1
  3
Normal
350
13
100
AcDbDictionaryWithDefault
340
13
  0
ACDBPLACEHOLDER
  5
13
330
12
  0
DICTIONARY
  5
14
330
A
100
AcDbDictionary
281
1
  0
DICTIONARY
  5
15
330
A
100
AcDbDictionary
281
1
  0
DICTIONARY
  5
16
330
A
100
AcDbDictionary
281
1
  0
LAYOUT
  5
1A
330
D
100
AcDbPlotSettings
  1

  4
A3
  6

 40
7.5
 41
20.0
 42
7.5
 43
20.0
 44
420.0
 45
297.0
 46
0.0
 47
0.0
 48
0.0
 49
0.0
140
0.0
141
0.0
142
1.0
143
1.0
 70
1024
 72
1
 73
0
 74
5
  7

 75
16
 76
0
 77
2
 78
300
147
1.0
148
0.0
149
0.0
100
AcDbLayout
  1
Model
 70
1
 71
0
 10
0.0
 20
0.0
 11
420.0
 21
297.0
 12
0.0
 22
0.0
 32
0.0
 14
1e+20
 24
1e+20
 34
1e+20
 15
-1e+20
 25
-1e+20
 35
-1e+20
146
0.0
 13
0.0
 23
0.0
 33
0.0
 16
1.0
 26
0.0
 36
0.0
 17
0.0
 27
1.0
 37
0.0
 76
1
330
17
  0
LAYOUT
  5
1E
330
D
100
AcDbPlotSettings
  1

  4
A3
  6

 40
7.5
 41
20.0
 42
7.5
 43
20.0
 44
420.0
 45
297.0
 46
0.0
 47
0.0
 48
0.0
 49
0.0
140
0.0
141
0.0
142
1.0
143
1.0
 70
0
 72
1
 73
0
 74
5
  7

 75
16
 76
0
 77
2
 78
300
147
1.0
148
0.0
149
0.0
100
AcDbLayout
  1
Layout1
 70
1
 71
1
 10
0.0
 20
0.0
 11
420.0
 21
297.0
 12
0.0
 22
0.0
 32
0.0
 14
1e+20
 24
1e+20
 34
1e+20
 15
-1e+20
 25
-1e+20
 35
-1e+20
146
0.0
 13
0.0
 23
0.0
 33
0.0
 16
1.0
 26
0.0
 36
0.0
 17
0.0
 27
1.0
 37
0.0
 76
1
330
1B
  0
MATERIAL
  5
1F
102
{ACAD_REACTORS
330
E
102
}
330
E
100
AcDbMaterial
  1
ByBlock
  2

 70
0
 40
1.0
 71
1
 41
1.0
 91
-1023410177
 42
1.0
 72
1
  3

 73
1
 74
1
 75
1
 44
0.5
 73
0
 45
1.0
 46
1.0
 77
1
  4

 78
1
 79
1
170
1
 48
1.0
171
1
  6

172
1
173
1
174
1
140
1.0
141
1.0
175
1
  7

176
1
177
1
178
1
143
1.0
179
1
  8

270
1
271
1
272
1
145
1.0
146
1.0
273
1
  9

274
1
275
1
276
1
 42
1.0
 72
1
  3

 73
1
 74
1
 75
1
 94
63
  0
MATERIAL
  5
20
102
{ACAD_REACTORS
330
E
102
}
330
E
100
AcDbMaterial
  1
ByLayer
  2

 70
0
 40
1.0
 71
1
 41
1.0
 91
-1023410177
 42
1.0
 72
1
  3

 73
1
 74
1
 75
1
 44
0.5
 73
0
 45
1.0
 46
1.0
 77
1
  4

 78
1
 79
1
170
1
 48
1.0
171
1
  6

172
1
173
1
174
1
140
1.0
141
1.0
175
1
  7

176
1
177
1
178
1
143
1.0
179
1
  8

270
1
271
1
272
1
145
1.0
146
1.0
273
1
  9

274
1
275
1
276
1
 42
1.0
 72
1
  3

 73
1
 74
1
 75
1
 94
63
  0
MATERIAL
  5
21
102
{ACAD_REACTORS
330
E
102
}
330
E
100
AcDbMaterial
  1
Global
  2

 70
0
 40
1.0
 71
1
 41
1.0
 91
-1023410177
 42
1.0
 72
1
  3

 73
1
 74
1
 75
1
 44
0.5
 73
0
 45
1.0
 46
1.0
 77
1
  4

 78
1
 79
1
170
1
 48
1.0
171
1
  6

172
1
173
1
174
1
140
1.0
141
1.0
175
1
  7

176
1
177
1
178
1
143
1.0
179
1
  8

270
1
271
1
272
1
145
1.0
146
1.0
273
1
  9

274
1
275
1
276
1
 42
1.0
 72
1
  3

 73
1
 74
1
 75
1
 94
63
  0
MLINESTYLE
  5
22
102
{ACAD_REACTORS
330
10
102
}
330
10
100
AcDbMlineStyle
  2
Standard
 70
0
  3

 62
256
 51
90.0
 52
90.0
 71
2
 49
0.5
 62
256
  6
BYLAYER
 49
-0.5
 62
256
  6
BYLAYER
  0
MLEADERSTYLE
  5
2C
102
{ACAD_REACTORS
330
F
102
}
330
F
100
AcDbMLeaderStyle
179
2
170
2
171
1
172
0
 90
2
 40
0.0
 41
0.0
173
1
 91
-1056964608
 92
-2
290
1
 42
2.0
291
1
 43
8.0
  3
Standard
 44
4.0
300

342
29
174
1
175
1
176
0
178
1
 93
-1056964608
 45
4.0
292
0
297
0
 46
4.0
 94
-1056964608
 47
1.0
 49
1.0
140
1.0
294
1
141
0.0
177
0
142
1.0
295
0
296
0
143
3.75
271
0
272
9
273
9
  0
DICTIONARY
  5
2D
330
A
100
AcDbDictionary
280
1
281
1
  3
CREATED_BY_EZDXF
350
2E
  3
WRITTEN_BY_EZDXF
350
19D
  0
DICTIONARYVAR
  5
2E
330
2D
100
DictionaryVariables
280
0
  1
1.4.3 @ 2026-05-09T19:46:03.594651+00:00
  0
DICTIONARYVAR
  5
19D
330
2D
100
DictionaryVariables
280
0
  1
1.4.3 @ 2026-05-09T19:46:03.752087+00:00
  0
ENDSEC
  0
EOF
